<?xml version="1.0" encoding="UTF-8"?>
<svg id="Layer_1" data-name="Layer 1" xmlns="http://www.w3.org/2000/svg" viewBox="0 0 105.75 43.81">
  <defs>
    <style>
      .cls-1 {
        fill: #f9f1de;
      }

      .cls-2 {
        fill: #9a7b59;
      }

      .cls-3 {
        fill: #73a54f;
        stroke: #6c8c53;
        stroke-width: .5px;
      }

      .cls-3, .cls-4, .cls-5, .cls-6 {
        stroke-miterlimit: 10;
      }

      .cls-4 {
        fill: #2263af;
        stroke: #a4c7e9;
        stroke-width: .25px;
      }

      .cls-5 {
        fill: none;
      }

      .cls-5, .cls-6 {
        stroke: #b3a2ce;
        stroke-width: .75px;
      }

      .cls-6 {
        fill: #b3a2ce;
      }
    </style>
  </defs>
  <rect class="cls-1" width="105.75" height="43.81"/>
  <g>
    <path class="cls-5" d="m22.28,9.79s-1.63-2.7-2.91-4.05c0,0,2.79.34,5.87,2.91,0,0,.84-.08,1.01,1.48s.17,6.46,1.77,7.35c0,0,2.24,3.59.93,6.63l-18.8-.24s.26-5.06,1.57-6.29,2.44-5.59,2.27-7.6c0,0,.66-.76,1.49-1.66,1.17-1.28,2.67-2.82,3.04-2.84,1.1-.04-.21-1.31-.97-1.18s-2.2,1.27,1.82,1.44c0,0,3.34-1.07,1.48-1.44s-3.55,6.38-2.24,8.11"/>
    <path class="cls-5" d="m24.78,8.54s.25-.83.68,2.35-2.74,6.45-3.04,7.75-1.27,1.93-1.22,3.66c0,0-.06.7-.85.79s-1.18-.09-1.47-1.14-.8-4.71-1.86-4.88-2.36-5.32-2.32-5.97.3-2.27.3-2.27"/>
    <path class="cls-5" d="m11.93,28.42s-2.73-1.69-2.39-.26,2.39.26,2.39.26Z"/>
    <path class="cls-5" d="m28.46,28.87s1.21-1.15,2.3,0-2.3,0-2.3,0Z"/>
    <path class="cls-5" d="m12.71,28.36s10.41-2.15,15.23.32c0,0-7.24,6.25-7.2,8.29,0,0-1.04,1.39-1.78,0,0,0-2.73-8.02-6.25-8.61Z"/>
    <path class="cls-5" d="m11.37,38.4s0-8.28,0-9.28"/>
    <path class="cls-5" d="m27.77,38.66s1.78-7.96,1.43-9.27"/>
    <circle class="cls-6" cx="12.61" cy="18.59" r=".45"/>
    <circle class="cls-6" cx="13.52" cy="20.89" r=".45"/>
    <circle class="cls-6" cx="17.11" cy="22.65" r=".45"/>
    <circle class="cls-6" cx="16.36" cy="19.05" r=".45"/>
    <circle class="cls-6" cx="21.76" cy="23.1" r=".45"/>
    <circle class="cls-6" cx="12.71" cy="23.49" r=".45"/>
    <circle class="cls-6" cx="24.13" cy="19.05" r=".45"/>
    <circle class="cls-6" cx="25.16" cy="22.65" r=".45"/>
    <circle class="cls-6" cx="26.07" cy="14.36" r=".45"/>
    <circle class="cls-6" cx="28.79" cy="20.44" r=".45"/>
    <circle class="cls-6" cx="26.82" cy="18.59" r=".45"/>
    <circle class="cls-6" cx="13.97" cy="14.19" r=".45"/>
    <circle class="cls-6" cx="15.45" cy="16.23" r=".45"/>
    <circle class="cls-6" cx="21.96" cy="29.39" r=".45"/>
    <circle class="cls-6" cx="25.01" cy="28.41" r=".45"/>
    <circle class="cls-6" cx="24.26" cy="30.81" r=".45"/>
    <circle class="cls-6" cx="21.07" cy="34.08" r=".45"/>
    <circle class="cls-6" cx="19.16" cy="30.63" r=".45"/>
    <circle class="cls-6" cx="18.71" cy="33.91" r=".45"/>
    <circle class="cls-6" cx="15.89" cy="28.63" r=".45"/>
    <circle class="cls-6" cx="18.57" cy="28.18" r=".45"/>
    <circle class="cls-6" cx="21.96" cy="31.42" r=".45"/>
    <circle class="cls-6" cx="19.47" cy="36.18" r=".45"/>
  </g>
  <path class="cls-2" d="m50.47,40.13s5.53-16.28,1.52-25.32l-1.21-3.02,3.16-.67s2.49,9.92,2.43,14-1.4,15.73-1.82,16.22-3.76.24-4.07-1.21Z"/>
  <path class="cls-3" d="m45.54,25.55l-1.57-3.73s.24-.37.47-.58-.82-.28-.82-.28v-2.75s.89-.64.96-.64-.96-.42-.96-.42c0,0,3.4-6.12,5.74-6.22l-3.74,1.88-2.01.03.13-1.53-.97,1.86-2.54.99v-1.19l-.61,1.8-2.36,1.42s2.79-8.11,6.27-8.52,7.55,2.49,7.55,2.49l-3.03-3,.74-1.42-1.22.53-2.59-1.37.74-1.17-1.93,1.14-1.58.28-1.42,2.36s-.53-5.82,6.18-6.36c0,0,6.38-.92,6.71,5.52v1.17s2.36-4.02,7.4-3.84c0,0,6.81,1.19,8.49,5.82l-2.85-.58-1.6-1.68.31,1.37-2.54-.03-1.96-1.53.86,1.73-1.55.33s-4.4-.43-5.29.18l6.69.99-.64.99,2.19.05.99,2.14-.48.33s1.78,1.73,2.21,3.33c0,0-3.3-.33-4.04-.03l-.08-1.47-1.42,1.35s-3.18-.13-3.18-.48.69-2.47.69-2.47l-1.05,1.16c-.24.26-.64.28-.9.05-1.06-.94-3.54-3.23-3.74-4.26-.25-1.32-.38,7.52-1.32,7.5s-1.68-.43-1.68-.43l1.09,1.14s-.64,2.11-1.47,2.11-1.27-.36-1.27-.36l1.04,1.17-3.03,3.11Z"/>
  <path class="cls-4" d="m63.7,30.22s6.98-3.21,9.14-7.43c2.16-4.22,7.19-10.82,11.79-11.59s8.83-1.74,11.66,3c2.83,4.73-2.89,7.34-3.47,7.57s-4.12-2.37-4.32-.9-.56,6.69,3.92,6.89c0,0,5.21,2.41,10.99.3,0,0-1.58,1.99-.86,2.99,0,0-5.84,1.6-5.7,2.81s-5.46-2.49-7.31,1.34c0,0-4.54-2.85-11.53,1.32,0,0-4.04-2.67-9.24-.75,0,0-.09-6.01-5.09-5.56Z"/>
  <path class="cls-4" d="m80.91,19.68s3.62-8.21,9.75-6.33"/>
  <path class="cls-4" d="m86.25,20.5s.52-5.27,4.68-4.84"/>
  <path class="cls-4" d="m68.76,28.95s3.61,1.22,5.76-2.67"/>
  <path class="cls-4" d="m75.11,31.41s4.37.74,8.28-3.78"/>
  <path class="cls-4" d="m84.69,32.14s4.91-.32,6.25-3.39"/>
</svg>