<?xml version="1.0" encoding="UTF-8"?>
<svg id="Layer_1" data-name="Layer 1" xmlns="http://www.w3.org/2000/svg" viewBox="0 0 67.63 44.99">
  <defs>
    <style>
      .cls-1 {
        fill: #ad1f23;
      }

      .cls-2 {
        fill: #d1d3d4;
        stroke: #a7a9ac;
        stroke-width: .25px;
      }

      .cls-2, .cls-3 {
        stroke-miterlimit: 10;
      }

      .cls-3 {
        fill: none;
        stroke: #231f20;
        stroke-linecap: round;
        stroke-width: .5px;
      }
    </style>
  </defs>
  <path class="cls-2" d="m3.35,8.07l-.53-.44v-.5h.35l.05-.57.41-.31.41-.07.41-.33v-.5h.55l.17.26-.39.24.05.52c.02.19-.11.37-.3.4l-.34.07c-.13.03-.23.11-.28.23l-.34.9-.23.08Z"/>
  <path class="cls-2" d="m8.5,5.54s-.27-.24-.32-.56c-.04-.23.11-.44.33-.53.18-.07.4-.22.41-.48.03-.44.39-.7.84-.73,0,0,.63-.13.81-.55,0,0,.42-.42.65.18,0,0,.23.23.34.1s.03-.41,1.05-.43c.06,0,.13,0,.19.03.24.09.88.36.96.77.11.51.34.66-.09,1.33,0,0-.38.28-.31.58s.24.78-.05.96c0,0-.7.77-1.06.72,0,0-1.88-.11-1.99-.37s-.47-.83-.8-.78-.97-.26-.97-.26Z"/>
  <path class="cls-2" d="m28.88,13.32c-.12,0-.06.33-.07.38,0,.18-.04.48-.18.41-.18-.08-.82.52-1.18-.55,0,0-.87-.76-.74-1.32s-.46-.4-.46-.4c0,0-.16-.51-.13-.74s-.44,0-.36-.38c.06-.26.98-.24,1.55-.2.26.02.51-.1.64-.32s.35-.52.58-.76c.3-.32.78-.3,1.06.03.35.42.83,1.03.98,1.47,0,0,.38.15.13.56s.97,1.15.97,1.15l.13-.51.3.13.09.22c-.06.16-.06.33,0,.49.1.3.28.73.38.62.15-.16.58.41.58.41,0,0-.35.61-.64.49s-1-.08-1-.08l-.2.26h-.3l-.56-.84-.6-.66c-.18-.2-.35-.1-.68.05l-.27.06Z"/>
  <path class="cls-2" d="m36.96,16.49s.29-.54.55-.73c.05-.03.08-.08.09-.13l.1-.61h.51l.23.22,1.27.05.25.25h.61s.26-.4.26-.4l.4.09v.47l2.51.06c.16,0,.25.17.16.31-.25.38-.71,1-1.18,1.1-.65.13-2.53-.29-2.86-.61-.04-.04-.09-.05-.15-.04-.41.06-1.85.24-2.09.09,0,0-.57.21-.66-.1Z"/>
  <path class="cls-2" d="m40.76,20.78s.14-1.14-.26-1.25c0,0-.94-.44-.2-.82s2.36,1.04,2.36,1.04c0,0,.3.41-.14.98,0,0-.94,1.04-1.76.06Z"/>
  <path class="cls-2" d="m45.1,23.93s-.91.27-.91-.3c0,0,.92-.93,1.43-.99,0,0,.41-.03.31.68s-.84.62-.84.62Z"/>
  <path class="cls-2" d="m46.45,20.33s-.19.55-.5.22-1.96-.55-1.76-2.03c0,0,.29-.89,1.01-1.12.52-.17,1.1.79,1.38,1.34.1.2.34.28.54.2.43-.18,1.15-.44,1.57-.37.64.1,2.22,1.35,2.22,1.35,0,0,1.55.24,1.52.73s-.86,1.71-1.92,1.77c0,0-.62-.31-.87-.09s-1.01.81-2.23.5c0,0-.28-.07-.27-.47s-.03-1.86-.1-2.01-.43-.29-.59-.03Z"/>
  <path class="cls-2" d="m53.91,30.47c.28-.34.34-.81.14-1.2-.45-.87-1.02-2.27-.19-2.55.92-.31,2.23.95,2.82,1.59.19.21.45.34.74.36.95.05,3.33.46,5.37,2.96.16.19.24.44.24.69v1.06s.24.17.54-.13c.27-.27.6-.07.76.9.04.24.16.46.35.63.4.36,1.1.97,1.41,1.14.44.25-2.48,2.81-3.73,3.19-.07.02-.13.03-.2.04-.14.01-.4.03-.63-.02-.33-.07-.67-.03-.94.17-.6.44-1.56,1.1-2.14,1.35-.24.1-.44.28-.55.51-.17.36-.44.88-.79,1.35-.57.76-.69.81-1.92,0-.15-.1-.31-.16-.49-.19-.4-.05-1.18-.29-1.24-1.38l.24-2.56c.02-.26-.03-.53-.18-.75-.17-.24-.37-.65-.34-1.22,0,0-.32-.24-.45-1.19-.04-.29-.17-.56-.4-.73-.25-.19-.54-.52-.54-1-.01-.85.51-1.21.51-1.21,0,0,.83-.22.97-.52.1-.22.25-.77.67-1.28Z"/>
  <g>
    <line class="cls-3" x1="28.86" y1="10.61" x2="28.86" y2="7.88"/>
    <circle class="cls-1" cx="28.86" cy="8.1" r="1.15"/>
  </g>
</svg>