<?xml version="1.0" encoding="UTF-8"?>
<svg id="Layer_1" data-name="Layer 1" xmlns="http://www.w3.org/2000/svg" viewBox="0 0 28.5 52.37">
  <defs>
    <style>
      .cls-1 {
        fill: #d1d3d4;
        stroke: #a7a9ac;
        stroke-miterlimit: 10;
        stroke-width: .25px;
      }
    </style>
  </defs>
  <path class="cls-1" d="m6.68,3.52l17.37-1.14s2.27,7.26,2.5,6.58,1.82,20.55,1.82,20.55c0,0-.95.15-.85.75s.57.54.57.54l-.34,1.07.76.9v2.93l-.58.56.02.86-.84.52-.08,1.37h-1.23l.54,1.07-.04.72-.64.44-.07,2.58-.28.35-.04.8.3.24-.09,1.17s-2.07.46-2.54.87v1.09l.54.48-.02.93-.54.3h-.78l-.22-.57-2.15-.74-1.65,1.59h-1.3l-.83-1.79.07-.93.37-.57-.37-.7-.02-1.5-6.13-4.11.04-1.96.74-1.72.02-1.04.67-.59-.17-.8s-1.93-1.11-2.61-.43l-.5.85-.46-.04-.54-1.39.02-1.96-4.85-4.11v-2.17h-.63v-3.48h.57l-.11-1.72,1.63-.89.04-1.48.91-.91.02-1.46-1.02-1.04v-1.2l.33-.43,1.72-.02-.04-.52,1.04.02.04-.61,1.54-.07.11-1.7,1.01-1.07-.05-2.63-2.68-2.68Z"/>
</svg>