<?xml version="1.0" encoding="UTF-8"?>
<svg id="Layer_1" data-name="Layer 1" xmlns="http://www.w3.org/2000/svg" viewBox="0 0 51.12 44.99">
  <defs>
    <style>
      .cls-1 {
        fill: #d1d3d4;
        stroke: #a7a9ac;
        stroke-miterlimit: 10;
        stroke-width: .25px;
      }
    </style>
  </defs>
  <path class="cls-1" d="m6.61,29.01l-1.37-2.26c-.17-.28-.05-.65.26-.78l4.66-1.92c.06-.03.13-.04.2-.04h2.66c.1,0,.19.03.28.08l.73.44.5-.4c.1-.08.21-.12.33-.12h1.53l.43-.56h.99c.12,0,.24-.04.33-.11l3.27-2.55s.02-.02.03-.02l.52-.47.27-1.52c.03-.19-.04-.38-.18-.5l-.78-.66v-.64h.48c.3,0,.54-.24.54-.54v-.48c0-.3-.24-.54-.54-.54h0c-.47,0-.71-.56-.39-.9l1.7-1.84c.09-.1.14-.23.14-.37v-2.03c0-.14.06-.28.15-.38l3.48-3.53c.08-.08.17-.13.28-.15l9.05-1.77c.33-.06.64.19.64.53v2.4c0,.17.08.33.22.43l.99.73c.15.11.23.29.22.48l-.28,3.1c0,.09,0,.18.04.26l.6,1.44c.03.07.04.14.04.21v1.5c0,.3.24.54.54.54h.47c.26,0,.48.18.53.43l1.3,6.59s.01.07.01.1v6.33s0,.06,0,.09l.99,5.62c.01.08.04.15.09.22l.38.54c.17.24.11.57-.12.74l-.51.37c-.15.11-.23.28-.22.46l.03.56c0,.07,0,.15-.03.22l-.7,1.86s0,.02-.01.04l-.63.3v-1.15c0-.21-.13-.41-.32-.49l-5.79-2.49c-.07-.03-.14-.04-.21-.04h-1.05c-.23,0-.44-.15-.51-.37l-.68-2.11c-.07-.21-.26-.36-.49-.37l-.65-.03c-.19,0-.37-.12-.46-.29l-.31-.6c-.11-.21-.34-.32-.57-.28l-27.21,5.06c-.33.06-.64-.19-.64-.53v-1.87c0-.14.05-.27.14-.37l4.59-4.95c.16-.18.19-.44.07-.64Z"/>
</svg>