<?xml version="1.0" encoding="UTF-8"?>
<svg id="Layer_1" data-name="Layer 1" xmlns="http://www.w3.org/2000/svg" viewBox="0 0 105.75 43.81">
  <defs>
    <style>
      .cls-1 {
        fill: #f4c643;
      }

      .cls-2 {
        fill: #f9f1de;
      }

      .cls-3 {
        fill: #e987a4;
      }

      .cls-4, .cls-5, .cls-6 {
        fill: #fff;
      }

      .cls-7 {
        fill: #b2895b;
      }

      .cls-8 {
        fill: #cccccb;
      }

      .cls-9 {
        fill: #d1d3d4;
      }

      .cls-10 {
        fill: #e0b8d1;
      }

      .cls-11, .cls-12, .cls-13, .cls-14, .cls-15, .cls-16, .cls-17 {
        fill: #231f20;
      }

      .cls-18, .cls-19 {
        fill: #1a4e60;
      }

      .cls-20 {
        fill: #0c1a1f;
      }

      .cls-21 {
        fill: #88434d;
      }

      .cls-12 {
        font-family: Charmonman-Bold, Charmonman;
        font-size: 2.06px;
        font-weight: 700;
      }

      .cls-13 {
        font-size: 4.91px;
      }

      .cls-13, .cls-14, .cls-15, .cls-16, .cls-17 {
        font-family: AvenirNextCondensed-Regular, 'Avenir Next Condensed';
      }

      .cls-19 {
        stroke: #1a4e60;
        stroke-width: 2px;
      }

      .cls-19, .cls-22, .cls-23 {
        stroke-miterlimit: 10;
      }

      .cls-14 {
        font-size: 5.31px;
      }

      .cls-22 {
        fill: none;
        opacity: .32;
      }

      .cls-22, .cls-23 {
        stroke: #fff;
      }

      .cls-15 {
        font-size: 5.48px;
      }

      .cls-16 {
        font-size: 5.06px;
        letter-spacing: -.02em;
      }

      .cls-23 {
        opacity: .45;
      }

      .cls-23, .cls-24 {
        fill: #e0dedf;
      }

      .cls-17 {
        font-size: 4.67px;
      }

      .cls-24 {
        opacity: .57;
      }

      .cls-5 {
        opacity: .62;
      }

      .cls-6 {
        opacity: .9;
      }

      .cls-25 {
        fill: #396375;
        opacity: .35;
      }
    </style>
  </defs>
  <rect class="cls-2" width="105.75" height="43.81"/>
  <g>
    <path class="cls-3" d="m12.46,18.28s.58,2.72.77,2.85c0,0,3,13.12,3.28,13.42,0,0,.35,2.33.68,2.46s7.17,4,13.1-1.89l2.04-15.57s.32-.36.34-.58.37-2.42.37-2.42c0,0-9.35,5.18-20.57,1.73Z"/>
    <path class="cls-5" d="m13.63,22.97s.82,3.45.88,3.87c.06.36,10.69,3.86,17.09-1.84l.51-4.05s-7.65,5.81-18.48,2.02Z"/>
    <path class="cls-11" d="m16.76,24.75s1.19.18,1.35.17l.07.34-1.06-.11.16.59.67.13.08.34-.71-.11.15.7s.96.16.99.15.06.34.06.34l-1.36-.19-.4-2.34Z"/>
    <path class="cls-11" d="m19.46,25.03s1.2,0,1.29-.02.16,1.01.16,1.01c0,0-.02.17-.21.21l-.04.06s.32.32.34.48l.09.62h-.44s-.02-.88-.38-.91c0,0-.47-.18-.69-.12l.16,1.03-.43-.05s-.45-1.93-.22-2.14c0,0,.13-.22.36-.17Z"/>
    <path class="cls-6" d="m19.37,26.04s-.18-.52-.06-.6,1.17-.04,1.21-.08.07.61.07.61c0,0-1.2.14-1.22.06Z"/>
    <path class="cls-11" d="m21.75,24.98s1.71-.07,1.8-.1l.06.31-1.35.13.09.64s.78-.02.8-.06,0,.06,0,.06v.24s-.79.12-.79.12l.07.69s1.11-.06,1.19-.08.07.33.07.33l-1.64.13-.28-2.41Z"/>
    <path class="cls-11" d="m24.47,24.71s.4-.04.43-.06.04,2.04.11,2.04.44-.13.49-.28-.04-1.35-.04-1.35c0,0,.48-.03.49-.07s-.05,1.24,0,1.28.19.19.47.14v-2.03l.46-.09v2.37s-.5.28-1.14.07c0,0-.27.32-1.14.38l-.12-2.41Z"/>
    <path class="cls-11" d="m27.69,24.09s.3-.08.36-.11v.96s.11.01.76-.22v-1.01l.42-.13-.12,2.35-.35.12.03-.91-.72.18-.04.99-.38.12.04-2.33Z"/>
    <path class="cls-11" d="m29.72,25.29s-.17-1.49.35-1.98c0,0,.77-.84.79.1l-.1,1.11s-.16.53-.48.8c0,0-.42.27-.56-.05Z"/>
    <path class="cls-6" d="m29.95,24.91s-.1-.89.21-1.17c0,0,.45-.5.47.06l-.06.66s-.1.31-.29.48c0,0-.25.16-.33-.03Z"/>
    <polygon class="cls-11" points="31.26 22.52 31.48 22.37 31.59 23.54 31.72 22.11 31.84 21.99 31.59 24.21 31.49 24.31 31.35 23.25 31.23 24.61 31.07 24.74 31.26 22.52"/>
    <path class="cls-23" d="m10.72,14.3c4.19,1.01,14.77,2.77,22.95-1.04.68-.31.47-1.55,0-1.69-4.22-1.24-15.44-3.05-23.16,1.18-.68.37-.55,1.36.21,1.55Z"/>
    <path class="cls-24" d="m10.75,14.3s.34,1.2.86,1.72,13.77,2.66,21.81-1.27l.25-1.48s-8.68,4.44-22.93,1.04Z"/>
    <path class="cls-24" d="m11.61,15.9s.21,2.01.59,2.27,11.74,3.8,20.83-1.63l.4-1.95s-9.49,4.49-21.81,1.31Z"/>
    <path class="cls-21" d="m26.09,31.38s.35-.3.54-.48-.02-.2.12-.47,0-.39.43-.46,2.08-1.14,2.21-1.37-.49-.38-.49-.44-.6.02-1.16,0-.88-.06-.88-.3.09-.19.64-.23,1.21,0,1.55-.17-.32-.29-.04-.57.97-.15,1.5-.76l.53-.61s.28-.44.23-.08.04,1.22-.21,1.56-.7,1.34-.7,1.34c0,0-2.1,3.03-3.75,3.41,0,0-.44.06-.53-.37Z"/>
    <path class="cls-7" d="m18.52,37.32s-.42-.23-.22-.56.11-.85.22-1.28.19-1.74,0-2.39-1.24-1.54-1.24-2.42.36-1.77.36-1.77c0,0,.69.62,1.4.66s.61.46.64,1.57.03,2.59.39,3.54.89,1.61,1.41,2.1,1.13.82,1.24,1.21-3.98-.1-4.2-.66Z"/>
    <path class="cls-21" d="m20.33,34.37s2.17.5,2.84.28.2,2.02.2,2.02l.37,1.61s-1.77-.81-1.71-1.23-1.78-1.47-1.71-2.68Z"/>
    <path class="cls-21" d="m25.39,34.4s2.14-.17,4.02-2.02c0,0,.66-.48.97-.86s-.57,1.31-.98,1.44-1.03,1.26-1.03,1.26c0,0,0,.83.22.6s.44.2.44.2c0,0,.3.19.33,0s-.07.05.3.08.14.63-.18.72-4.28,2.43-4.67,2.29.56-.96.58-1.28.37-2.28.01-2.44Z"/>
    <path class="cls-3" d="m15.72,15.17s-1.04,1.3,0,2.07c0,0-3.03,1.29-.23,2.18s12.28,1.21,13.2.49.4-2.47-.49-2.35c0,0,2.23-2.72-1.15-3.1-3.38-.38-11.33.7-11.33.7Z"/>
    <path class="cls-22" d="m10.75,14.3s13.18,3.32,22.93-1.04c0,0,3.27-2.14-6.12-2.87,0,0-10.84-1.51-17.05,2.36,0,0-1.17,1,.23,1.55Z"/>
    <path class="cls-3" d="m15.72,15.17s.08-4.09,3.32-4.56c0,0,.29-6.71,1.03-7.23,0,0,2.35.16,5.61,5.27,0,0,2.63,1.55,2.26,3.33,0,0-.21.64-.44.64s.57.82-.44,1.85l-11.33.7Z"/>
  </g>
  <g>
    <path class="cls-25" d="m85.38,6.91s.02-.3.83-.37c0,0,.72.1.79.33l.07,2.45.59,1.43.48.77v5.65l.35,26.09s-3.27-.36-4.19,0l.07-33.27s.41-.65.99-.66"/>
    <path class="cls-18" d="m84.36,10.76v-.66s.17-.83,1.92-.91,1.82,1.28,1.82,1.28c0,0,.08.39-.08.41l-.37-.13s-.3-.85-1.42-.91c0,0-1.24-.1-1.56.75l-.32.17Z"/>
    <path class="cls-18" d="m84.29,10.8s-1.16.43-.99,1.4c0,0,2.1-2.47,5.83-.08,0,0,.26-.4.15-.63s-2.58-1.57-4.99-.7Z"/>
    <path class="cls-20" d="m83.6,13.05s-.37-.27-.3-.85,2.48-1.85,4.84-.69v.91s-.88-1.2-2.32-.88-1.29.52-1.37.91l-.84.59Z"/>
    <path class="cls-18" d="m92.21,27.13l-.13-2.23s-2.44-12.12-2.95-12.77l.15-.63s.8.89.9,1.82l1.92,8.82.11,4.98Z"/>
    <text class="cls-12" transform="translate(84.87 15.69)"><tspan x="0" y="0">the</tspan></text>
    <text class="cls-17" transform="translate(84.64 21.25)"><tspan x="0" y="0">G</tspan></text>
    <text class="cls-13" transform="translate(84.78 26.05)"><tspan x="0" y="0">R</tspan></text>
    <text class="cls-14" transform="translate(84.78 31.14) scale(.91 1)"><tspan x="0" y="0">O</tspan></text>
    <text class="cls-16" transform="translate(84.76 36.63)"><tspan x="0" y="0">V</tspan></text>
    <text class="cls-15" transform="translate(84.79 42.42)"><tspan x="0" y="0">E</tspan></text>
    <path class="cls-18" d="m84.29,14.56s-1.29-.6-.53-1.62c0,0,.82-.98,2.52-.83l3.09.62.04.38-1.27,1.52-.02-.61s.33-.25-.09-.66c-.47-.47-1.2-.62-2.17-.49s-1.63.47-1.57,1.68Z"/>
    <path class="cls-18" d="m84.21,19.14s-1.29-.6-.53-1.62c0,0,.82-.98,2.52-.83l4.08.62.08.55-2.2,2.01-.13-1.26s.33-.25-.09-.66c-.47-.47-1.2-.62-2.17-.49s-1.63.47-1.57,1.68Z"/>
    <path class="cls-18" d="m84.33,23.69s-1.47-.49-.7-1.5c0,0,.87-.9,2.57-.76l5.1.83.05.47-2.07,1.8-1.15-1.1s.24-.34-.18-.75c-.47-.47-1.2-.62-2.17-.49s-1.51.28-1.45,1.49Z"/>
    <polygon class="cls-20" points="88.23 24.35 89.28 24.54 88.13 23.44 88.23 24.35"/>
    <path class="cls-18" d="m84.33,28.55s-1.47-.49-.7-1.5c0,0,.87-.9,2.57-.76l5.94.97-.55.45-2.57,1.52-.77-.96s.12-.31-.3-.72c-.47-.47-1.2-.62-2.17-.49s-1.51.28-1.45,1.49Z"/>
    <polygon class="cls-20" points="88.25 28.26 88.25 29.09 89.02 29.22 88.25 28.26"/>
    <path class="cls-18" d="m84.14,33.84s-1.47-.49-.7-1.5c0,0,.87-.9,2.57-.76l5.94.97-.55.45-2.33,1.1-.78-.03s-.11-.82-.53-1.22c-.47-.47-1.2-.62-2.17-.49s-1.51.28-1.45,1.49Z"/>
    <path class="cls-18" d="m84.34,38.9s-1.66-.11-.9-1.13c0,0,.85-.54,2.55-.39l5.81.34.05.5-3.42,1.06v-.59s.45-.39-.08-.63c-.65-.29-1.43-.27-2.56-.19-.96.07-1.51-.18-1.45,1.03Z"/>
    <path class="cls-18" d="m85.29,8s-.37-.04-.28-.71,2.42-.8,2.38.11c0,0,.16.48-.28.68,0,0-.02-1.13-.98-1.02s-.75.49-.84.95Z"/>
    <line class="cls-19" x1="86.21" y1="1.02" x2="86.21" y2="6.74"/>
    <path class="cls-1" d="m86.21.1s-.65.03-.59.81c0,0,.01.55.59.57,0,0,.68-.04.67-.63,0,0,.04-.77-.67-.75Z"/>
  </g>
  <g>
    <g>
      <circle class="cls-10" cx="57.57" cy="19.69" r="9.29"/>
      <polygon class="cls-10" points="48.78 34.42 48.29 19.69 66.86 19.69 66.86 34.42 48.78 34.42"/>
    </g>
    <circle class="cls-4" cx="57.57" cy="19.69" r="8.57"/>
    <circle class="cls-9" cx="57.57" cy="19.52" r="8"/>
    <path class="cls-8" d="m51.57,14.24s.54-.63,1.45-1.29l8.37,13.61s-1.3.63-2,.76l-7.82-13.08Z"/>
  </g>
</svg>