<?xml version="1.0" encoding="UTF-8"?>
<svg id="Layer_1" data-name="Layer 1" xmlns="http://www.w3.org/2000/svg" viewBox="0 0 105.75 43.81">
  <defs>
    <style>
      .cls-1 {
        fill: #f9f1de;
      }

      .cls-2 {
        fill: #9eddf9;
      }

      .cls-3 {
        fill: #ade0f9;
      }

      .cls-4 {
        fill: #4386c6;
      }

      .cls-5 {
        fill: #47569a;
      }

      .cls-6 {
        fill: #7a4e20;
      }

      .cls-7 {
        fill: #cedad8;
        stroke-width: .25px;
      }

      .cls-7, .cls-8, .cls-9, .cls-10, .cls-11, .cls-12, .cls-13, .cls-14, .cls-15 {
        stroke-miterlimit: 10;
      }

      .cls-7, .cls-13 {
        stroke: #eaefef;
      }

      .cls-8 {
        fill: #020202;
        stroke: #020202;
      }

      .cls-9 {
        stroke: #fff;
      }

      .cls-9, .cls-16 {
        fill: #fff;
      }

      .cls-10 {
        fill: #c5e9fb;
        stroke: #c5e9fb;
      }

      .cls-11 {
        fill: #aeadab;
        stroke: #aeadab;
      }

      .cls-12 {
        fill: #d8a79c;
        stroke: #d8a79c;
      }

      .cls-13 {
        fill: #cdd9d7;
      }

      .cls-14 {
        fill: #b8cdd0;
        stroke: #b8cdd0;
      }

      .cls-15 {
        fill: #3c5785;
        stroke: #3c5785;
      }

      .cls-17 {
        letter-spacing: -.02em;
      }

      .cls-16 {
        font-family: Helvetica-Bold, Helvetica;
        font-size: 2.35px;
        font-weight: 700;
      }
    </style>
  </defs>
  <rect class="cls-1" width="105.75" height="43.81"/>
  <g>
    <path class="cls-4" d="m44.69,22.99s-.35-.79-.75-1.76c-.63-1.5-1.39-3.46-1.25-3.68.24-.36,2.93-.15,3.11,0s2.69,4.3,3.4,4.15l-4.51,1.28Z"/>
    <path class="cls-4" d="m43.44,21.42c-.13.05-.17.22-.07.33.42.43,1.32,1.24,1.32,1.24l-.75-1.76-.5.19Z"/>
    <path class="cls-4" d="m54.95,35.21l3.53-2.62s.81-.06,1.01,0,1.36.99.12,2.82l-4.66-.2Z"/>
    <path class="cls-4" d="m59.29,32.04l3.47-2.6h.85c.16,0,1.26,1.2.17,2.66l-4.49-.07Z"/>
    <path class="cls-4" d="m59.89,18.44s.62-.02.72,0,.34.29.35.91l-1.07-.91Z"/>
    <path class="cls-4" d="m54.5,16.98s-.3-.63.28-.7,2.16,0,2.16,0l.82.6-3.27.1Z"/>
    <path class="cls-4" d="m48.91,36.36s-.35-.48.12-.85l5.2.15s-1.01.77-1.31.77-4-.07-4-.07Z"/>
    <path class="cls-10" d="m44.47,25.28s-2.16-.78-1.05-1.48,5.91-1.83,5.91-1.83c0,0,1.82-.57,7.41-.52,0,0,14.77-.16,16.04.24,0,0,1.71.31,2.28,1.11l1,1.06s.22.25.41.24.83.63.79,1.27-.93,1.08-.93,1.08c0,0-2.59,1.16-3.97,1.06,0,0-6.19.25-6.88.13s-10.68.67-18.15-1.25l-2.86-1.11Z"/>
    <path class="cls-4" d="m44.58,25.4s.02-.28.12-.45,3.86-.83,4.51.09c0,0-.1.31-.26.4s-4.77,2.52-4.77,2.52c0,0-2.3.11-2.49-.2s2.21-1.93,2.89-2.35Z"/>
    <path class="cls-3" d="m49,35.53s6.77-6.44,7.04-6.94.31-.8.31-.8l.24-1.08s8.75-1.85,9.53,0c0,0-.17.59-1.34,1.41s-10.58,7.56-10.58,7.56l-5.2-.15Z"/>
    <path class="cls-5" d="m53.66,23.85s-.01-.65.49-.67.55.47.52.67,0,.55-.5.59-.4-.31-.51-.59Z"/>
    <path class="cls-5" d="m56.18,23.85s-.01-.65.49-.67.55.47.52.67,0,.55-.5.59-.4-.31-.51-.59Z"/>
    <path class="cls-5" d="m58.65,23.85s-.01-.65.49-.67.55.47.52.67,0,.55-.5.59-.4-.31-.51-.59Z"/>
    <path class="cls-5" d="m61.15,23.85s-.01-.65.49-.67.55.47.52.67,0,.55-.5.59-.4-.31-.51-.59Z"/>
    <path class="cls-5" d="m63.68,23.85s-.01-.65.49-.67.55.47.52.67,0,.55-.5.59-.4-.31-.51-.59Z"/>
    <path class="cls-5" d="m66.13,23.85s-.01-.65.49-.67.55.47.52.67,0,.55-.5.59-.4-.31-.51-.59Z"/>
    <path class="cls-5" d="m68.91,23.85s-.01-.65.49-.67.55.47.52.67,0,.55-.5.59-.4-.31-.51-.59Z"/>
    <path class="cls-5" d="m71.5,24.35s.42-1.1.63-1.17,1.12,0,1.12,0c0,0-.37,1.1-.47,1.17s-1.27,0-1.27,0Z"/>
    <path class="cls-5" d="m73.48,23.18l.7-.03s.92,1.05.83,1.12-1.92.18-2,.11.47-1.2.47-1.2Z"/>
    <path class="cls-5" d="m74.4,23.15s.3-.18.42-.22,1.02.92.93,1-.45.25-.54.27-.81-1.05-.81-1.05Z"/>
    <path class="cls-4" d="m76.31,26.16s-.58-1.41-.05-1.85c0,0,.63-.03.79.92,0,0-.03.57-.74.92Z"/>
    <polygon class="cls-2" points="54.42 16.92 57.69 16.82 63.05 21.19 56.87 21.3 54.42 16.92"/>
  </g>
  <path class="cls-13" d="m17.41,13.96v.42l-.78,26.54h.56s.58-26.25.58-26.25c0,0,.03-.05.05-.08s.05-.03.05-.06.03-.02.04-.06,0-.11.02-.14.04-.03.04-.03l.02-.08-.13-.07v-.05s-.44-.13-.44-.13Z"/>
  <polygon class="cls-14" points="2.22 5.43 17.41 14.51 16.64 41.35 2.22 41.35 2.22 5.43"/>
  <polygon class="cls-7" points="28.06 19.11 26.98 19.41 26.82 19.47 29.11 20.84 29.14 20.81 28.06 19.11"/>
  <polygon class="cls-12" points="18.34 14.34 17.81 41.45 30.94 40.69 28.85 21.13 18.34 14.34"/>
  <path class="cls-6" d="m7.67,41.7s-.46-6.17,0-7.42,3.07-1.99,3.59,0,0,7.42,0,7.42h-3.59Z"/>
  <path class="cls-6" d="m23.78,41.35s-.74-5.38.21-5.73c0,0,1.42-.94,1.24,5.65l-1.44.08Z"/>
  <g>
    <polygon class="cls-11" points="88.3 2.02 88.3 18.24 88.95 18.24 100.77 17.86 98.96 2.02 88.3 2.02"/>
    <polygon class="cls-15" points="88.25 18.48 88.89 18.48 88.57 31.53 102.01 31.92 100.71 18.09 102.54 32.76 102.54 41.79 88.25 41.79 88.25 18.48"/>
    <polygon class="cls-8" points="88.89 18.48 100.54 18.09 101.84 31.64 88.76 31.32 88.89 18.48"/>
    <line class="cls-9" x1="88.87" y1="20.34" x2="100.73" y2="20.11"/>
    <text class="cls-16" transform="translate(89.32 23.52)"><tspan class="cls-17" x="0" y="0">T</tspan><tspan x="1.39" y="0">imes</tspan><tspan x="0" y="2.81">Square</tspan></text>
  </g>
</svg>