<?xml version="1.0" encoding="UTF-8"?>
<svg id="Layer_1" data-name="Layer 1" xmlns="http://www.w3.org/2000/svg" viewBox="0 0 35.74 64.34">
  <defs>
    <style>
      .cls-1 {
        fill: #ad1f23;
      }

      .cls-2 {
        fill: #d1d3d4;
        stroke: #a7a9ac;
        stroke-width: .25px;
      }

      .cls-2, .cls-3 {
        stroke-miterlimit: 10;
      }

      .cls-3 {
        fill: none;
        stroke: #231f20;
        stroke-linecap: round;
        stroke-width: .5px;
      }
    </style>
  </defs>
  <path class="cls-2" d="m3.45.61l16.79,4.99s.07.06.06.11l-4.59,16.63s0,.05.01.07l18.32,28.27s0,.02.01.02l.78,2.74s0,.02.01.03c.11.15,1.18,1.61.8,2.01-.01.01-.03.02-.04.03-.25.07-2.35.68-2.29,1.18.07.52.52,2.4-1.52,3.02-.04.01-.07.05-.07.09l.03,1.81s0,.05.03.07c.24.19,1.76,1.51-.68,2.05l-.42.23-10.66-1.36s-.08-.05-.08-.1c.06-.64.31-4.81-3.22-8.11-.01-.01-.03-.02-.04-.02l-.88-.2s-.07-.05-.07-.09l.08-1.21s0-.05-.03-.07l-.99-.92s-.07-.03-.1-.01l-.57.29s-.08.01-.11-.02l-1.57-1.58s0,0,0,0l-1.5-1.84s-.04-.03-.07-.03h-1.08s-.03-.02-.05-.03l-2.84-1.9s-.04-.05-.04-.08v-2.24s.03-.07.06-.08l.62-.27s.05-.04.05-.08l.05-.96s-.01-.06-.04-.08l-.65-.41s-.04-.05-.04-.08l.02-1.11s0-.03,0-.04c-.19-.37-3.21-6.33-3.21-6.52,0-.16.02-.77.03-.95,0-.03.02-.06.05-.07l.91-.48s.05-.04.05-.08l.06-1.55s-.01-.06-.04-.08c-.23-.16-1.38-.94-1.43-1.19-.05-.27,0-3.49,0-3.82,0-.02,0-.03.02-.05l.37-.51.87,1.83c.04.08.16.06.17-.03l.27-2.19s.03-.07.07-.08l1.08-.28c.07-.02.09-.11.03-.16-.37-.28-1.38-1-2.08-.9-.04,0-.06.03-.07.07l-.27.86s-.06.07-.11.06c-.31-.07-1.39-.38-1.61-1.29s-.06-1.4-.01-1.53c0-.02,0-.05,0-.07l-1.53-3.13s0-.03,0-.04v-4.26s.04-.09.08-.09c.22,0,.78-.16.6-1.5L.04,9.44s-.31-.06.84-1.22,2.13-3.66,2.21-3.86c0,0,0-.02,0-.03l.23-3.65c0-.06.06-.1.12-.08Z"/>
  <line class="cls-3" x1="3.65" y1="23.71" x2="3.65" y2="19.58"/>
  <circle class="cls-1" cx="3.65" cy="19.91" r="1.74"/>
</svg>