<?xml version="1.0" encoding="UTF-8"?>
<svg id="Layer_1" data-name="Layer 1" xmlns="http://www.w3.org/2000/svg" viewBox="0 0 105.75 43.81">
  <defs>
    <style>
      .cls-1 {
        fill: #f9f1de;
      }

      .cls-2 {
        fill: #7bbece;
      }

      .cls-3 {
        fill: #444542;
      }

      .cls-4, .cls-5 {
        fill: #948d7a;
      }

      .cls-6 {
        fill: #545047;
      }

      .cls-7 {
        fill: #dddbd7;
      }

      .cls-7, .cls-8, .cls-9, .cls-10, .cls-5, .cls-11, .cls-12, .cls-13 {
        stroke-miterlimit: 10;
      }

      .cls-7, .cls-5, .cls-11 {
        stroke: #948d7a;
      }

      .cls-8 {
        fill: #8e8775;
        stroke: #8e8775;
      }

      .cls-9 {
        fill: #231f20;
        stroke: #231f20;
      }

      .cls-10 {
        fill: #a89e88;
        stroke: #a89e88;
      }

      .cls-11, .cls-12 {
        fill: none;
      }

      .cls-12 {
        stroke: #455d6b;
      }

      .cls-13 {
        fill: #aeadab;
        stroke: #aeadab;
        stroke-width: .1px;
      }
    </style>
  </defs>
  <rect class="cls-1" width="105.75" height="43.81"/>
  <g>
    <polygon class="cls-13" points="71.79 9.95 73.64 10.04 74.15 12.15 74.15 12.45 74.45 13.45 74.45 13.86 74.17 13.86 74.45 14.39 74 25.22 70.34 24.93 71.13 9.99 71.79 9.95"/>
    <polygon class="cls-13" points="69.61 2.64 69.81 1.31 69.94 1.31 70.05 1.19 70.05 1.12 71.77 1.12 71.77 1.22 71.79 1.31 71.88 1.43 71.81 1.88 71.88 2.04 71.96 2.15 72.02 2.3 71.98 2.55 72.02 2.69 72.02 2.79 72.02 3 71.99 3.28 71.94 3.55 72.02 3.71 72.1 3.82 71.98 4.99 72.06 5.15 71.83 8.36 71.92 8.59 71.79 9.95 71.55 9.5 70.34 24.93 69.61 24.82 69.61 2.64"/>
    <path class="cls-13" d="m68.04,1.12h1.07l2.55,7.8-.02.04-.07.02v.04s-.22-.01-.22-.01l-.05.04.08.15-.1.1-.07.02-.02.18.07.28v.14s-.08.05-.08.05l-.05.02.07.1-.18,1.19.24.55-.02.09-.13.1.02.09-.06.27-.03.04.09.16s-.03.11-.06.13-.79,9.47-.79,9.47c0,0,.08.02.09.05s-.03.13-.03.13l-.06.09-.02.47.24.21-.14.17.03.03-.13.03-.09.11.04.06-.13,1.34-2.02-.13V1.12Z"/>
    <path class="cls-13" d="m74,25.22l.2-4.85.7-.24.18-3.64h.1l.08.28.11-.05v-.41l.13-.17.05-.77-.09-.14.09-.05.04-.26.08-.14.05.13h.15s.06-.71.65-.73c0,0,.38.01.54.6l.11.15v.09l.05.11.03-.16.04-.09.04-.09.09.17v.25l.07.15-.03.09-.03.1v.23s0,.33,0,.33l.03.18.05.11.03.12.06.02v.12l.1.03.04-.17v-.13l.08-.13.09.13.04.17v3.57l.39.11v-.1l.09.11v.34l.35.07v-.56l.1-.31s.08-.22.25-.2.25.11.25.11l.12,1,.1.07-.05,5.35-5.55-.9Z"/>
    <polygon class="cls-13" points="78.77 20.67 78.77 16.17 81.05 15.05 83.11 15.97 83.47 27.4 82.06 27.52 79.55 26.12 78.77 20.67"/>
    <path class="cls-13" d="m83.22,19.38l.25.13.52-.22v-.23l.47.09-.2-2.54,3.1-1.26,1.75.94.47,7.89.45-.18-.47-5.64.95-.97,1.06.38.74-.34.67.88.11.81.59-.09,1.04.43.31,2.58h.08v.22l.17.08v.1l.06.08v.25l.06.05.08.93.93-.17-.1-.65,1.1-.18-1.06-7.39s-.05-.17.12-.18c0,0-.05-.08.04-.16s.31-.13.31-.13l-1.69-12.89,1.96-1.03,2.83.16.04,28.74h-16.5v-2.46l-.25-8.03Z"/>
    <path class="cls-2" d="m68.16,33.5s17.73-2.8,18.4-3.48v-.04h-.09v-.3s.04-.04.04-.04c0,0,.99-.02,1.03-.05s1.58,0,1.64-.05,1.5.02,1.57-.05c0,0,1.27-.01,1.33-.03s.2.26.2.3-.09.13-.09.16,2,.06,2.1-.04,1.29-.07,1.29-.07c0,0,1.12-.07,1.31-.03s2.92.03,3.08.08l.07,4.41v9.19h-31.88v-9.97Z"/>
    <polygon class="cls-3" points="68.04 24.75 74 25.22 79.55 26.12 82.06 27.52 83.47 27.52 83.47 29.05 81.83 29.05 76.15 28.89 68.04 28.95 68.04 24.75"/>
    <path class="cls-9" d="m68.66,26.7l-.08,1.22c-.01.17.13.32.3.32h2.79c.16,0,.29-.12.3-.28l.1-1.22c.01-.17-.12-.32-.3-.32h-2.81c-.16,0-.29.12-.3.28Z"/>
    <path class="cls-9" d="m72.85,26.88l-.06,1.01c-.01.19.14.35.33.35l2.06.06c.18,0,.33-.13.34-.31l.07-1c.01-.19-.13-.35-.32-.36l-2.08-.07c-.18,0-.34.13-.35.32Z"/>
    <path class="cls-9" d="m76.79,26.97l-.09,1.18c0,.09.07.17.16.17h.81c.09,0,.16-.07.16-.16v-1.11c0-.08-.06-.15-.15-.16l-.71-.06c-.09,0-.17.06-.17.15Z"/>
    <path class="cls-9" d="m78.66,27.12v1.2s.04.08.08.08h.51s.08-.04.08-.08v-1.14s-.03-.08-.07-.08l-.51-.06c-.05,0-.09.03-.09.08Z"/>
    <rect class="cls-9" x="80.34" y="27.21" width=".5" height="1.18" rx=".12" ry=".12"/>
    <path class="cls-4" d="m68.04,29.05l9.5-.02,5.81.11v.81l3.01.11s-16.26,3.46-18.32,3.52v-4.55Z"/>
    <polygon class="cls-6" points="68.04 30.93 83.47 29.65 83.47 29.86 68.04 31.08 68.04 30.93"/>
    <polygon class="cls-6" points="68.04 31.87 83.47 30.07 83.47 30.21 68.04 32.2 68.04 31.87"/>
    <polygon class="cls-6" points="68.73 31.03 68.65 31.8 68.76 31.8 68.82 31.02 68.73 31.03"/>
    <polygon class="cls-6" points="69.92 30.93 69.88 31.66 69.96 31.66 70.02 30.92 69.92 30.93"/>
    <polygon class="cls-6" points="71.08 30.84 71.04 31.52 71.14 31.54 71.16 30.83 71.08 30.84"/>
    <polygon class="cls-6" points="72.17 30.75 72.11 31.37 72.19 31.37 72.22 30.75 72.17 30.75"/>
    <polygon class="cls-6" points="73.16 30.68 73.09 31.32 73.2 31.32 73.2 30.64 73.16 30.68"/>
    <polygon class="cls-6" points="73.85 30.64 73.9 31.23 74 31.23 73.96 30.61 73.85 30.64"/>
    <polygon class="cls-6" points="74.91 30.54 74.97 31.1 75.05 31.06 74.95 30.49 74.91 30.54"/>
    <polygon class="cls-6" points="75.81 30.44 75.85 30.98 75.91 30.98 75.86 30.42 75.81 30.44"/>
    <polygon class="cls-6" points="76.35 30.42 76.4 30.9 76.51 30.9 76.42 30.42 76.35 30.42"/>
    <polygon class="cls-6" points="77.11 30.36 77.17 30.81 77.27 30.79 77.2 30.32 77.11 30.36"/>
    <polygon class="cls-6" points="78.01 30.26 78.01 30.75 78.11 30.75 78.05 30.26 78.01 30.26"/>
    <polygon class="cls-6" points="78.69 30.22 78.71 30.66 78.77 30.66 78.73 30.18 78.69 30.22"/>
    <polygon class="cls-6" points="79.32 30.14 79.36 30.56 79.41 30.56 79.37 30.14 79.32 30.14"/>
    <polygon class="cls-6" points="79.87 30.11 79.91 30.51 79.97 30.51 79.92 30.11 79.87 30.11"/>
    <polygon class="cls-6" points="80.38 30.11 80.45 30.46 80.49 30.46 80.44 30.07 80.38 30.11"/>
    <polygon class="cls-6" points="80.91 30.06 80.96 30.36 81.01 30.36 80.96 30.01 80.91 30.06"/>
    <polygon class="cls-6" points="81.51 30.01 81.56 30.35 81.61 30.35 81.56 29.99 81.51 30.01"/>
    <polygon class="cls-6" points="81.97 29.98 82.01 30.26 82.07 30.26 82.04 29.95 81.97 29.98"/>
    <polygon class="cls-6" points="82.46 29.94 82.5 30.19 82.59 30.17 82.57 29.91 82.46 29.94"/>
    <polygon class="cls-6" points="82.87 29.91 82.92 30.17 83 30.14 82.96 29.86 82.87 29.91"/>
    <polygon class="cls-6" points="83.37 29.86 83.39 30.11 83.47 30.07 83.47 29.86 83.37 29.86"/>
  </g>
  <g>
    <path class="cls-5" d="m9.36,23.1s1.21-7.68,6.97-13.72c3.49-3.66,8.65-6.71,16.23-7.08,0,0,18.39.96,21.52,20.8H9.36Z"/>
    <path class="cls-7" d="m13.77,15.61h3.44v-5.06s-3.13,3.26-3.44,5.06Z"/>
    <polygon class="cls-7" points="18.78 9.6 18.65 15.81 24.3 15.81 24.43 9.7 18.78 9.6"/>
    <polygon class="cls-7" points="25.97 9.6 25.82 15.81 31.57 15.81 31.57 9.7 25.97 9.6"/>
    <path class="cls-7" d="m19.6,7.98l4.83.08v-2.9s-3.65,1.54-4.83,2.82Z"/>
    <path class="cls-7" d="m25.94,4.62v3.72l5.62-.08.1-4.57s-3.31-.39-5.73.92Z"/>
    <path class="cls-7" d="m33.31,3.64l-.18,4.57,5.65.13.1-3.67s-3.92-1.67-5.57-1.03Z"/>
    <polygon class="cls-7" points="33.29 9.6 33.13 15.81 38.89 15.81 38.89 9.7 33.29 9.6"/>
    <polygon class="cls-7" points="25.97 17.35 25.82 23.57 31.57 23.57 31.57 17.45 25.97 17.35"/>
    <polygon class="cls-7" points="33.19 17.53 33.03 23.75 38.78 23.75 38.78 17.64 33.19 17.53"/>
    <polygon class="cls-7" points="18.66 17.35 18.53 23.57 24.18 23.57 24.3 17.46 18.66 17.35"/>
    <path class="cls-7" d="m44.94,8.16l-4.83.08v-2.9s3.65,1.54,4.83,2.82Z"/>
    <path class="cls-7" d="m51.24,16.09h-3.44v-5.06s3.13,3.26,3.44,5.06Z"/>
    <polygon class="cls-7" points="40.24 9.88 40.11 16.09 45.76 16.09 45.89 9.98 40.24 9.88"/>
    <polygon class="cls-7" points="40.24 17.73 40.11 23.95 45.76 23.95 45.89 17.83 40.24 17.73"/>
    <path class="cls-7" d="m12.13,22.47s.69-5.19,1.1-5.32,3.98.07,3.98.07v5.25h-5.08Z"/>
    <path class="cls-7" d="m52.72,22.9s-.69-5.19-1.1-5.32-3.98.07-3.98.07v5.25s5.08,0,5.08,0Z"/>
    <polygon class="cls-8" points="9.36 24.82 9.36 38.57 6.97 38.57 6.06 40 6.02 24.32 9.32 24.41 9.36 24.82"/>
    <polygon class="cls-8" points="56.54 24.96 56.54 38.71 58.9 38.71 59.8 40.14 59.84 24.46 56.58 24.55 56.54 24.96"/>
    <rect class="cls-10" x="9.32" y="24.56" width="47.22" height="14.45"/>
    <rect class="cls-11" x="11.89" y="26.45" width="11.18" height="9.56"/>
    <rect class="cls-11" x="27.07" y="26.7" width="11.24" height="9.8"/>
    <rect class="cls-11" x="41.85" y="26.97" width="11.63" height="9.53"/>
    <circle class="cls-12" cx="17.64" cy="31.21" r=".92"/>
    <circle class="cls-12" cx="17.64" cy="31.23" r="1.94"/>
    <rect class="cls-12" x="13.04" y="27.32" width="8.89" height="7.6"/>
    <rect class="cls-12" x="28.24" y="27.68" width="8.89" height="7.6"/>
    <rect class="cls-12" x="43.22" y="28.1" width="8.89" height="7.6"/>
    <circle class="cls-12" cx="32.56" cy="31.38" r=".92"/>
    <circle class="cls-12" cx="32.56" cy="31.38" r="1.67"/>
    <polygon class="cls-12" points="28.41 31.21 32.56 27.9 37.01 31.6 32.56 34.92 28.41 31.21"/>
    <circle class="cls-12" cx="47.67" cy="31.87" r=".92"/>
    <circle class="cls-12" cx="47.67" cy="31.9" r="1.94"/>
    <polygon class="cls-5" points="4.37 24.01 4.87 23.13 6.06 22.88 7.97 22.88 8.58 22.57 11.33 22.73 11.07 22.95 54.08 23.1 54.49 23.5 57.53 23.58 58.12 23.63 58.34 23.88 60.4 23.89 61.25 24.32 61.69 25.13 59.78 25.13 59.99 25.58 56.11 25.58 55.74 25.03 9.96 24.08 9.32 24.41 6.02 24.32 6.3 24.08 4.37 24.01"/>
  </g>
</svg>