<?xml version="1.0" encoding="UTF-8"?>
<svg id="Layer_1" data-name="Layer 1" xmlns="http://www.w3.org/2000/svg" viewBox="0 0 76.03 110.87">
  <defs>
    <style>
      .cls-1 {
        fill: #d1d3d4;
        opacity: .58;
        stroke: #a7a9ac;
        stroke-miterlimit: 10;
        stroke-width: .25px;
      }
    </style>
  </defs>
  <path class="cls-1" d="m20.39,15.79l28.28-1.85s3.7,11.83,4.07,10.72,2.96,33.45,2.96,33.45c0,0-1.54.24-1.38,1.22s.93.89.93.89l-.56,1.73,1.24,1.47v4.78l-.95.92.03,1.41-1.37.85-.13,2.22h-2l.88,1.73-.07,1.18-1.05.72-.11,4.2-.46.57-.07,1.31.5.39-.14,1.91s-3.36.74-4.14,1.42v1.77l.88.78-.04,1.52-.88.5h-1.27l-.35-.92-3.5-1.2-2.69,2.6h-2.12l-1.35-2.91.11-1.52.6-.92-.6-1.13-.04-2.44-9.98-6.69.07-3.19,1.2-2.8.04-1.7,1.1-.96-.28-1.31s-3.15-1.81-4.25-.71l-.81,1.38-.74-.07-.88-2.27.04-3.19-7.89-6.69v-3.54h-1.03v-5.66h.92l-.18-2.8,2.65-1.45.07-2.41,1.49-1.49.04-2.37-1.66-1.7v-1.95l.53-.71,2.8-.04-.07-.85,1.7.04.07-.99,2.51-.11.18-2.76,1.64-1.74-.08-4.29-4.37-4.36Z"/>
</svg>