<?xml version="1.0" encoding="UTF-8"?>
<svg id="Layer_1" data-name="Layer 1" xmlns="http://www.w3.org/2000/svg" viewBox="0 0 112.71 140.81">
  <defs>
    <style>
      .cls-1 {
        stroke: #231f20;
        stroke-miterlimit: 10;
        stroke-width: .6px;
      }

      .cls-1, .cls-2 {
        fill: #aba7d3;
      }
    </style>
  </defs>
  <g>
    <path class="cls-1" d="m84.16,53.55s6.21,1.01,4.31,5.01c0,0-.7,1.58-8.62,2.6,0,0-6.78,4.88-1.9,7.1,0,0,10.08,1.52,9.7,3.42s-4.06,7.35-2.73,8.43,3.11.82,3.11.82l-1.39.76.25.76s-1.96,0-2.22.51-1.84-.76-2.79-.44-2.16,1.58-2.16,1.58c0,0,1.76.63,2.78.44s1.53-.76,1.53-.76l-.44,1.14s.7.32,1.33,0c0,0,2.63,1.33,3.91.76s2.11-.32,2.93-1.01,1.39-.06,1.39-.06c0,0-1.46-1.96-2.22-1.96h-.76v-1.9s1.71-.06,2.09.57,6.09,4.94,10.08,2.41c0,0-2.35-4.25-7.99-3.93l-2.16.38h-.76l-.89-.32s1.39-.89-.25-5.01c0,0-.82-2.47,1.96-3.8s4.12-.95,4.12-.95l4.75-.4.89-2.7s-.7-2.16-.13-3.61-.82-5.13-.19-6.78c0,0-2.47.57-2.79-1.77,0,0-1.14-.06-2.16-.82l-1.9.57s-1.46-1.14-.89-4.44c0,0-2.22,1.9-4.06,1.46,0,0-3.99,3.3-5.77,1.96Z"/>
    <g>
      <path class="cls-2" d="m86.62,53.59c1-.27,2.29-1.22,2.89-2.07.38.36.96.43,1.47.31s.95-.42,1.39-.71c.43-.29.87-.58,1.3-.86-.03.9,0,1.83.39,2.64s1.26,1.44,2.15,1.31"/>
      <path class="cls-2" d="m87.28,56c1.79-.52,3.3-1.74,4.39-3.22l-3.93.51c1.19,1.02,2.78,1.41,4.27.82,1.07-.42,1.97-1.07,2.92-1.7l-3.76-2.16c-.04,1.41.09,3,.92,4.2.91,1.33,2.44,2.42,4.13,2.24.68-.07,1.27-.23,1.77-.73.43-.43.76-1.15.73-1.77-.06-1.24-1.11-2.64-2.5-2.5-.09.01-.19.02-.28.02.43.08.52.09.26.03-.47-.13.48.25.09.03-.22-.14-.16-.1.16.14-.07-.06-.14-.13-.2-.2.23.32.28.38.13.16-.04-.06-.08-.12-.11-.19-.08-.16-.05-.08.09.23-.04-.1-.07-.21-.1-.32-.03-.11-.05-.22-.07-.33.04.36.05.44.03.25-.03-.42-.04-.84-.03-1.27.06-1.83-2.19-3.2-3.76-2.16-.59.39-1.16.8-1.77,1.16-.07.04-.14.08-.2.12-.19.09-.19.1.02.01.2-.08.21-.08,0-.01-.07.02-.15.04-.22.06-.19.04-.09.03.31-.05-.21,0-.19,0,.05.02.24.04.25.04.05-.01.24.06.45.18.62.36-.62-.53-1.28-.8-2.1-.69s-1.35.54-1.83,1.19c.51-.69-.04.02-.22.19-.09.08-.18.16-.27.24-.43.36.24-.16.04-.03-.23.14-.45.3-.68.43l-.13.06c-.24.11-.16.08.23-.09-.12.02-.24.09-.36.12-1.25.37-2.17,1.78-1.75,3.08s1.73,2.14,3.08,1.75h0Z"/>
    </g>
    <path class="cls-2" d="m94.52,56.94c3.22,0,3.22-5,0-5s-3.22,5,0,5h0Z"/>
    <path class="cls-2" d="m95.01,57.26c3.22,0,3.22-5,0-5s-3.22,5,0,5h0Z"/>
    <path class="cls-2" d="m93.65,53.71c3.22,0,3.22-5,0-5s-3.22,5,0,5h0Z"/>
    <g>
      <path class="cls-2" d="m96.82,54.11c.45.53,1.14.86,1.84.88.04,0,.08,0,.11.03.02.02.02.05.03.08.09.63.49,1.21,1.05,1.52s1.26.34,1.84.09"/>
      <path class="cls-2" d="m95.05,55.88c.38.44.88.81,1.4,1.06.34.16.72.33,1.1.41s.78.11,1.17.15l-1.26-.34.05.03-.9-.9.02.04-.25-.6c.24,1.25,1.04,2.33,2.11,3,.66.41,1.39.58,2.15.64.29.02.56-.01.85-.05.3-.04.58-.08.87-.2.33-.08.61-.23.85-.45.27-.18.49-.41.64-.7.31-.54.45-1.33.25-1.93s-.57-1.19-1.15-1.49-1.32-.5-1.93-.25c-.17.07-.35.12-.53.15l.66-.09c-.19.02-.37.02-.56,0l.66.09c-.19-.03-.36-.07-.54-.14l.6.25c-.17-.07-.32-.16-.46-.26l.51.39c-.14-.11-.26-.23-.37-.36l.39.51c-.12-.16-.22-.32-.3-.5l.25.6c-.16-.39-.17-.77-.41-1.15-.36-.56-.9-1.01-1.55-1.19-.3-.08-.64-.08-.95-.11l.66.09c-.22-.03-.44-.09-.65-.17l.6.25c-.21-.09-.4-.2-.58-.33l.51.39c-.14-.11-.26-.23-.38-.36-.41-.46-1.17-.73-1.77-.73s-1.35.27-1.77.73-.76,1.1-.73,1.77.28,1.25.73,1.77h0Z"/>
    </g>
    <g>
      <path class="cls-2" d="m101.8,57.01c-.36,1.88.56,3.79.47,5.71-.04.74-.22,1.47-.3,2.21s-.04,1.53.34,2.17c-.42.76-.84,1.53-1.25,2.29-.11.19-.22.4-.4.51-.22.14-.49.14-.75.13-1.78-.04-3.56-.19-5.32-.45"/>
      <path class="cls-2" d="m99.39,56.34c-.2,1.25-.16,2.35.04,3.6.07.46.16.91.24,1.37,0,.05.1.8.05.25.02.23.04.46.05.69s0,.47-.02.71c.03-.44-.03.22-.05.32-.1.61-.21,1.23-.26,1.85-.08,1.12.17,2.24.7,3.22v-2.52c-.32.59-.65,1.18-.97,1.77-.09.17-.21.34-.28.52-.12.28-.01.01.11-.1l1.09-.49h-.2c-.19-.06-.44-.01-.64-.02-.72-.03-1.44-.07-2.16-.14-.34-.03-.68-.06-1.01-.1-.21-.02-.42-.05-.63-.07-.46-.05.58.08-.22-.03-.7-.1-1.29-.12-1.93.25-.52.3-1.01.9-1.15,1.49-.27,1.18.36,2.88,1.75,3.08,2.02.28,4.13.59,6.18.54,1.37-.04,2.44-.71,3.12-1.89.48-.84,1-1.7,1.38-2.59.22-.53.25-1.07.13-1.63.11.47-.5-1.43-.24-.55-.17-.58-.04.48-.04-.13,0-.17,0-.34,0-.51,0-.1.01-.2.02-.3-.03.21-.03.23,0,.05.04-.2.07-.41.1-.61.1-.62.2-1.25.21-1.88.01-.99-.19-1.99-.36-2.96-.04-.23-.08-.46-.12-.69-.13-.73.02.49-.04-.25-.02-.23-.03-.45-.03-.68,0-.12.08-.77,0-.24.21-1.29-.33-2.75-1.75-3.08-1.2-.27-2.85.37-3.08,1.75h0Z"/>
    </g>
    <path d="m88.47,49.44c-.21.92.16,1.79.61,2.58s.95,1.42,1.76,1.77c.25.11.54.07.68-.18.12-.21.07-.58-.18-.68-.65-.28-1.01-.75-1.37-1.35-.32-.55-.7-1.21-.55-1.87.06-.26-.08-.54-.35-.62-.25-.07-.55.08-.62.35h0Z"/>
    <path d="m93.45,47.99c-.04,2.01-.03,4.15,1.14,5.88.21.31.85.35.91-.12.1-.74.34-1.43.73-2.07.34-.55-.53-1.05-.86-.5-.43.7-.72,1.49-.84,2.31l.91-.12c-1.07-1.58-1.04-3.54-1.01-5.38.01-.64-.99-.64-1,0h0Z"/>
    <path d="m100.53,50.19c-1.1,2.78-2.08,5.68-1.95,8.71.02.53.64.64.93.25.96-1.25,2.1-2.37,3.36-3.31.51-.38.01-1.25-.5-.86-1.41,1.05-2.65,2.27-3.72,3.67l.93.25c-.13-2.94.84-5.75,1.91-8.44.24-.6-.73-.86-.96-.27h0Z"/>
    <path d="m100.58,63.09c1.13-.67,2.42-1,3.74-.98.64.01.64-.99,0-1-1.49-.02-2.96.37-4.24,1.12-.55.33-.05,1.19.5.86h0Z"/>
    <path d="m99.44,65.38c1.17.46,2.31,1,3.41,1.62.24.13.55.06.68-.18s.06-.55-.18-.68c-1.18-.66-2.4-1.23-3.65-1.72-.25-.1-.55.11-.62.35-.08.28.1.52.35.62h0Z"/>
    <path d="m99.6,67.35c0,.97.46,1.89,1.02,2.66s1.22,1.42,2,1.95c.22.15.55.04.68-.18.14-.25.04-.53-.18-.68-.63-.43-1.19-.97-1.64-1.59s-.88-1.36-.89-2.15c0-.64-1-.64-1,0h0Z"/>
    <path d="m95.59,69.82c.72.21,1.44.43,2.15.65.36.11.72.22,1.08.33.15.05.32.08.46.15-.06-.03.08.05.08.05-.03-.03-.02-.02.02.02-.01-.01-.03-.02-.03-.04.18.62,1.15.35.96-.27-.12-.4-.44-.61-.82-.74s-.79-.24-1.18-.36c-.82-.25-1.64-.49-2.46-.74-.62-.18-.88.78-.27.96h0Z"/>
    <path d="m82.49,53.63c1.82.26,3.55.89,5.11,1.87.55.34,1.05-.52.5-.86-1.62-1.02-3.45-1.7-5.35-1.97-.27-.04-.54.07-.62.35-.06.24.08.58.35.62h0Z"/>
    <path d="m87.02,70.19c-1.2-.64-2.64-.99-3.95-1.35s-2.7-.38-3.86-1.02c-.23-.13-.46-.26-.71-.35s-.66-.12-.86-.32c-.49-.49-.35-1.68-.09-2.23.25-.52.72-.94,1.04-1.43s.6-1.06,1.08-1.45c.53-.43,1.26-.48,1.9-.62.69-.14,1.37-.31,2.05-.49,1.24-.33,2.56-.67,3.7-1.27.85-.44,1.62-1.14,1.81-2.11.21-1.05-.28-2.04-.93-2.82-.41-.49-1.12.22-.71.71,2.56,3.05-2.71,4.18-4.72,4.69-1.14.29-2.55.32-3.53,1s-1.51,1.89-2.21,2.79c-.66.85-.83,1.98-.57,3.02.1.41.29.8.62,1.06.41.33.97.36,1.43.59.59.3,1.07.55,1.73.68s1.33.23,1.98.4c1.41.35,3,.72,4.28,1.4.57.3,1.07-.56.5-.86h0Z"/>
    <path d="m77.38,66.77c-.02-.34-.04-.69,0-1.03l-.03.2c.03-.23.09-.45.18-.66l-.08.18c.08-.19.19-.38.3-.55.21-.33.08-.84-.27-1.03-.37-.2-.8-.08-1.03.27s-.44.77-.53,1.2c-.1.47-.09.94-.06,1.42.01.2.08.39.22.53.13.13.34.23.53.22.39-.02.78-.33.75-.75h0Z"/>
    <path d="m84.09,63.96c.16-.11.32-.22.5-.31.07-.04.15-.08.23-.12.04-.02.09-.04.13-.06.03-.01.17-.09.05-.02.15-.08.35-.13.52-.18.19-.05.38-.1.57-.13.26-.05.43-.37.35-.62-.09-.28-.34-.4-.62-.35-.8.14-1.57.46-2.23.93-.21.15-.33.44-.18.68.14.21.45.34.68.18h0Z"/>
    <path d="m87.35,63s.1-.02.14-.03c.02,0,.05,0,.07-.01.07-.01,0,0-.02,0,.04,0,.1-.01.15-.01.05,0,.1,0,.15,0,.1,0,.2,0,.3.01.07,0,0,.01-.02,0,.02,0,.05,0,.07.01.05,0,.11.02.16.03.1.02.19.05.28.08.02,0,.05.02.07.03.07.02-.08-.04-.02,0,.04.02.09.04.13.06.09.04.17.09.25.15.02.01.04.03.06.04.01,0,.08.06.02.02s.01.01.02.02c.02.02.05.04.07.06.2.17.52.21.71,0,.17-.19.21-.52,0-.71-.78-.69-1.86-.96-2.87-.7-.25.06-.43.36-.35.62s.34.42.62.35h0Z"/>
    <path d="m83.5,69.87c2.4.37,4.83-.3,6.68-1.87.49-.42-.22-1.12-.71-.71-1.55,1.32-3.69,1.93-5.7,1.62-.27-.04-.54.07-.62.35-.07.24.08.57.35.62h0Z"/>
    <path d="m87.96,76.17c-.16,1.38.14,2.79.81,4,.31.56,1.18.06.86-.5-.6-1.07-.82-2.28-.68-3.49.03-.27-.25-.5-.5-.5-.3,0-.47.23-.5.5h0Z"/>
    <path d="m89.83,80.25c.5-.68.76-1.53.76-2.38,0-.26-.23-.51-.5-.5s-.5.22-.5.5c0,.1,0,.19-.01.29,0,.04,0,.11-.01.14.01-.07.01-.08,0-.03v.04c-.04.18-.08.37-.14.54-.03.08-.05.18-.09.25.07-.12,0,.02-.02.05-.02.04-.04.08-.06.11-.09.17-.18.32-.29.47-.15.21-.04.57.18.68.26.14.52.05.68-.18h0Z"/>
    <path d="m89.89,80.36c.44-.02.86-.21,1.17-.53s.5-.74.52-1.18c.01-.26-.24-.51-.5-.5-.28.01-.49.22-.5.5,0,.04,0,.08-.01.12l.02-.13c-.01.1-.04.2-.08.29l.05-.12c-.04.1-.1.2-.17.29l.08-.1c-.07.09-.16.18-.25.25l.1-.08c-.09.07-.19.12-.29.17l.12-.05c-.09.04-.19.07-.29.08l.13-.02s-.07,0-.1,0c-.13,0-.26.05-.35.15-.09.09-.15.23-.15.35s.05.26.15.35.22.15.35.15h0Z"/>
    <path d="m88.29,81.1c-.32.61-.48,1.32-.4,2.01.01.14.05.25.15.35.09.09.23.15.35.15.25-.01.53-.22.5-.5-.03-.25-.02-.49,0-.74l-.02.13c.02-.17.06-.34.11-.51.02-.08.05-.16.08-.23.02-.06,0,.02-.01.03.01-.02.02-.05.03-.07.02-.04.04-.08.06-.12.12-.23.07-.55-.18-.68-.23-.12-.55-.07-.68.18h0Z"/>
    <path d="m84.23,83.73c1.07,0,2.13.36,3.2.26.52-.05,1.01-.21,1.51-.36.53-.16,1.07-.32,1.6-.48.31-.09.18-.57-.13-.48-.5.15-.99.3-1.49.44-.52.16-1.06.35-1.61.39-1.04.07-2.05-.26-3.08-.27-.32,0-.32.5,0,.5h0Z"/>
    <path d="m85.15,85.03c1.18.06,2.32.03,3.47-.24.54-.12.99-.13,1.53-.01.41.09.84.21,1.27.17.32-.03.32-.53,0-.5-.43.04-.85-.09-1.26-.18-.49-.11-.94-.11-1.43-.01-.59.12-1.17.25-1.78.28s-1.2.02-1.79-.01c-.32-.02-.32.48,0,.5h0Z"/>
  </g>
  <g>
    <path class="cls-1" d="m78.19,8.97s6.21,1.01,4.31,5.01c0,0-.7,1.58-8.62,2.6,0,0-6.78,4.88-1.9,7.1,0,0,10.08,1.52,9.7,3.42s-4.06,7.35-2.73,8.43,3.11.82,3.11.82l-1.39.76.25.76s-1.96,0-2.22.51-1.84-.76-2.79-.44-2.16,1.58-2.16,1.58c0,0,1.76.63,2.78.44s1.53-.76,1.53-.76l-.44,1.14s.7.32,1.33,0c0,0,2.63,1.33,3.91.76s2.11-.32,2.93-1.01,1.39-.06,1.39-.06c0,0-1.46-1.96-2.22-1.96h-.76v-1.9s1.71-.06,2.09.57,6.09,4.94,10.08,2.41c0,0-2.35-4.25-7.99-3.93l-2.16.38h-.76l-.89-.32s1.39-.89-.25-5.01c0,0-.82-2.47,1.96-3.8s4.12-.95,4.12-.95l4.75-.4.89-2.7s-.7-2.16-.13-3.61-.82-5.13-.19-6.78c0,0-2.47.57-2.79-1.77,0,0-1.14-.06-2.16-.82l-1.9.57s-1.46-1.14-.89-4.44c0,0-2.22,1.9-4.06,1.46,0,0-3.99,3.3-5.77,1.96Z"/>
    <g>
      <path class="cls-2" d="m80.65,9.01c1-.27,2.29-1.22,2.89-2.07.38.36.96.43,1.47.31s.95-.42,1.39-.71c.43-.29.87-.58,1.3-.86-.03.9,0,1.83.39,2.64s1.26,1.44,2.15,1.31"/>
      <path class="cls-2" d="m81.31,11.42c1.79-.52,3.3-1.74,4.39-3.22l-3.93.51c1.19,1.02,2.78,1.41,4.27.82,1.07-.42,1.97-1.07,2.92-1.7l-3.76-2.16c-.04,1.41.09,3,.92,4.2.91,1.33,2.44,2.42,4.13,2.24.68-.07,1.27-.23,1.77-.73.43-.43.76-1.15.73-1.77-.06-1.24-1.11-2.64-2.5-2.5-.09.01-.19.02-.28.02.43.08.52.09.26.03-.47-.13.48.25.09.03-.22-.14-.16-.1.16.14-.07-.06-.14-.13-.2-.2.23.32.28.38.13.16-.04-.06-.08-.12-.11-.19-.08-.16-.05-.08.09.23-.04-.1-.07-.21-.1-.32-.03-.11-.05-.22-.07-.33.04.36.05.44.03.25-.03-.42-.04-.84-.03-1.27.06-1.83-2.19-3.2-3.76-2.16-.59.39-1.16.8-1.77,1.16-.07.04-.14.08-.2.12-.19.09-.19.1.02.01.2-.08.21-.08,0-.01-.07.02-.15.04-.22.06-.19.04-.09.03.31-.05-.21,0-.19,0,.05.02.24.04.25.04.05-.01.24.06.45.18.62.36-.62-.53-1.28-.8-2.1-.69s-1.35.54-1.83,1.19c.51-.69-.04.02-.22.19-.09.08-.18.16-.27.24-.43.36.24-.16.04-.03-.23.14-.45.3-.68.43l-.13.06c-.24.11-.16.08.23-.09-.12.02-.24.09-.36.12-1.25.37-2.17,1.78-1.75,3.08s1.73,2.14,3.08,1.75h0Z"/>
    </g>
    <path class="cls-2" d="m88.55,12.36c3.22,0,3.22-5,0-5s-3.22,5,0,5h0Z"/>
    <path class="cls-2" d="m89.04,12.69c3.22,0,3.22-5,0-5s-3.22,5,0,5h0Z"/>
    <path class="cls-2" d="m87.68,9.14c3.22,0,3.22-5,0-5s-3.22,5,0,5h0Z"/>
    <g>
      <path class="cls-2" d="m90.85,9.54c.45.53,1.14.86,1.84.88.04,0,.08,0,.11.03.02.02.02.05.03.08.09.63.49,1.21,1.05,1.52s1.26.34,1.84.09"/>
      <path class="cls-2" d="m89.08,11.3c.38.44.88.81,1.4,1.06.34.16.72.33,1.1.41s.78.11,1.17.15l-1.26-.34.05.03-.9-.9.02.04-.25-.6c.24,1.25,1.04,2.33,2.11,3,.66.41,1.39.58,2.15.64.29.02.56-.01.85-.05.3-.04.58-.08.87-.2.33-.08.61-.23.85-.45.27-.18.49-.41.64-.7.31-.54.45-1.33.25-1.93s-.57-1.19-1.15-1.49-1.32-.5-1.93-.25c-.17.07-.35.12-.53.15l.66-.09c-.19.02-.37.02-.56,0l.66.09c-.19-.03-.36-.07-.54-.14l.6.25c-.17-.07-.32-.16-.46-.26l.51.39c-.14-.11-.26-.23-.37-.36l.39.51c-.12-.16-.22-.32-.3-.5l.25.6c-.16-.39-.17-.77-.41-1.15-.36-.56-.9-1.01-1.55-1.19-.3-.08-.64-.08-.95-.11l.66.09c-.22-.03-.44-.09-.65-.17l.6.25c-.21-.09-.4-.2-.58-.33l.51.39c-.14-.11-.26-.23-.38-.36-.41-.46-1.17-.73-1.77-.73s-1.35.27-1.77.73-.76,1.1-.73,1.77.28,1.25.73,1.77h0Z"/>
    </g>
    <g>
      <path class="cls-2" d="m95.83,12.43c-.36,1.88.56,3.79.47,5.71-.04.74-.22,1.47-.3,2.21s-.04,1.53.34,2.17c-.42.76-.84,1.53-1.25,2.29-.11.19-.22.4-.4.51-.22.14-.49.14-.75.13-1.78-.04-3.56-.19-5.32-.45"/>
      <path class="cls-2" d="m93.42,11.77c-.2,1.25-.16,2.35.04,3.6.07.46.16.91.24,1.37,0,.05.1.8.05.25.02.23.04.46.05.69s0,.47-.02.71c.03-.44-.03.22-.05.32-.1.61-.21,1.23-.26,1.85-.08,1.12.17,2.24.7,3.22v-2.52c-.32.59-.65,1.18-.97,1.77-.09.17-.21.34-.28.52-.12.28-.01.01.11-.1l1.09-.49h-.2c-.19-.06-.44-.01-.64-.02-.72-.03-1.44-.07-2.16-.14-.34-.03-.68-.06-1.01-.1-.21-.02-.42-.05-.63-.07-.46-.05.58.08-.22-.03-.7-.1-1.29-.12-1.93.25-.52.3-1.01.9-1.15,1.49-.27,1.18.36,2.88,1.75,3.08,2.02.28,4.13.59,6.18.54,1.37-.04,2.44-.71,3.12-1.89.48-.84,1-1.7,1.38-2.59.22-.53.25-1.07.13-1.63.11.47-.5-1.43-.24-.55-.17-.58-.04.48-.04-.13,0-.17,0-.34,0-.51,0-.1.01-.2.02-.3-.03.21-.03.23,0,.05.04-.2.07-.41.1-.61.1-.62.2-1.25.21-1.88.01-.99-.19-1.99-.36-2.96-.04-.23-.08-.46-.12-.69-.13-.73.02.49-.04-.25-.02-.23-.03-.45-.03-.68,0-.12.08-.77,0-.24.21-1.29-.33-2.75-1.75-3.08-1.2-.27-2.85.37-3.08,1.75h0Z"/>
    </g>
    <path d="m82.5,4.86c-.21.92.16,1.79.61,2.58s.95,1.42,1.76,1.77c.25.11.54.07.68-.18.12-.21.07-.58-.18-.68-.65-.28-1.01-.75-1.37-1.35-.32-.55-.7-1.21-.55-1.87.06-.26-.08-.54-.35-.62-.25-.07-.55.08-.62.35h0Z"/>
    <path d="m87.48,3.41c-.04,2.01-.03,4.15,1.14,5.88.21.31.85.35.91-.12.1-.74.34-1.43.73-2.07.34-.55-.53-1.05-.86-.5-.43.7-.72,1.49-.84,2.31l.91-.12c-1.07-1.58-1.04-3.54-1.01-5.38.01-.64-.99-.64-1,0h0Z"/>
    <path d="m94.56,5.62c-1.1,2.78-2.08,5.68-1.95,8.71.02.53.64.64.93.25.96-1.25,2.1-2.37,3.36-3.31.51-.38.01-1.25-.5-.86-1.41,1.05-2.65,2.27-3.72,3.67l.93.25c-.13-2.94.84-5.75,1.91-8.44.24-.6-.73-.86-.96-.27h0Z"/>
    <path d="m94.61,18.51c1.13-.67,2.42-1,3.74-.98.64.01.64-.99,0-1-1.49-.02-2.96.37-4.24,1.12-.55.33-.05,1.19.5.86h0Z"/>
    <path d="m93.47,20.8c1.17.46,2.31,1,3.41,1.62.24.13.55.06.68-.18s.06-.55-.18-.68c-1.18-.66-2.4-1.23-3.65-1.72-.25-.1-.55.11-.62.35-.08.28.1.52.35.62h0Z"/>
    <path d="m93.63,22.77c0,.97.46,1.89,1.02,2.66s1.22,1.42,2,1.95c.22.15.55.04.68-.18.14-.25.04-.53-.18-.68-.63-.43-1.19-.97-1.64-1.59s-.88-1.36-.89-2.15c0-.64-1-.64-1,0h0Z"/>
    <path d="m89.62,25.24c.72.21,1.44.43,2.15.65.36.11.72.22,1.08.33.15.05.32.08.46.15-.06-.03.08.05.08.05-.03-.03-.02-.02.02.02-.01-.01-.03-.02-.03-.04.18.62,1.15.35.96-.27-.12-.4-.44-.61-.82-.74s-.79-.24-1.18-.36c-.82-.25-1.64-.49-2.46-.74-.62-.18-.88.78-.27.96h0Z"/>
    <path d="m76.52,9.06c1.82.26,3.55.89,5.11,1.87.55.34,1.05-.52.5-.86-1.62-1.02-3.45-1.7-5.35-1.97-.27-.04-.54.07-.62.35-.06.24.08.58.35.62h0Z"/>
    <path d="m81.05,25.61c-1.2-.64-2.64-.99-3.95-1.35s-2.7-.38-3.86-1.02c-.23-.13-.46-.26-.71-.35s-.66-.12-.86-.32c-.49-.49-.35-1.68-.09-2.23.25-.52.72-.94,1.04-1.43s.6-1.06,1.08-1.45c.53-.43,1.26-.48,1.9-.62.69-.14,1.37-.31,2.05-.49,1.24-.33,2.56-.67,3.7-1.27.85-.44,1.62-1.14,1.81-2.11.21-1.05-.28-2.04-.93-2.82-.41-.49-1.12.22-.71.71,2.56,3.05-2.71,4.18-4.72,4.69-1.14.29-2.55.32-3.53,1s-1.51,1.89-2.21,2.79c-.66.85-.83,1.98-.57,3.02.1.41.29.8.62,1.06.41.33.97.36,1.43.59.59.3,1.07.55,1.73.68s1.33.23,1.98.4c1.41.35,3,.72,4.28,1.4.57.3,1.07-.56.5-.86h0Z"/>
    <path d="m71.41,22.19c-.02-.34-.04-.69,0-1.03l-.03.2c.03-.23.09-.45.18-.66l-.08.18c.08-.19.19-.38.3-.55.21-.33.08-.84-.27-1.03-.37-.2-.8-.08-1.03.27s-.44.77-.53,1.2c-.1.47-.09.94-.06,1.42.01.2.08.39.22.53.13.13.34.23.53.22.39-.02.78-.33.75-.75h0Z"/>
    <path d="m78.12,19.39c.16-.11.32-.22.5-.31.07-.04.15-.08.23-.12.04-.02.09-.04.13-.06.03-.01.17-.09.05-.02.15-.08.35-.13.52-.18.19-.05.38-.1.57-.13.26-.05.43-.37.35-.62-.09-.28-.34-.4-.62-.35-.8.14-1.57.46-2.23.93-.21.15-.33.44-.18.68.14.21.45.34.68.18h0Z"/>
    <path d="m81.38,18.43s.1-.02.14-.03c.02,0,.05,0,.07-.01.07-.01,0,0-.02,0,.04,0,.1-.01.15-.01.05,0,.1,0,.15,0,.1,0,.2,0,.3.01.07,0,0,.01-.02,0,.02,0,.05,0,.07.01.05,0,.11.02.16.03.1.02.19.05.28.08.02,0,.05.02.07.03.07.02-.08-.04-.02,0,.04.02.09.04.13.06.09.04.17.09.25.15.02.01.04.03.06.04.01,0,.08.06.02.02s.01.01.02.02c.02.02.05.04.07.06.2.17.52.21.71,0,.17-.19.21-.52,0-.71-.78-.69-1.86-.96-2.87-.7-.25.06-.43.36-.35.62s.34.42.62.35h0Z"/>
    <path d="m77.53,25.3c2.4.37,4.83-.3,6.68-1.87.49-.42-.22-1.12-.71-.71-1.55,1.32-3.69,1.93-5.7,1.62-.27-.04-.54.07-.62.35-.07.24.08.57.35.62h0Z"/>
    <path d="m81.99,31.59c-.16,1.38.14,2.79.81,4,.31.56,1.18.06.86-.5-.6-1.07-.82-2.28-.68-3.49.03-.27-.25-.5-.5-.5-.3,0-.47.23-.5.5h0Z"/>
    <path d="m83.86,35.67c.5-.68.76-1.53.76-2.38,0-.26-.23-.51-.5-.5s-.5.22-.5.5c0,.1,0,.19-.01.29,0,.04,0,.11-.01.14.01-.07.01-.08,0-.03v.04c-.04.18-.08.37-.14.54-.03.08-.05.18-.09.25.07-.12,0,.02-.02.05-.02.04-.04.08-.06.11-.09.17-.18.32-.29.47-.15.21-.04.57.18.68.26.14.52.05.68-.18h0Z"/>
    <path d="m83.92,35.78c.44-.02.86-.21,1.17-.53s.5-.74.52-1.18c.01-.26-.24-.51-.5-.5-.28.01-.49.22-.5.5,0,.04,0,.08-.01.12l.02-.13c-.01.1-.04.2-.08.29l.05-.12c-.04.1-.1.2-.17.29l.08-.1c-.07.09-.16.18-.25.25l.1-.08c-.09.07-.19.12-.29.17l.12-.05c-.09.04-.19.07-.29.08l.13-.02s-.07,0-.1,0c-.13,0-.26.05-.35.15-.09.09-.15.23-.15.35s.05.26.15.35.22.15.35.15h0Z"/>
    <path d="m82.32,36.52c-.32.61-.48,1.32-.4,2.01.01.14.05.25.15.35.09.09.23.15.35.15.25-.01.53-.22.5-.5-.03-.25-.02-.49,0-.74l-.02.13c.02-.17.06-.34.11-.51.02-.08.05-.16.08-.23.02-.06,0,.02-.01.03.01-.02.02-.05.03-.07.02-.04.04-.08.06-.12.12-.23.07-.55-.18-.68-.23-.12-.55-.07-.68.18h0Z"/>
    <path d="m78.26,39.15c1.07,0,2.13.36,3.2.26.52-.05,1.01-.21,1.51-.36.53-.16,1.07-.32,1.6-.48.31-.09.18-.57-.13-.48-.5.15-.99.3-1.49.44-.52.16-1.06.35-1.61.39-1.04.07-2.05-.26-3.08-.27-.32,0-.32.5,0,.5h0Z"/>
    <path d="m79.18,40.45c1.18.06,2.32.03,3.47-.24.54-.12.99-.13,1.53-.01.41.09.84.21,1.27.17.32-.03.32-.53,0-.5-.43.04-.85-.09-1.26-.18-.49-.11-.94-.11-1.43-.01-.59.12-1.17.25-1.78.28s-1.2.02-1.79-.01c-.32-.02-.32.48,0,.5h0Z"/>
  </g>
  <g>
    <path class="cls-1" d="m19,94.31s6.21,1.01,4.31,5.01c0,0-.7,1.58-8.62,2.6,0,0-6.78,4.88-1.9,7.1,0,0,10.08,1.52,9.7,3.42s-4.06,7.35-2.73,8.43,3.11.82,3.11.82l-1.39.76.25.76s-1.96,0-2.22.51-1.84-.76-2.79-.44-2.16,1.58-2.16,1.58c0,0,1.76.63,2.78.44s1.53-.76,1.53-.76l-.44,1.14s.7.32,1.33,0c0,0,2.63,1.33,3.91.76s2.11-.32,2.93-1.01,1.39-.06,1.39-.06c0,0-1.46-1.96-2.22-1.96h-.76v-1.9s1.71-.06,2.09.57,6.09,4.94,10.08,2.41c0,0-2.35-4.25-7.99-3.93l-2.16.38h-.76l-.89-.32s1.39-.89-.25-5.01c0,0-.82-2.47,1.96-3.8s4.12-.95,4.12-.95l4.75-.4.89-2.7s-.7-2.16-.13-3.61-.82-5.13-.19-6.78c0,0-2.47.57-2.79-1.77,0,0-1.14-.06-2.16-.82l-1.9.57s-1.46-1.14-.89-4.44c0,0-2.22,1.9-4.06,1.46,0,0-3.99,3.3-5.77,1.96Z"/>
    <g>
      <path class="cls-2" d="m21.46,94.35c1-.27,2.29-1.22,2.89-2.07.38.36.96.43,1.47.31s.95-.42,1.39-.71c.43-.29.87-.58,1.3-.86-.03.9,0,1.83.39,2.64s1.26,1.44,2.15,1.31"/>
      <path class="cls-2" d="m22.12,96.76c1.79-.52,3.3-1.74,4.39-3.22l-3.93.51c1.19,1.02,2.78,1.41,4.27.82,1.07-.42,1.97-1.07,2.92-1.7l-3.76-2.16c-.04,1.41.09,3,.92,4.2.91,1.33,2.44,2.42,4.13,2.24.68-.07,1.27-.23,1.77-.73.43-.43.76-1.15.73-1.77-.06-1.24-1.11-2.64-2.5-2.5-.09.01-.19.02-.28.02.43.08.52.09.26.03-.47-.13.48.25.09.03-.22-.14-.16-.1.16.14-.07-.06-.14-.13-.2-.2.23.32.28.38.13.16-.04-.06-.08-.12-.11-.19-.08-.16-.05-.08.09.23-.04-.1-.07-.21-.1-.32-.03-.11-.05-.22-.07-.33.04.36.05.44.03.25-.03-.42-.04-.84-.03-1.27.06-1.83-2.19-3.2-3.76-2.16-.59.39-1.16.8-1.77,1.16-.07.04-.14.08-.2.12-.19.09-.19.1.02.01.2-.08.21-.08,0-.01-.07.02-.15.04-.22.06-.19.04-.09.03.31-.05-.21,0-.19,0,.05.02.24.04.25.04.05-.01.24.06.45.18.62.36-.62-.53-1.28-.8-2.1-.69s-1.35.54-1.83,1.19c.51-.69-.04.02-.22.19-.09.08-.18.16-.27.24-.43.36.24-.16.04-.03-.23.14-.45.3-.68.43l-.13.06c-.24.11-.16.08.23-.09-.12.02-.24.09-.36.12-1.25.37-2.17,1.78-1.75,3.08s1.73,2.14,3.08,1.75h0Z"/>
    </g>
    <path class="cls-2" d="m29.37,97.7c3.22,0,3.22-5,0-5s-3.22,5,0,5h0Z"/>
    <path class="cls-2" d="m29.86,98.03c3.22,0,3.22-5,0-5s-3.22,5,0,5h0Z"/>
    <path class="cls-2" d="m28.49,94.48c3.22,0,3.22-5,0-5s-3.22,5,0,5h0Z"/>
    <g>
      <path class="cls-2" d="m31.66,94.88c.45.53,1.14.86,1.84.88.04,0,.08,0,.11.03.02.02.02.05.03.08.09.63.49,1.21,1.05,1.52s1.26.34,1.84.09"/>
      <path class="cls-2" d="m29.89,96.64c.38.44.88.81,1.4,1.06.34.16.72.33,1.1.41s.78.11,1.17.15l-1.26-.34.05.03-.9-.9.02.04-.25-.6c.24,1.25,1.04,2.33,2.11,3,.66.41,1.39.58,2.15.64.29.02.56-.01.85-.05.3-.04.58-.08.87-.2.33-.08.61-.23.85-.45.27-.18.49-.41.64-.7.31-.54.45-1.33.25-1.93s-.57-1.19-1.15-1.49-1.32-.5-1.93-.25c-.17.07-.35.12-.53.15l.66-.09c-.19.02-.37.02-.56,0l.66.09c-.19-.03-.36-.07-.54-.14l.6.25c-.17-.07-.32-.16-.46-.26l.51.39c-.14-.11-.26-.23-.37-.36l.39.51c-.12-.16-.22-.32-.3-.5l.25.6c-.16-.39-.17-.77-.41-1.15-.36-.56-.9-1.01-1.55-1.19-.3-.08-.64-.08-.95-.11l.66.09c-.22-.03-.44-.09-.65-.17l.6.25c-.21-.09-.4-.2-.58-.33l.51.39c-.14-.11-.26-.23-.38-.36-.41-.46-1.17-.73-1.77-.73s-1.35.27-1.77.73-.76,1.1-.73,1.77.28,1.25.73,1.77h0Z"/>
    </g>
    <g>
      <path class="cls-2" d="m36.64,97.77c-.36,1.88.56,3.79.47,5.71-.04.74-.22,1.47-.3,2.21s-.04,1.53.34,2.17c-.42.76-.84,1.53-1.25,2.29-.11.19-.22.4-.4.51-.22.14-.49.14-.75.13-1.78-.04-3.56-.19-5.32-.45"/>
      <path class="cls-2" d="m34.23,97.11c-.2,1.25-.16,2.35.04,3.6.07.46.16.91.24,1.37,0,.05.1.8.05.25.02.23.04.46.05.69s0,.47-.02.71c.03-.44-.03.22-.05.32-.1.61-.21,1.23-.26,1.85-.08,1.12.17,2.24.7,3.22v-2.52c-.32.59-.65,1.18-.97,1.77-.09.17-.21.34-.28.52-.12.28-.01.01.11-.1l1.09-.49h-.2c-.19-.06-.44-.01-.64-.02-.72-.03-1.44-.07-2.16-.14-.34-.03-.68-.06-1.01-.1-.21-.02-.42-.05-.63-.07-.46-.05.58.08-.22-.03-.7-.1-1.29-.12-1.93.25-.52.3-1.01.9-1.15,1.49-.27,1.18.36,2.88,1.75,3.08,2.02.28,4.13.59,6.18.54,1.37-.04,2.44-.71,3.12-1.89.48-.84,1-1.7,1.38-2.59.22-.53.25-1.07.13-1.63.11.47-.5-1.43-.24-.55-.17-.58-.04.48-.04-.13,0-.17,0-.34,0-.51,0-.1.01-.2.02-.3-.03.21-.03.23,0,.05.04-.2.07-.41.1-.61.1-.62.2-1.25.21-1.88.01-.99-.19-1.99-.36-2.96-.04-.23-.08-.46-.12-.69-.13-.73.02.49-.04-.25-.02-.23-.03-.45-.03-.68,0-.12.08-.77,0-.24.21-1.29-.33-2.75-1.75-3.08-1.2-.27-2.85.37-3.08,1.75h0Z"/>
    </g>
    <path d="m23.31,90.2c-.21.92.16,1.79.61,2.58s.95,1.42,1.76,1.77c.25.11.54.07.68-.18.12-.21.07-.58-.18-.68-.65-.28-1.01-.75-1.37-1.35-.32-.55-.7-1.21-.55-1.87.06-.26-.08-.54-.35-.62-.25-.07-.55.08-.62.35h0Z"/>
    <path d="m28.3,88.75c-.04,2.01-.03,4.15,1.14,5.88.21.31.85.35.91-.12.1-.74.34-1.43.73-2.07.34-.55-.53-1.05-.86-.5-.43.7-.72,1.49-.84,2.31l.91-.12c-1.07-1.58-1.04-3.54-1.01-5.38.01-.64-.99-.64-1,0h0Z"/>
    <path d="m35.37,90.96c-1.1,2.78-2.08,5.68-1.95,8.71.02.53.64.64.93.25.96-1.25,2.1-2.37,3.36-3.31.51-.38.01-1.25-.5-.86-1.41,1.05-2.65,2.27-3.72,3.67l.93.25c-.13-2.94.84-5.75,1.91-8.44.24-.6-.73-.86-.96-.27h0Z"/>
    <path d="m35.42,103.85c1.13-.67,2.42-1,3.74-.98.64.01.64-.99,0-1-1.49-.02-2.96.37-4.24,1.12-.55.33-.05,1.19.5.86h0Z"/>
    <path d="m34.29,106.14c1.17.46,2.31,1,3.41,1.62.24.13.55.06.68-.18s.06-.55-.18-.68c-1.18-.66-2.4-1.23-3.65-1.72-.25-.1-.55.11-.62.35-.08.28.1.52.35.62h0Z"/>
    <path d="m34.45,108.11c0,.97.46,1.89,1.02,2.66s1.22,1.42,2,1.95c.22.15.55.04.68-.18.14-.25.04-.53-.18-.68-.63-.43-1.19-.97-1.64-1.59s-.88-1.36-.89-2.15c0-.64-1-.64-1,0h0Z"/>
    <path d="m30.43,110.58c.72.21,1.44.43,2.15.65.36.11.72.22,1.08.33.15.05.32.08.46.15-.06-.03.08.05.08.05-.03-.03-.02-.02.02.02-.01-.01-.03-.02-.03-.04.18.62,1.15.35.96-.27-.12-.4-.44-.61-.82-.74s-.79-.24-1.18-.36c-.82-.25-1.64-.49-2.46-.74-.62-.18-.88.78-.27.96h0Z"/>
    <path d="m17.33,94.4c1.82.26,3.55.89,5.11,1.87.55.34,1.05-.52.5-.86-1.62-1.02-3.45-1.7-5.35-1.97-.27-.04-.54.07-.62.35-.06.24.08.58.35.62h0Z"/>
    <path d="m21.87,110.95c-1.2-.64-2.64-.99-3.95-1.35s-2.7-.38-3.86-1.02c-.23-.13-.46-.26-.71-.35s-.66-.12-.86-.32c-.49-.49-.35-1.68-.09-2.23.25-.52.72-.94,1.04-1.43s.6-1.06,1.08-1.45c.53-.43,1.26-.48,1.9-.62.69-.14,1.37-.31,2.05-.49,1.24-.33,2.56-.67,3.7-1.27.85-.44,1.62-1.14,1.81-2.11.21-1.05-.28-2.04-.93-2.82-.41-.49-1.12.22-.71.71,2.56,3.05-2.71,4.18-4.72,4.69-1.14.29-2.55.32-3.53,1s-1.51,1.89-2.21,2.79c-.66.85-.83,1.98-.57,3.02.1.41.29.8.62,1.06.41.33.97.36,1.43.59.59.3,1.07.55,1.73.68s1.33.23,1.98.4c1.41.35,3,.72,4.28,1.4.57.3,1.07-.56.5-.86h0Z"/>
    <path d="m12.22,107.53c-.02-.34-.04-.69,0-1.03l-.03.2c.03-.23.09-.45.18-.66l-.08.18c.08-.19.19-.38.3-.55.21-.33.08-.84-.27-1.03-.37-.2-.8-.08-1.03.27s-.44.77-.53,1.2c-.1.47-.09.94-.06,1.42.01.2.08.39.22.53.13.13.34.23.53.22.39-.02.78-.33.75-.75h0Z"/>
    <path d="m18.94,104.73c.16-.11.32-.22.5-.31.07-.04.15-.08.23-.12.04-.02.09-.04.13-.06.03-.01.17-.09.05-.02.15-.08.35-.13.52-.18.19-.05.38-.1.57-.13.26-.05.43-.37.35-.62-.09-.28-.34-.4-.62-.35-.8.14-1.57.46-2.23.93-.21.15-.33.44-.18.68.14.21.45.34.68.18h0Z"/>
    <path d="m22.19,103.77s.1-.02.14-.03c.02,0,.05,0,.07-.01.07-.01,0,0-.02,0,.04,0,.1-.01.15-.01.05,0,.1,0,.15,0,.1,0,.2,0,.3.01.07,0,0,.01-.02,0,.02,0,.05,0,.07.01.05,0,.11.02.16.03.1.02.19.05.28.08.02,0,.05.02.07.03.07.02-.08-.04-.02,0,.04.02.09.04.13.06.09.04.17.09.25.15.02.01.04.03.06.04.01,0,.08.06.02.02s.01.01.02.02c.02.02.05.04.07.06.2.17.52.21.71,0,.17-.19.21-.52,0-.71-.78-.69-1.86-.96-2.87-.7-.25.06-.43.36-.35.62s.34.42.62.35h0Z"/>
    <path d="m18.34,110.64c2.4.37,4.83-.3,6.68-1.87.49-.42-.22-1.12-.71-.71-1.55,1.32-3.69,1.93-5.7,1.62-.27-.04-.54.07-.62.35-.07.24.08.57.35.62h0Z"/>
    <path d="m22.8,116.93c-.16,1.38.14,2.79.81,4,.31.56,1.18.06.86-.5-.6-1.07-.82-2.28-.68-3.49.03-.27-.25-.5-.5-.5-.3,0-.47.23-.5.5h0Z"/>
    <path d="m24.67,121.01c.5-.68.76-1.53.76-2.38,0-.26-.23-.51-.5-.5s-.5.22-.5.5c0,.1,0,.19-.01.29,0,.04,0,.11-.01.14.01-.07.01-.08,0-.03v.04c-.04.18-.08.37-.14.54-.03.08-.05.18-.09.25.07-.12,0,.02-.02.05-.02.04-.04.08-.06.11-.09.17-.18.32-.29.47-.15.21-.04.57.18.68.26.14.52.05.68-.18h0Z"/>
    <path d="m24.73,121.12c.44-.02.86-.21,1.17-.53s.5-.74.52-1.18c.01-.26-.24-.51-.5-.5-.28.01-.49.22-.5.5,0,.04,0,.08-.01.12l.02-.13c-.01.1-.04.2-.08.29l.05-.12c-.04.1-.1.2-.17.29l.08-.1c-.07.09-.16.18-.25.25l.1-.08c-.09.07-.19.12-.29.17l.12-.05c-.09.04-.19.07-.29.08l.13-.02s-.07,0-.1,0c-.13,0-.26.05-.35.15-.09.09-.15.23-.15.35s.05.26.15.35.22.15.35.15h0Z"/>
    <path d="m23.13,121.86c-.32.61-.48,1.32-.4,2.01.01.14.05.25.15.35.09.09.23.15.35.15.25-.01.53-.22.5-.5-.03-.25-.02-.49,0-.74l-.02.13c.02-.17.06-.34.11-.51.02-.08.05-.16.08-.23.02-.06,0,.02-.01.03.01-.02.02-.05.03-.07.02-.04.04-.08.06-.12.12-.23.07-.55-.18-.68-.23-.12-.55-.07-.68.18h0Z"/>
    <path d="m19.07,124.49c1.07,0,2.13.36,3.2.26.52-.05,1.01-.21,1.51-.36.53-.16,1.07-.32,1.6-.48.31-.09.18-.57-.13-.48-.5.15-.99.3-1.49.44-.52.16-1.06.35-1.61.39-1.04.07-2.05-.26-3.08-.27-.32,0-.32.5,0,.5h0Z"/>
    <path d="m19.99,125.79c1.18.06,2.32.03,3.47-.24.54-.12.99-.13,1.53-.01.41.09.84.21,1.27.17.32-.03.32-.53,0-.5-.43.04-.85-.09-1.26-.18-.49-.11-.94-.11-1.43-.01-.59.12-1.17.25-1.78.28s-1.2.02-1.79-.01c-.32-.02-.32.48,0,.5h0Z"/>
  </g>
  <g>
    <path class="cls-1" d="m17.57,16.36s6.21,1.01,4.31,5.01c0,0-.7,1.58-8.62,2.6,0,0-6.78,4.88-1.9,7.1,0,0,10.08,1.52,9.7,3.42s-4.06,7.35-2.73,8.43,3.11.82,3.11.82l-1.39.76.25.76s-1.96,0-2.22.51-1.84-.76-2.79-.44-2.16,1.58-2.16,1.58c0,0,1.76.63,2.78.44s1.53-.76,1.53-.76l-.44,1.14s.7.32,1.33,0c0,0,2.63,1.33,3.91.76s2.11-.32,2.93-1.01,1.39-.06,1.39-.06c0,0-1.46-1.96-2.22-1.96h-.76v-1.9s1.71-.06,2.09.57,6.09,4.94,10.08,2.41c0,0-2.35-4.25-7.99-3.93l-2.16.38h-.76l-.89-.32s1.39-.89-.25-5.01c0,0-.82-2.47,1.96-3.8s4.12-.95,4.12-.95l4.75-.4.89-2.7s-.7-2.16-.13-3.61-.82-5.13-.19-6.78c0,0-2.47.57-2.79-1.77,0,0-1.14-.06-2.16-.82l-1.9.57s-1.46-1.14-.89-4.44c0,0-2.22,1.9-4.06,1.46,0,0-3.99,3.3-5.77,1.96Z"/>
    <g>
      <path class="cls-2" d="m20.03,16.4c1-.27,2.29-1.22,2.89-2.07.38.36.96.43,1.47.31s.95-.42,1.39-.71c.43-.29.87-.58,1.3-.86-.03.9,0,1.83.39,2.64s1.26,1.44,2.15,1.31"/>
      <path class="cls-2" d="m20.69,18.81c1.79-.52,3.3-1.74,4.39-3.22l-3.93.51c1.19,1.02,2.78,1.41,4.27.82,1.07-.42,1.97-1.07,2.92-1.7l-3.76-2.16c-.04,1.41.09,3,.92,4.2.91,1.33,2.44,2.42,4.13,2.24.68-.07,1.27-.23,1.77-.73.43-.43.76-1.15.73-1.77-.06-1.24-1.11-2.64-2.5-2.5-.09.01-.19.02-.28.02.43.08.52.09.26.03-.47-.13.48.25.09.03-.22-.14-.16-.1.16.14-.07-.06-.14-.13-.2-.2.23.32.28.38.13.16-.04-.06-.08-.12-.11-.19-.08-.16-.05-.08.09.23-.04-.1-.07-.21-.1-.32-.03-.11-.05-.22-.07-.33.04.36.05.44.03.25-.03-.42-.04-.84-.03-1.27.06-1.83-2.19-3.2-3.76-2.16-.59.39-1.16.8-1.77,1.16-.07.04-.14.08-.2.12-.19.09-.19.1.02.01.2-.08.21-.08,0-.01-.07.02-.15.04-.22.06-.19.04-.09.03.31-.05-.21,0-.19,0,.05.02.24.04.25.04.05-.01.24.06.45.18.62.36-.62-.53-1.28-.8-2.1-.69s-1.35.54-1.83,1.19c.51-.69-.04.02-.22.19-.09.08-.18.16-.27.24-.43.36.24-.16.04-.03-.23.14-.45.3-.68.43l-.13.06c-.24.11-.16.08.23-.09-.12.02-.24.09-.36.12-1.25.37-2.17,1.78-1.75,3.08s1.73,2.14,3.08,1.75h0Z"/>
    </g>
    <path class="cls-2" d="m27.93,19.74c3.22,0,3.22-5,0-5s-3.22,5,0,5h0Z"/>
    <path class="cls-2" d="m28.42,20.07c3.22,0,3.22-5,0-5s-3.22,5,0,5h0Z"/>
    <path class="cls-2" d="m27.06,16.52c3.22,0,3.22-5,0-5s-3.22,5,0,5h0Z"/>
    <g>
      <path class="cls-2" d="m30.23,16.92c.45.53,1.14.86,1.84.88.04,0,.08,0,.11.03.02.02.02.05.03.08.09.63.49,1.21,1.05,1.52s1.26.34,1.84.09"/>
      <path class="cls-2" d="m28.46,18.69c.38.44.88.81,1.4,1.06.34.16.72.33,1.1.41s.78.11,1.17.15l-1.26-.34.05.03-.9-.9.02.04-.25-.6c.24,1.25,1.04,2.33,2.11,3,.66.41,1.39.58,2.15.64.29.02.56-.01.85-.05.3-.04.58-.08.87-.2.33-.08.61-.23.85-.45.27-.18.49-.41.64-.7.31-.54.45-1.33.25-1.93s-.57-1.19-1.15-1.49-1.32-.5-1.93-.25c-.17.07-.35.12-.53.15l.66-.09c-.19.02-.37.02-.56,0l.66.09c-.19-.03-.36-.07-.54-.14l.6.25c-.17-.07-.32-.16-.46-.26l.51.39c-.14-.11-.26-.23-.37-.36l.39.51c-.12-.16-.22-.32-.3-.5l.25.6c-.16-.39-.17-.77-.41-1.15-.36-.56-.9-1.01-1.55-1.19-.3-.08-.64-.08-.95-.11l.66.09c-.22-.03-.44-.09-.65-.17l.6.25c-.21-.09-.4-.2-.58-.33l.51.39c-.14-.11-.26-.23-.38-.36-.41-.46-1.17-.73-1.77-.73s-1.35.27-1.77.73-.76,1.1-.73,1.77.28,1.25.73,1.77h0Z"/>
    </g>
    <g>
      <path class="cls-2" d="m35.21,19.81c-.36,1.88.56,3.79.47,5.71-.04.74-.22,1.47-.3,2.21s-.04,1.53.34,2.17c-.42.76-.84,1.53-1.25,2.29-.11.19-.22.4-.4.51-.22.14-.49.14-.75.13-1.78-.04-3.56-.19-5.32-.45"/>
      <path class="cls-2" d="m32.8,19.15c-.2,1.25-.16,2.35.04,3.6.07.46.16.91.24,1.37,0,.05.1.8.05.25.02.23.04.46.05.69s0,.47-.02.71c.03-.44-.03.22-.05.32-.1.61-.21,1.23-.26,1.85-.08,1.12.17,2.24.7,3.22v-2.52c-.32.59-.65,1.18-.97,1.77-.09.17-.21.34-.28.52-.12.28-.01.01.11-.1l1.09-.49h-.2c-.19-.06-.44-.01-.64-.02-.72-.03-1.44-.07-2.16-.14-.34-.03-.68-.06-1.01-.1-.21-.02-.42-.05-.63-.07-.46-.05.58.08-.22-.03-.7-.1-1.29-.12-1.93.25-.52.3-1.01.9-1.15,1.49-.27,1.18.36,2.88,1.75,3.08,2.02.28,4.13.59,6.18.54,1.37-.04,2.44-.71,3.12-1.89.48-.84,1-1.7,1.38-2.59.22-.53.25-1.07.13-1.63.11.47-.5-1.43-.24-.55-.17-.58-.04.48-.04-.13,0-.17,0-.34,0-.51,0-.1.01-.2.02-.3-.03.21-.03.23,0,.05.04-.2.07-.41.1-.61.1-.62.2-1.25.21-1.88.01-.99-.19-1.99-.36-2.96-.04-.23-.08-.46-.12-.69-.13-.73.02.49-.04-.25-.02-.23-.03-.45-.03-.68,0-.12.08-.77,0-.24.21-1.29-.33-2.75-1.75-3.08-1.2-.27-2.85.37-3.08,1.75h0Z"/>
    </g>
    <path d="m21.88,12.25c-.21.92.16,1.79.61,2.58s.95,1.42,1.76,1.77c.25.11.54.07.68-.18.12-.21.07-.58-.18-.68-.65-.28-1.01-.75-1.37-1.35-.32-.55-.7-1.21-.55-1.87.06-.26-.08-.54-.35-.62-.25-.07-.55.08-.62.35h0Z"/>
    <path d="m26.86,10.8c-.04,2.01-.03,4.15,1.14,5.88.21.31.85.35.91-.12.1-.74.34-1.43.73-2.07.34-.55-.53-1.05-.86-.5-.43.7-.72,1.49-.84,2.31l.91-.12c-1.07-1.58-1.04-3.54-1.01-5.38.01-.64-.99-.64-1,0h0Z"/>
    <path d="m33.93,13c-1.1,2.78-2.08,5.68-1.95,8.71.02.53.64.64.93.25.96-1.25,2.1-2.37,3.36-3.31.51-.38.01-1.25-.5-.86-1.41,1.05-2.65,2.27-3.72,3.67l.93.25c-.13-2.94.84-5.75,1.91-8.44.24-.6-.73-.86-.96-.27h0Z"/>
    <path d="m33.99,25.89c1.13-.67,2.42-1,3.74-.98.64.01.64-.99,0-1-1.49-.02-2.96.37-4.24,1.12-.55.33-.05,1.19.5.86h0Z"/>
    <path d="m32.85,28.18c1.17.46,2.31,1,3.41,1.62.24.13.55.06.68-.18s.06-.55-.18-.68c-1.18-.66-2.4-1.23-3.65-1.72-.25-.1-.55.11-.62.35-.08.28.1.52.35.62h0Z"/>
    <path d="m33.01,30.15c0,.97.46,1.89,1.02,2.66s1.22,1.42,2,1.95c.22.15.55.04.68-.18.14-.25.04-.53-.18-.68-.63-.43-1.19-.97-1.64-1.59s-.88-1.36-.89-2.15c0-.64-1-.64-1,0h0Z"/>
    <path d="m28.99,32.63c.72.21,1.44.43,2.15.65.36.11.72.22,1.08.33.15.05.32.08.46.15-.06-.03.08.05.08.05-.03-.03-.02-.02.02.02-.01-.01-.03-.02-.03-.04.18.62,1.15.35.96-.27-.12-.4-.44-.61-.82-.74s-.79-.24-1.18-.36c-.82-.25-1.64-.49-2.46-.74-.62-.18-.88.78-.27.96h0Z"/>
    <path d="m15.89,16.44c1.82.26,3.55.89,5.11,1.87.55.34,1.05-.52.5-.86-1.62-1.02-3.45-1.7-5.35-1.97-.27-.04-.54.07-.62.35-.06.24.08.58.35.62h0Z"/>
    <path d="m20.43,32.99c-1.2-.64-2.64-.99-3.95-1.35s-2.7-.38-3.86-1.02c-.23-.13-.46-.26-.71-.35s-.66-.12-.86-.32c-.49-.49-.35-1.68-.09-2.23.25-.52.72-.94,1.04-1.43s.6-1.06,1.08-1.45c.53-.43,1.26-.48,1.9-.62.69-.14,1.37-.31,2.05-.49,1.24-.33,2.56-.67,3.7-1.27.85-.44,1.62-1.14,1.81-2.11.21-1.05-.28-2.04-.93-2.82-.41-.49-1.12.22-.71.71,2.56,3.05-2.71,4.18-4.72,4.69-1.14.29-2.55.32-3.53,1s-1.51,1.89-2.21,2.79c-.66.85-.83,1.98-.57,3.02.1.41.29.8.62,1.06.41.33.97.36,1.43.59.59.3,1.07.55,1.73.68s1.33.23,1.98.4c1.41.35,3,.72,4.28,1.4.57.3,1.07-.56.5-.86h0Z"/>
    <path d="m10.78,29.57c-.02-.34-.04-.69,0-1.03l-.03.2c.03-.23.09-.45.18-.66l-.08.18c.08-.19.19-.38.3-.55.21-.33.08-.84-.27-1.03-.37-.2-.8-.08-1.03.27s-.44.77-.53,1.2c-.1.47-.09.94-.06,1.42.01.2.08.39.22.53.13.13.34.23.53.22.39-.02.78-.33.75-.75h0Z"/>
    <path d="m17.5,26.77c.16-.11.32-.22.5-.31.07-.04.15-.08.23-.12.04-.02.09-.04.13-.06.03-.01.17-.09.05-.02.15-.08.35-.13.52-.18.19-.05.38-.1.57-.13.26-.05.43-.37.35-.62-.09-.28-.34-.4-.62-.35-.8.14-1.57.46-2.23.93-.21.15-.33.44-.18.68.14.21.45.34.68.18h0Z"/>
    <path d="m20.75,25.81s.1-.02.14-.03c.02,0,.05,0,.07-.01.07-.01,0,0-.02,0,.04,0,.1-.01.15-.01.05,0,.1,0,.15,0,.1,0,.2,0,.3.01.07,0,0,.01-.02,0,.02,0,.05,0,.07.01.05,0,.11.02.16.03.1.02.19.05.28.08.02,0,.05.02.07.03.07.02-.08-.04-.02,0,.04.02.09.04.13.06.09.04.17.09.25.15.02.01.04.03.06.04.01,0,.08.06.02.02s.01.01.02.02c.02.02.05.04.07.06.2.17.52.21.71,0,.17-.19.21-.52,0-.71-.78-.69-1.86-.96-2.87-.7-.25.06-.43.36-.35.62s.34.42.62.35h0Z"/>
    <path d="m16.9,32.68c2.4.37,4.83-.3,6.68-1.87.49-.42-.22-1.12-.71-.71-1.55,1.32-3.69,1.93-5.7,1.62-.27-.04-.54.07-.62.35-.07.24.08.57.35.62h0Z"/>
    <path d="m21.37,38.97c-.16,1.38.14,2.79.81,4,.31.56,1.18.06.86-.5-.6-1.07-.82-2.28-.68-3.49.03-.27-.25-.5-.5-.5-.3,0-.47.23-.5.5h0Z"/>
    <path d="m23.24,43.05c.5-.68.76-1.53.76-2.38,0-.26-.23-.51-.5-.5s-.5.22-.5.5c0,.1,0,.19-.01.29,0,.04,0,.11-.01.14.01-.07.01-.08,0-.03v.04c-.04.18-.08.37-.14.54-.03.08-.05.18-.09.25.07-.12,0,.02-.02.05-.02.04-.04.08-.06.11-.09.17-.18.32-.29.47-.15.21-.04.57.18.68.26.14.52.05.68-.18h0Z"/>
    <path d="m23.29,43.16c.44-.02.86-.21,1.17-.53s.5-.74.52-1.18c.01-.26-.24-.51-.5-.5-.28.01-.49.22-.5.5,0,.04,0,.08-.01.12l.02-.13c-.01.1-.04.2-.08.29l.05-.12c-.04.1-.1.2-.17.29l.08-.1c-.07.09-.16.18-.25.25l.1-.08c-.09.07-.19.12-.29.17l.12-.05c-.09.04-.19.07-.29.08l.13-.02s-.07,0-.1,0c-.13,0-.26.05-.35.15-.09.09-.15.23-.15.35s.05.26.15.35.22.15.35.15h0Z"/>
    <path d="m21.7,43.9c-.32.61-.48,1.32-.4,2.01.01.14.05.25.15.35.09.09.23.15.35.15.25-.01.53-.22.5-.5-.03-.25-.02-.49,0-.74l-.02.13c.02-.17.06-.34.11-.51.02-.08.05-.16.08-.23.02-.06,0,.02-.01.03.01-.02.02-.05.03-.07.02-.04.04-.08.06-.12.12-.23.07-.55-.18-.68-.23-.12-.55-.07-.68.18h0Z"/>
    <path d="m17.63,46.54c1.07,0,2.13.36,3.2.26.52-.05,1.01-.21,1.51-.36.53-.16,1.07-.32,1.6-.48.31-.09.18-.57-.13-.48-.5.15-.99.3-1.49.44-.52.16-1.06.35-1.61.39-1.04.07-2.05-.26-3.08-.27-.32,0-.32.5,0,.5h0Z"/>
    <path d="m18.56,47.84c1.18.06,2.32.03,3.47-.24.54-.12.99-.13,1.53-.01.41.09.84.21,1.27.17.32-.03.32-.53,0-.5-.43.04-.85-.09-1.26-.18-.49-.11-.94-.11-1.43-.01-.59.12-1.17.25-1.78.28s-1.2.02-1.79-.01c-.32-.02-.32.48,0,.5h0Z"/>
  </g>
  <g>
    <path class="cls-1" d="m58.57,98.13s6.21,1.01,4.31,5.01c0,0-.7,1.58-8.62,2.6,0,0-6.78,4.88-1.9,7.1,0,0,10.08,1.52,9.7,3.42s-4.06,7.35-2.73,8.43,3.11.82,3.11.82l-1.39.76.25.76s-1.96,0-2.22.51-1.84-.76-2.79-.44-2.16,1.58-2.16,1.58c0,0,1.76.63,2.78.44s1.53-.76,1.53-.76l-.44,1.14s.7.32,1.33,0c0,0,2.63,1.33,3.91.76s2.11-.32,2.93-1.01,1.39-.06,1.39-.06c0,0-1.46-1.96-2.22-1.96h-.76v-1.9s1.71-.06,2.09.57,6.09,4.94,10.08,2.41c0,0-2.35-4.25-7.99-3.93l-2.16.38h-.76l-.89-.32s1.39-.89-.25-5.01c0,0-.82-2.47,1.96-3.8s4.12-.95,4.12-.95l4.75-.4.89-2.7s-.7-2.16-.13-3.61-.82-5.13-.19-6.78c0,0-2.47.57-2.79-1.77,0,0-1.14-.06-2.16-.82l-1.9.57s-1.46-1.14-.89-4.44c0,0-2.22,1.9-4.06,1.46,0,0-3.99,3.3-5.77,1.96Z"/>
    <g>
      <path class="cls-2" d="m61.03,98.17c1-.27,2.29-1.22,2.89-2.07.38.36.96.43,1.47.31s.95-.42,1.39-.71c.43-.29.87-.58,1.3-.86-.03.9,0,1.83.39,2.64s1.26,1.44,2.15,1.31"/>
      <path class="cls-2" d="m61.69,100.58c1.79-.52,3.3-1.74,4.39-3.22l-3.93.51c1.19,1.02,2.78,1.41,4.27.82,1.07-.42,1.97-1.07,2.92-1.7l-3.76-2.16c-.04,1.41.09,3,.92,4.2.91,1.33,2.44,2.42,4.13,2.24.68-.07,1.27-.23,1.77-.73.43-.43.76-1.15.73-1.77-.06-1.24-1.11-2.64-2.5-2.5-.09.01-.19.02-.28.02.43.08.52.09.26.03-.47-.13.48.25.09.03-.22-.14-.16-.1.16.14-.07-.06-.14-.13-.2-.2.23.32.28.38.13.16-.04-.06-.08-.12-.11-.19-.08-.16-.05-.08.09.23-.04-.1-.07-.21-.1-.32-.03-.11-.05-.22-.07-.33.04.36.05.44.03.25-.03-.42-.04-.84-.03-1.27.06-1.83-2.19-3.2-3.76-2.16-.59.39-1.16.8-1.77,1.16-.07.04-.14.08-.2.12-.19.09-.19.1.02.01.2-.08.21-.08,0-.01-.07.02-.15.04-.22.06-.19.04-.09.03.31-.05-.21,0-.19,0,.05.02.24.04.25.04.05-.01.24.06.45.18.62.36-.62-.53-1.28-.8-2.1-.69s-1.35.54-1.83,1.19c.51-.69-.04.02-.22.19-.09.08-.18.16-.27.24-.43.36.24-.16.04-.03-.23.14-.45.3-.68.43l-.13.06c-.24.11-.16.08.23-.09-.12.02-.24.09-.36.12-1.25.37-2.17,1.78-1.75,3.08s1.73,2.14,3.08,1.75h0Z"/>
    </g>
    <path class="cls-2" d="m68.93,101.51c3.22,0,3.22-5,0-5s-3.22,5,0,5h0Z"/>
    <path class="cls-2" d="m69.43,101.84c3.22,0,3.22-5,0-5s-3.22,5,0,5h0Z"/>
    <path class="cls-2" d="m68.06,98.29c3.22,0,3.22-5,0-5s-3.22,5,0,5h0Z"/>
    <g>
      <path class="cls-2" d="m71.23,98.69c.45.53,1.14.86,1.84.88.04,0,.08,0,.11.03.02.02.02.05.03.08.09.63.49,1.21,1.05,1.52s1.26.34,1.84.09"/>
      <path class="cls-2" d="m69.46,100.46c.38.44.88.81,1.4,1.06.34.16.72.33,1.1.41s.78.11,1.17.15l-1.26-.34.05.03-.9-.9.02.04-.25-.6c.24,1.25,1.04,2.33,2.11,3,.66.41,1.39.58,2.15.64.29.02.56-.01.85-.05.3-.04.58-.08.87-.2.33-.08.61-.23.85-.45.27-.18.49-.41.64-.7.31-.54.45-1.33.25-1.93s-.57-1.19-1.15-1.49-1.32-.5-1.93-.25c-.17.07-.35.12-.53.15l.66-.09c-.19.02-.37.02-.56,0l.66.09c-.19-.03-.36-.07-.54-.14l.6.25c-.17-.07-.32-.16-.46-.26l.51.39c-.14-.11-.26-.23-.37-.36l.39.51c-.12-.16-.22-.32-.3-.5l.25.6c-.16-.39-.17-.77-.41-1.15-.36-.56-.9-1.01-1.55-1.19-.3-.08-.64-.08-.95-.11l.66.09c-.22-.03-.44-.09-.65-.17l.6.25c-.21-.09-.4-.2-.58-.33l.51.39c-.14-.11-.26-.23-.38-.36-.41-.46-1.17-.73-1.77-.73s-1.35.27-1.77.73-.76,1.1-.73,1.77.28,1.25.73,1.77h0Z"/>
    </g>
    <g>
      <path class="cls-2" d="m76.21,101.58c-.36,1.88.56,3.79.47,5.71-.04.74-.22,1.47-.3,2.21s-.04,1.53.34,2.17c-.42.76-.84,1.53-1.25,2.29-.11.19-.22.4-.4.51-.22.14-.49.14-.75.13-1.78-.04-3.56-.19-5.32-.45"/>
      <path class="cls-2" d="m73.8,100.92c-.2,1.25-.16,2.35.04,3.6.07.46.16.91.24,1.37,0,.05.1.8.05.25.02.23.04.46.05.69s0,.47-.02.71c.03-.44-.03.22-.05.32-.1.61-.21,1.23-.26,1.85-.08,1.12.17,2.24.7,3.22v-2.52c-.32.59-.65,1.18-.97,1.77-.09.17-.21.34-.28.52-.12.28-.01.01.11-.1l1.09-.49h-.2c-.19-.06-.44-.01-.64-.02-.72-.03-1.44-.07-2.16-.14-.34-.03-.68-.06-1.01-.1-.21-.02-.42-.05-.63-.07-.46-.05.58.08-.22-.03-.7-.1-1.29-.12-1.93.25-.52.3-1.01.9-1.15,1.49-.27,1.18.36,2.88,1.75,3.08,2.02.28,4.13.59,6.18.54,1.37-.04,2.44-.71,3.12-1.89.48-.84,1-1.7,1.38-2.59.22-.53.25-1.07.13-1.63.11.47-.5-1.43-.24-.55-.17-.58-.04.48-.04-.13,0-.17,0-.34,0-.51,0-.1.01-.2.02-.3-.03.21-.03.23,0,.05.04-.2.07-.41.1-.61.1-.62.2-1.25.21-1.88.01-.99-.19-1.99-.36-2.96-.04-.23-.08-.46-.12-.69-.13-.73.02.49-.04-.25-.02-.23-.03-.45-.03-.68,0-.12.08-.77,0-.24.21-1.29-.33-2.75-1.75-3.08-1.2-.27-2.85.37-3.08,1.75h0Z"/>
    </g>
    <path d="m62.88,94.02c-.21.92.16,1.79.61,2.58s.95,1.42,1.76,1.77c.25.11.54.07.68-.18.12-.21.07-.58-.18-.68-.65-.28-1.01-.75-1.37-1.35-.32-.55-.7-1.21-.55-1.87.06-.26-.08-.54-.35-.62-.25-.07-.55.08-.62.35h0Z"/>
    <path d="m67.87,92.57c-.04,2.01-.03,4.15,1.14,5.88.21.31.85.35.91-.12.1-.74.34-1.43.73-2.07.34-.55-.53-1.05-.86-.5-.43.7-.72,1.49-.84,2.31l.91-.12c-1.07-1.58-1.04-3.54-1.01-5.38.01-.64-.99-.64-1,0h0Z"/>
    <path d="m74.94,94.77c-1.1,2.78-2.08,5.68-1.95,8.71.02.53.64.64.93.25.96-1.25,2.1-2.37,3.36-3.31.51-.38.01-1.25-.5-.86-1.41,1.05-2.65,2.27-3.72,3.67l.93.25c-.13-2.94.84-5.75,1.91-8.44.24-.6-.73-.86-.96-.27h0Z"/>
    <path d="m74.99,107.66c1.13-.67,2.42-1,3.74-.98.64.01.64-.99,0-1-1.49-.02-2.96.37-4.24,1.12-.55.33-.05,1.19.5.86h0Z"/>
    <path d="m73.86,109.95c1.17.46,2.31,1,3.41,1.62.24.13.55.06.68-.18s.06-.55-.18-.68c-1.18-.66-2.4-1.23-3.65-1.72-.25-.1-.55.11-.62.35-.08.28.1.52.35.62h0Z"/>
    <path d="m74.02,111.92c0,.97.46,1.89,1.02,2.66s1.22,1.42,2,1.95c.22.15.55.04.68-.18.14-.25.04-.53-.18-.68-.63-.43-1.19-.97-1.64-1.59s-.88-1.36-.89-2.15c0-.64-1-.64-1,0h0Z"/>
    <path d="m70,114.4c.72.21,1.44.43,2.15.65.36.11.72.22,1.08.33.15.05.32.08.46.15-.06-.03.08.05.08.05-.03-.03-.02-.02.02.02-.01-.01-.03-.02-.03-.04.18.62,1.15.35.96-.27-.12-.4-.44-.61-.82-.74s-.79-.24-1.18-.36c-.82-.25-1.64-.49-2.46-.74-.62-.18-.88.78-.27.96h0Z"/>
    <path d="m56.9,98.21c1.82.26,3.55.89,5.11,1.87.55.34,1.05-.52.5-.86-1.62-1.02-3.45-1.7-5.35-1.97-.27-.04-.54.07-.62.35-.06.24.08.58.35.62h0Z"/>
    <path d="m61.44,114.76c-1.2-.64-2.64-.99-3.95-1.35s-2.7-.38-3.86-1.02c-.23-.13-.46-.26-.71-.35s-.66-.12-.86-.32c-.49-.49-.35-1.68-.09-2.23.25-.52.72-.94,1.04-1.43s.6-1.06,1.08-1.45c.53-.43,1.26-.48,1.9-.62.69-.14,1.37-.31,2.05-.49,1.24-.33,2.56-.67,3.7-1.27.85-.44,1.62-1.14,1.81-2.11.21-1.05-.28-2.04-.93-2.82-.41-.49-1.12.22-.71.71,2.56,3.05-2.71,4.18-4.72,4.69-1.14.29-2.55.32-3.53,1s-1.51,1.89-2.21,2.79c-.66.85-.83,1.98-.57,3.02.1.41.29.8.62,1.06.41.33.97.36,1.43.59.59.3,1.07.55,1.73.68s1.33.23,1.98.4c1.41.35,3,.72,4.28,1.4.57.3,1.07-.56.5-.86h0Z"/>
    <path d="m51.79,111.34c-.02-.34-.04-.69,0-1.03l-.03.2c.03-.23.09-.45.18-.66l-.08.18c.08-.19.19-.38.3-.55.21-.33.08-.84-.27-1.03-.37-.2-.8-.08-1.03.27s-.44.77-.53,1.2c-.1.47-.09.94-.06,1.42.01.2.08.39.22.53.13.13.34.23.53.22.39-.02.78-.33.75-.75h0Z"/>
    <path d="m58.51,108.54c.16-.11.32-.22.5-.31.07-.04.15-.08.23-.12.04-.02.09-.04.13-.06.03-.01.17-.09.05-.02.15-.08.35-.13.52-.18.19-.05.38-.1.57-.13.26-.05.43-.37.35-.62-.09-.28-.34-.4-.62-.35-.8.14-1.57.46-2.23.93-.21.15-.33.44-.18.68.14.21.45.34.68.18h0Z"/>
    <path d="m61.76,107.58s.1-.02.14-.03c.02,0,.05,0,.07-.01.07-.01,0,0-.02,0,.04,0,.1-.01.15-.01.05,0,.1,0,.15,0,.1,0,.2,0,.3.01.07,0,0,.01-.02,0,.02,0,.05,0,.07.01.05,0,.11.02.16.03.1.02.19.05.28.08.02,0,.05.02.07.03.07.02-.08-.04-.02,0,.04.02.09.04.13.06.09.04.17.09.25.15.02.01.04.03.06.04.01,0,.08.06.02.02s.01.01.02.02c.02.02.05.04.07.06.2.17.52.21.71,0,.17-.19.21-.52,0-.71-.78-.69-1.86-.96-2.87-.7-.25.06-.43.36-.35.62s.34.42.62.35h0Z"/>
    <path d="m57.91,114.45c2.4.37,4.83-.3,6.68-1.87.49-.42-.22-1.12-.71-.71-1.55,1.32-3.69,1.93-5.7,1.62-.27-.04-.54.07-.62.35-.07.24.08.57.35.62h0Z"/>
    <path d="m62.37,120.74c-.16,1.38.14,2.79.81,4,.31.56,1.18.06.86-.5-.6-1.07-.82-2.28-.68-3.49.03-.27-.25-.5-.5-.5-.3,0-.47.23-.5.5h0Z"/>
    <path d="m64.24,124.82c.5-.68.76-1.53.76-2.38,0-.26-.23-.51-.5-.5s-.5.22-.5.5c0,.1,0,.19-.01.29,0,.04,0,.11-.01.14.01-.07.01-.08,0-.03v.04c-.04.18-.08.37-.14.54-.03.08-.05.18-.09.25.07-.12,0,.02-.02.05-.02.04-.04.08-.06.11-.09.17-.18.32-.29.47-.15.21-.04.57.18.68.26.14.52.05.68-.18h0Z"/>
    <path d="m64.3,124.93c.44-.02.86-.21,1.17-.53s.5-.74.52-1.18c.01-.26-.24-.51-.5-.5-.28.01-.49.22-.5.5,0,.04,0,.08-.01.12l.02-.13c-.01.1-.04.2-.08.29l.05-.12c-.04.1-.1.2-.17.29l.08-.1c-.07.09-.16.18-.25.25l.1-.08c-.09.07-.19.12-.29.17l.12-.05c-.09.04-.19.07-.29.08l.13-.02s-.07,0-.1,0c-.13,0-.26.05-.35.15-.09.09-.15.23-.15.35s.05.26.15.35.22.15.35.15h0Z"/>
    <path d="m62.7,125.67c-.32.61-.48,1.32-.4,2.01.01.14.05.25.15.35.09.09.23.15.35.15.25-.01.53-.22.5-.5-.03-.25-.02-.49,0-.74l-.02.13c.02-.17.06-.34.11-.51.02-.08.05-.16.08-.23.02-.06,0,.02-.01.03.01-.02.02-.05.03-.07.02-.04.04-.08.06-.12.12-.23.07-.55-.18-.68-.23-.12-.55-.07-.68.18h0Z"/>
    <path d="m58.64,128.31c1.07,0,2.13.36,3.2.26.52-.05,1.01-.21,1.51-.36.53-.16,1.07-.32,1.6-.48.31-.09.18-.57-.13-.48-.5.15-.99.3-1.49.44-.52.16-1.06.35-1.61.39-1.04.07-2.05-.26-3.08-.27-.32,0-.32.5,0,.5h0Z"/>
    <path d="m59.56,129.61c1.18.06,2.32.03,3.47-.24.54-.12.99-.13,1.53-.01.41.09.84.21,1.27.17.32-.03.32-.53,0-.5-.43.04-.85-.09-1.26-.18-.49-.11-.94-.11-1.43-.01-.59.12-1.17.25-1.78.28s-1.2.02-1.79-.01c-.32-.02-.32.48,0,.5h0Z"/>
  </g>
  <g>
    <path class="cls-1" d="m43.46,52.83s6.21,1.01,4.31,5.01c0,0-.7,1.58-8.62,2.6,0,0-6.78,4.88-1.9,7.1,0,0,10.08,1.52,9.7,3.42s-4.06,7.35-2.73,8.43,3.11.82,3.11.82l-1.39.76.25.76s-1.96,0-2.22.51-1.84-.76-2.79-.44-2.16,1.58-2.16,1.58c0,0,1.76.63,2.78.44s1.53-.76,1.53-.76l-.44,1.14s.7.32,1.33,0c0,0,2.63,1.33,3.91.76s2.11-.32,2.93-1.01,1.39-.06,1.39-.06c0,0-1.46-1.96-2.22-1.96h-.76v-1.9s1.71-.06,2.09.57,6.09,4.94,10.08,2.41c0,0-2.35-4.25-7.99-3.93l-2.16.38h-.76l-.89-.32s1.39-.89-.25-5.01c0,0-.82-2.47,1.96-3.8s4.12-.95,4.12-.95l4.75-.4.89-2.7s-.7-2.16-.13-3.61-.82-5.13-.19-6.78c0,0-2.47.57-2.79-1.77,0,0-1.14-.06-2.16-.82l-1.9.57s-1.46-1.14-.89-4.44c0,0-2.22,1.9-4.06,1.46,0,0-3.99,3.3-5.77,1.96Z"/>
    <g>
      <path class="cls-2" d="m45.92,52.87c1-.27,2.29-1.22,2.89-2.07.38.36.96.43,1.47.31s.95-.42,1.39-.71c.43-.29.87-.58,1.3-.86-.03.9,0,1.83.39,2.64s1.26,1.44,2.15,1.31"/>
      <path class="cls-2" d="m46.59,55.28c1.79-.52,3.3-1.74,4.39-3.22l-3.93.51c1.19,1.02,2.78,1.41,4.27.82,1.07-.42,1.97-1.07,2.92-1.7l-3.76-2.16c-.04,1.41.09,3,.92,4.2.91,1.33,2.44,2.42,4.13,2.24.68-.07,1.27-.23,1.77-.73.43-.43.76-1.15.73-1.77-.06-1.24-1.11-2.64-2.5-2.5-.09.01-.19.02-.28.02.43.08.52.09.26.03-.47-.13.48.25.09.03-.22-.14-.16-.1.16.14-.07-.06-.14-.13-.2-.2.23.32.28.38.13.16-.04-.06-.08-.12-.11-.19-.08-.16-.05-.08.09.23-.04-.1-.07-.21-.1-.32-.03-.11-.05-.22-.07-.33.04.36.05.44.03.25-.03-.42-.04-.84-.03-1.27.06-1.83-2.19-3.2-3.76-2.16-.59.39-1.16.8-1.77,1.16-.07.04-.14.08-.2.12-.19.09-.19.1.02.01.2-.08.21-.08,0-.01-.07.02-.15.04-.22.06-.19.04-.09.03.31-.05-.21,0-.19,0,.05.02.24.04.25.04.05-.01.24.06.45.18.62.36-.62-.53-1.28-.8-2.1-.69s-1.35.54-1.83,1.19c.51-.69-.04.02-.22.19-.09.08-.18.16-.27.24-.43.36.24-.16.04-.03-.23.14-.45.3-.68.43l-.13.06c-.24.11-.16.08.23-.09-.12.02-.24.09-.36.12-1.25.37-2.17,1.78-1.75,3.08s1.73,2.14,3.08,1.75h0Z"/>
    </g>
    <path class="cls-2" d="m53.83,56.22c3.22,0,3.22-5,0-5s-3.22,5,0,5h0Z"/>
    <path class="cls-2" d="m54.32,56.54c3.22,0,3.22-5,0-5s-3.22,5,0,5h0Z"/>
    <path class="cls-2" d="m52.95,52.99c3.22,0,3.22-5,0-5s-3.22,5,0,5h0Z"/>
    <g>
      <path class="cls-2" d="m56.12,53.39c.45.53,1.14.86,1.84.88.04,0,.08,0,.11.03.02.02.02.05.03.08.09.63.49,1.21,1.05,1.52s1.26.34,1.84.09"/>
      <path class="cls-2" d="m54.36,55.16c.38.44.88.81,1.4,1.06.34.16.72.33,1.1.41s.78.11,1.17.15l-1.26-.34.05.03-.9-.9.02.04-.25-.6c.24,1.25,1.04,2.33,2.11,3,.66.41,1.39.58,2.15.64.29.02.56-.01.85-.05.3-.04.58-.08.87-.2.33-.08.61-.23.85-.45.27-.18.49-.41.64-.7.31-.54.45-1.33.25-1.93s-.57-1.19-1.15-1.49-1.32-.5-1.93-.25c-.17.07-.35.12-.53.15l.66-.09c-.19.02-.37.02-.56,0l.66.09c-.19-.03-.36-.07-.54-.14l.6.25c-.17-.07-.32-.16-.46-.26l.51.39c-.14-.11-.26-.23-.37-.36l.39.51c-.12-.16-.22-.32-.3-.5l.25.6c-.16-.39-.17-.77-.41-1.15-.36-.56-.9-1.01-1.55-1.19-.3-.08-.64-.08-.95-.11l.66.09c-.22-.03-.44-.09-.65-.17l.6.25c-.21-.09-.4-.2-.58-.33l.51.39c-.14-.11-.26-.23-.38-.36-.41-.46-1.17-.73-1.77-.73s-1.35.27-1.77.73-.76,1.1-.73,1.77.28,1.25.73,1.77h0Z"/>
    </g>
    <g>
      <path class="cls-2" d="m61.1,56.29c-.36,1.88.56,3.79.47,5.71-.04.74-.22,1.47-.3,2.21s-.04,1.53.34,2.17c-.42.76-.84,1.53-1.25,2.29-.11.19-.22.4-.4.51-.22.14-.49.14-.75.13-1.78-.04-3.56-.19-5.32-.45"/>
      <path class="cls-2" d="m58.69,55.62c-.2,1.25-.16,2.35.04,3.6.07.46.16.91.24,1.37,0,.05.1.8.05.25.02.23.04.46.05.69s0,.47-.02.71c.03-.44-.03.22-.05.32-.1.61-.21,1.23-.26,1.85-.08,1.12.17,2.24.7,3.22v-2.52c-.32.59-.65,1.18-.97,1.77-.09.17-.21.34-.28.52-.12.28-.01.01.11-.1l1.09-.49h-.2c-.19-.06-.44-.01-.64-.02-.72-.03-1.44-.07-2.16-.14-.34-.03-.68-.06-1.01-.1-.21-.02-.42-.05-.63-.07-.46-.05.58.08-.22-.03-.7-.1-1.29-.12-1.93.25-.52.3-1.01.9-1.15,1.49-.27,1.18.36,2.88,1.75,3.08,2.02.28,4.13.59,6.18.54,1.37-.04,2.44-.71,3.12-1.89.48-.84,1-1.7,1.38-2.59.22-.53.25-1.07.13-1.63.11.47-.5-1.43-.24-.55-.17-.58-.04.48-.04-.13,0-.17,0-.34,0-.51,0-.1.01-.2.02-.3-.03.21-.03.23,0,.05.04-.2.07-.41.1-.61.1-.62.2-1.25.21-1.88.01-.99-.19-1.99-.36-2.96-.04-.23-.08-.46-.12-.69-.13-.73.02.49-.04-.25-.02-.23-.03-.45-.03-.68,0-.12.08-.77,0-.24.21-1.29-.33-2.75-1.75-3.08-1.2-.27-2.85.37-3.08,1.75h0Z"/>
    </g>
    <path d="m47.78,48.72c-.21.92.16,1.79.61,2.58s.95,1.42,1.76,1.77c.25.11.54.07.68-.18.12-.21.07-.58-.18-.68-.65-.28-1.01-.75-1.37-1.35-.32-.55-.7-1.21-.55-1.87.06-.26-.08-.54-.35-.62-.25-.07-.55.08-.62.35h0Z"/>
    <path d="m52.76,47.27c-.04,2.01-.03,4.15,1.14,5.88.21.31.85.35.91-.12.1-.74.34-1.43.73-2.07.34-.55-.53-1.05-.86-.5-.43.7-.72,1.49-.84,2.31l.91-.12c-1.07-1.58-1.04-3.54-1.01-5.38.01-.64-.99-.64-1,0h0Z"/>
    <path d="m59.83,49.47c-1.1,2.78-2.08,5.68-1.95,8.71.02.53.64.64.93.25.96-1.25,2.1-2.37,3.36-3.31.51-.38.01-1.25-.5-.86-1.41,1.05-2.65,2.27-3.72,3.67l.93.25c-.13-2.94.84-5.75,1.91-8.44.24-.6-.73-.86-.96-.27h0Z"/>
    <path d="m59.89,62.37c1.13-.67,2.42-1,3.74-.98.64.01.64-.99,0-1-1.49-.02-2.96.37-4.24,1.12-.55.33-.05,1.19.5.86h0Z"/>
    <path d="m58.75,64.66c1.17.46,2.31,1,3.41,1.62.24.13.55.06.68-.18s.06-.55-.18-.68c-1.18-.66-2.4-1.23-3.65-1.72-.25-.1-.55.11-.62.35-.08.28.1.52.35.62h0Z"/>
    <path d="m58.91,66.63c0,.97.46,1.89,1.02,2.66s1.22,1.42,2,1.95c.22.15.55.04.68-.18.14-.25.04-.53-.18-.68-.63-.43-1.19-.97-1.64-1.59s-.88-1.36-.89-2.15c0-.64-1-.64-1,0h0Z"/>
    <path d="m54.89,69.1c.72.21,1.44.43,2.15.65.36.11.72.22,1.08.33.15.05.32.08.46.15-.06-.03.08.05.08.05-.03-.03-.02-.02.02.02-.01-.01-.03-.02-.03-.04.18.62,1.15.35.96-.27-.12-.4-.44-.61-.82-.74s-.79-.24-1.18-.36c-.82-.25-1.64-.49-2.46-.74-.62-.18-.88.78-.27.96h0Z"/>
    <path d="m41.79,52.92c1.82.26,3.55.89,5.11,1.87.55.34,1.05-.52.5-.86-1.62-1.02-3.45-1.7-5.35-1.97-.27-.04-.54.07-.62.35-.06.24.08.58.35.62h0Z"/>
    <path d="m46.33,69.47c-1.2-.64-2.64-.99-3.95-1.35s-2.7-.38-3.86-1.02c-.23-.13-.46-.26-.71-.35s-.66-.12-.86-.32c-.49-.49-.35-1.68-.09-2.23.25-.52.72-.94,1.04-1.43s.6-1.06,1.08-1.45c.53-.43,1.26-.48,1.9-.62.69-.14,1.37-.31,2.05-.49,1.24-.33,2.56-.67,3.7-1.27.85-.44,1.62-1.14,1.81-2.11.21-1.05-.28-2.04-.93-2.82-.41-.49-1.12.22-.71.71,2.56,3.05-2.71,4.18-4.72,4.69-1.14.29-2.55.32-3.53,1s-1.51,1.89-2.21,2.79c-.66.85-.83,1.98-.57,3.02.1.41.29.8.62,1.06.41.33.97.36,1.43.59.59.3,1.07.55,1.73.68s1.33.23,1.98.4c1.41.35,3,.72,4.28,1.4.57.3,1.07-.56.5-.86h0Z"/>
    <path d="m36.68,66.05c-.02-.34-.04-.69,0-1.03l-.03.2c.03-.23.09-.45.18-.66l-.08.18c.08-.19.19-.38.3-.55.21-.33.08-.84-.27-1.03-.37-.2-.8-.08-1.03.27s-.44.77-.53,1.2c-.1.47-.09.94-.06,1.42.01.2.08.39.22.53.13.13.34.23.53.22.39-.02.78-.33.75-.75h0Z"/>
    <path d="m43.4,63.25c.16-.11.32-.22.5-.31.07-.04.15-.08.23-.12.04-.02.09-.04.13-.06.03-.01.17-.09.05-.02.15-.08.35-.13.52-.18.19-.05.38-.1.57-.13.26-.05.43-.37.35-.62-.09-.28-.34-.4-.62-.35-.8.14-1.57.46-2.23.93-.21.15-.33.44-.18.68.14.21.45.34.68.18h0Z"/>
    <path d="m46.65,62.28s.1-.02.14-.03c.02,0,.05,0,.07-.01.07-.01,0,0-.02,0,.04,0,.1-.01.15-.01.05,0,.1,0,.15,0,.1,0,.2,0,.3.01.07,0,0,.01-.02,0,.02,0,.05,0,.07.01.05,0,.11.02.16.03.1.02.19.05.28.08.02,0,.05.02.07.03.07.02-.08-.04-.02,0,.04.02.09.04.13.06.09.04.17.09.25.15.02.01.04.03.06.04.01,0,.08.06.02.02s.01.01.02.02c.02.02.05.04.07.06.2.17.52.21.71,0,.17-.19.21-.52,0-.71-.78-.69-1.86-.96-2.87-.7-.25.06-.43.36-.35.62s.34.42.62.35h0Z"/>
    <path d="m42.8,69.15c2.4.37,4.83-.3,6.68-1.87.49-.42-.22-1.12-.71-.71-1.55,1.32-3.69,1.93-5.7,1.62-.27-.04-.54.07-.62.35-.07.24.08.57.35.62h0Z"/>
    <path d="m47.27,75.45c-.16,1.38.14,2.79.81,4,.31.56,1.18.06.86-.5-.6-1.07-.82-2.28-.68-3.49.03-.27-.25-.5-.5-.5-.3,0-.47.23-.5.5h0Z"/>
    <path d="m49.13,79.53c.5-.68.76-1.53.76-2.38,0-.26-.23-.51-.5-.5s-.5.22-.5.5c0,.1,0,.19-.01.29,0,.04,0,.11-.01.14.01-.07.01-.08,0-.03v.04c-.04.18-.08.37-.14.54-.03.08-.05.18-.09.25.07-.12,0,.02-.02.05-.02.04-.04.08-.06.11-.09.17-.18.32-.29.47-.15.21-.04.57.18.68.26.14.52.05.68-.18h0Z"/>
    <path d="m49.19,79.64c.44-.02.86-.21,1.17-.53s.5-.74.52-1.18c.01-.26-.24-.51-.5-.5-.28.01-.49.22-.5.5,0,.04,0,.08-.01.12l.02-.13c-.01.1-.04.2-.08.29l.05-.12c-.04.1-.1.2-.17.29l.08-.1c-.07.09-.16.18-.25.25l.1-.08c-.09.07-.19.12-.29.17l.12-.05c-.09.04-.19.07-.29.08l.13-.02s-.07,0-.1,0c-.13,0-.26.05-.35.15-.09.09-.15.23-.15.35s.05.26.15.35.22.15.35.15h0Z"/>
    <path d="m47.6,80.38c-.32.61-.48,1.32-.4,2.01.01.14.05.25.15.35.09.09.23.15.35.15.25-.01.53-.22.5-.5-.03-.25-.02-.49,0-.74l-.02.13c.02-.17.06-.34.11-.51.02-.08.05-.16.08-.23.02-.06,0,.02-.01.03.01-.02.02-.05.03-.07.02-.04.04-.08.06-.12.12-.23.07-.55-.18-.68-.23-.12-.55-.07-.68.18h0Z"/>
    <path d="m43.53,83.01c1.07,0,2.13.36,3.2.26.52-.05,1.01-.21,1.51-.36.53-.16,1.07-.32,1.6-.48.31-.09.18-.57-.13-.48-.5.15-.99.3-1.49.44-.52.16-1.06.35-1.61.39-1.04.07-2.05-.26-3.08-.27-.32,0-.32.5,0,.5h0Z"/>
    <path d="m44.45,84.31c1.18.06,2.32.03,3.47-.24.54-.12.99-.13,1.53-.01.41.09.84.21,1.27.17.32-.03.32-.53,0-.5-.43.04-.85-.09-1.26-.18-.49-.11-.94-.11-1.43-.01-.59.12-1.17.25-1.78.28s-1.2.02-1.79-.01c-.32-.02-.32.48,0,.5h0Z"/>
  </g>
</svg>