<?xml version="1.0" encoding="UTF-8"?>
<svg id="Layer_1" data-name="Layer 1" xmlns="http://www.w3.org/2000/svg" viewBox="0 0 150.56 217.28">
  <defs>
    <style>
      .cls-1 {
        fill: #fff;
      }

      .cls-2, .cls-3, .cls-4, .cls-5 {
        fill: #231f20;
      }

      .cls-3 {
        stroke-width: 2px;
      }

      .cls-3, .cls-4, .cls-6, .cls-7, .cls-8, .cls-9, .cls-10, .cls-5, .cls-11 {
        stroke-miterlimit: 10;
      }

      .cls-3, .cls-4, .cls-6, .cls-7, .cls-10, .cls-5, .cls-11 {
        stroke: #231f20;
      }

      .cls-4 {
        stroke-width: .5px;
      }

      .cls-6 {
        fill: #fee4cd;
      }

      .cls-7 {
        fill: #ffde17;
      }

      .cls-8 {
        stroke: #ec008c;
      }

      .cls-8, .cls-9 {
        fill: #de66a6;
      }

      .cls-9 {
        stroke: #000;
      }

      .cls-10 {
        fill: #a05ba4;
      }

      .cls-11 {
        fill: none;
      }
    </style>
  </defs>
  <path class="cls-6" d="m74.39,98.39c-4.56-.32-22.16-2.67-25.89-19.97,0,0-8.38,2.66-8.07-7.56,0,0,.2-7.46,8.89-5.52,0,0,.92-35.15,29.93-33.82,0,0,27.79-.34,31.37,33.44,0,0,3.5.05,3.88,5.54s-2.99,4.84-2.99,4.84c0,0,1.05,15.98-20.75,23.11,0,0-4.59,2.2-14.59.69-.65-.1-1.12-.69-1.78-.74Z"/>
  <path class="cls-6" d="m89.21,99.48c.84-2.05,2.64,6.82,2.64,6.82-2.04.82-6.23,4.29-6.23,4.29-1.94-2.76-10.93-3.68-10.93-3.68l1.84-6.95s12.3.46,12.69-.48Z"/>
  <path class="cls-10" d="m73.2,104.09s-3.02-1.29-3.13,1.83,1.08,3.66,1.08,3.66c0,0-17.79,16.44-17.36,26.42,0,0,3.88.81,5.82,0s8.52-21.08,9.06-21.51-7.55,19.69-7.55,21.87-2.7,14.25-2.59,15.22,46.46,2.7,48.94-.97c0,0-1.4-14.77-2.16-15.85s5.71-1.29,5.71-1.29c0,0-12.4-22.11-15.2-23.88,0,0-.54-4.11-1.83-4.77s-8.41,5.8-8.41,5.8c0,0-10.65-6.3-12.4-6.52Z"/>
  <path class="cls-6" d="m59.34,146.77s-2.74-.16-3.6-9.97l5.39-.45-1.79,10.42Z"/>
  <path class="cls-6" d="m105.57,135.49c-.14-.44.07-.9.48-1.1.94-.43,2.62-1.07,4.02-.88s.01,4.63-1.02,7.49c-.29.8-1.43.78-1.7-.03l-1.78-5.48Z"/>
  <path class="cls-5" d="m62.73,130.97l2.66-7.27s3.51,11.49,3.94,11.17,6.68-7.44,6.79-8.62,7.02,12.19,7.02,12.19c0,0,4.62-11.54,4.84-12.41s8.41,10.33,8.41,10.33c0,0,5.28-10.22,5.93-10.33s2.16,7.45,2.16,7.45c0,0-3.23,1.67-3.56,2.88s-3.99,9.94-3.99,9.94l-7.65-9.94s-3.45,9.6-4.31,10.42-7.87-8.24-8.19-9.32-6.36,9.37-6.36,9.37c0,0-2.95-2.93-7.67-15.85Z"/>
  <path class="cls-11" d="m58.56,151.74l.8,7.4s38.72,1.59,47.44-1.59l.66-6.77c0-.1-.07-.18-.16-.16-2.27.4-25.41,4.24-48.59.96-.09-.01-.16.06-.15.15Z"/>
  <polygon class="cls-6" points="73.18 161.02 73.18 164.5 85.09 164.99 85.09 159.51 73.18 160.05 73.18 161.02"/>
  <path class="cls-10" d="m73.18,164.5s-1.55,4.26,0,5.03,9.03.97,10.42,0,1.49-4.55,1.49-4.55l-11.91-.48Z"/>
  <path class="cls-6" d="m85.62,159.95v4.45s10.7-.97,12.34,0l-.69-5.36-11.65.91Z"/>
  <path class="cls-10" d="m85.86,168.08l-.77-3.1s11.72-.68,12.88-.58c0,0,1.07,1.84.77,3.68s-.77,1.36-.77,1.36c0,0-10.6-1.81-12.1-1.36Z"/>
  <path class="cls-9" d="m70.85,169.5s-15.59-.83-17.91,4.49c0,0-3.29,4.36,11.13,3.58,0,0,19.36-2.03,21.01-1.84s28.18,3.2,30.11,0c0,0-.58-8.11-16.41-6.28,0,0-10.22-1.75-12.93-1.37,0,0-2.03,3.21-15.01,1.41Z"/>
  <path class="cls-5" d="m74.36,56.76s-2.38,1.77-1.77,3.24,2.94,1.08,3.24-.35.17-3.2-1.47-2.9Z"/>
  <path class="cls-5" d="m92.01,58.19s-1.6,1.39-1.12,2.75,1.82,1.02,1.82,1.02c0,0,2.16.43,1.3-2.77,0,0-.3-1.9-1.99-.99Z"/>
  <path class="cls-5" d="m80.63,54.6s8.61.17,8.56,4.97-2.77,7.05-6.88,6.01c0,0-1.25-.95-.09-1.21s4.41,1.47,5.28-1.38.72-6.29-2.59-7.31c0,0-3.76.09-4.28-.35s-.43-.76,0-.74Z"/>
  <path class="cls-11" d="m112.39,75.3c-.31-.27-.78.21-.87-.19-.39-1.71-.02-7.57-.69-9.04-.84-1.84.95-.78.95-.78,0,0,4.96,4.75,1.37,9.09-.46.56-1.28.65-1.82.17l1.06.74Z"/>
  <path class="cls-5" d="m78.8,86.67s5.49-3.04,10.39-.38v1.52h-10.93l.53-1.14Z"/>
  <path class="cls-4" d="m78.28,45.46c-.24.08-.47.23-.63.43-.47.57-1.34,1.76-.69,2.15.86.52,1.51.56,2.28.39.73-.16,7.81-2.24,9.38-7.2.18-.58-.05-1.21-.55-1.56-1.32-.89-4.29-2.33-8.68-1.38-.22.05-.43.15-.6.3-.41.36-1.28.7-1.92.86-.97.25-.25-.35-.25-.35,3.77-3.87,12.54-.4,12.84.55s-1.88,7.63-9.2,9.07c-6.32,1.24-4.18-1.92-3.48-2.8.11-.14.25-.26.4-.35,1.24-.73,2.21-1.14,2.95-1.33,1.71-.44,2.42,2.21.72,2.67-.81.22-1.63.24-2.42.12-2.62-.37-4.84-2.13-4.84-2.13,0,0,.04-.62.43-.54s4.01,2.33,5.09,2.28c0,0,2.03-.33,1.78-1.39s-2.62.19-2.62.19Z"/>
  <path class="cls-7" d="m95.7,113.05s5.96,11.72,6.61,12.97"/>
  <line class="cls-7" x1="105.33" y1="134.76" x2="104.47" y2="133.48"/>
  <path class="cls-7" d="m85.09,167.35s.89,2.65.37,3.51"/>
  <path class="cls-3" d="m63.6,167.57s2.83,4.96,5.55,4.64"/>
  <path class="cls-5" d="m68.3,167.57s5.27,3.67,6.3,3.47c2.13-.42-3.47-3.73-3.47-3.73l.59,1.87-3.42-1.6Z"/>
  <path class="cls-11" d="m91.82,171.06s4.94-6.13,8.47-6.07-3.88,7.24-3.88,7.24c0,0-3.71.41,2.18-4.94,0,0,6.12-4.06,7.18-1,0,0-3.19,5.24-4.94,5.29-3.88.12,3-2.06,3-2.06"/>
  <path class="cls-1" d="m52.28,124.74c.64,0,.64-1,0-1s-.64,1,0,1h0Z"/>
  <path class="cls-1" d="m67.04,134.87c-.13,1.03.31,2.14,1.1,2.81.2.17.42.31.65.44.18.1.4.2.54.34.04.04.09.11.11.12.02.09.03.08.04-.03.04-.1.03-.11-.02-.04-.06.03-.11.13-.14.18-.18.28-.21.62-.14.94.15.63,1.11.36.96-.27-.01-.05,0-.1.02-.14.08-.14.21-.22.26-.38.09-.28,0-.6-.17-.84-.28-.43-.76-.63-1.18-.88-.77-.47-1.14-1.39-1.03-2.26.03-.27-.25-.5-.5-.5-.3,0-.47.23-.5.5h0Z"/>
  <path class="cls-1" d="m70.22,143.97c.64,0,.64-1,0-1s-.64,1,0,1h0Z"/>
  <path class="cls-1" d="m70.17,144.56c.64,0,.64-1,0-1s-.64,1,0,1h0Z"/>
  <path class="cls-1" d="m70.54,144.4c.64,0,.64-1,0-1s-.64,1,0,1h0Z"/>
  <path class="cls-1" d="m70.54,143.55c.64,0,.64-1,0-1s-.64,1,0,1h0Z"/>
  <path class="cls-1" d="m64.09,131.77c.64,0,.64-1,0-1s-.64,1,0,1h0Z"/>
  <path class="cls-1" d="m64.52,131.3c.64,0,.64-1,0-1s-.64,1,0,1h0Z"/>
  <path class="cls-1" d="m64.89,128.34c.34,0,.68,0,1.02,0,.3,0,.58-.13.66-.44.06-.21-.02-.43-.06-.63-.08-.34-.15-.67-.23-1.01s-.17-.67-.34-.97c-.11-.18-.36-.3-.56-.23-.22.07-.35.25-.37.48-.03.36-.06.73-.09,1.09,0,.05-.03.53-.04.53,0,0,.03-.14,0-.01,0,.02-.02.05-.02.07-.01.04,0,.02.02-.05-.02.03-.02.03,0,0,.03-.03.03-.04,0,0,.03-.04.08-.06.12-.08-.25.08-.43.35-.35.62s.35.43.62.35.46-.3.54-.57c.06-.19.06-.41.08-.61.04-.44.07-.88.11-1.32l-.93.25s.04.09.07.13c.02.03.01.02,0-.03.01.03.02.05.03.08.03.08.05.16.07.23.05.18.09.36.13.54.04.19.09.38.13.57.02.09.04.18.06.26,0,.04.02.09.03.13,0,.03.01.06.02.09-.02-.08,0-.16.04-.24l.18-.18c.18-.03.23-.04.14-.04h-.07s-.09,0-.13,0h-.29c-.19,0-.39,0-.58,0-.26,0-.51.23-.5.5s.22.5.5.5h0Z"/>
  <path class="cls-1" d="m64.28,131.21s.02.04.03.05l-.05-.12s.02.06.02.08l-.02-.13s0,.06,0,.1l.02-.13s-.01.07-.03.1l.05-.12s-.03.06-.05.09l.08-.1s-.04.04-.06.06l.1-.08s-.04.03-.07.04l.12-.05s-.05.02-.08.02l.13-.02s-.06,0-.09,0l.13.02s-.07-.01-.1-.03l.12.05s-.06-.03-.09-.05l.1.08s-.05-.05-.08-.08l.08.1s-.04-.05-.05-.08l.05.12s-.02-.05-.02-.08l.02.13s0-.06,0-.09l-.02.13s.01-.06.03-.09l-.05.12s.03-.06.05-.09l-.08.1s.05-.06.08-.08l-.1.08s.06-.04.09-.05l-.12.05s.06-.02.1-.03l-.13.02s.06,0,.09,0c.07,0,.13-.01.19-.04.06-.02.12-.05.16-.1.09-.09.15-.23.15-.35s-.05-.26-.15-.35l-.1-.08c-.08-.05-.16-.07-.25-.07-.16-.02-.32.04-.46.1s-.25.19-.34.31-.13.29-.14.44.04.32.11.45.19.24.32.32.28.12.43.13.31-.04.43-.11.24-.19.31-.31c.08-.14.12-.29.12-.44s-.04-.32-.12-.45c-.07-.11-.17-.19-.3-.23-.07-.02-.13-.02-.2,0-.07,0-.13.02-.19.06-.11.07-.2.17-.23.3s-.02.27.05.39h0Z"/>
  <path class="cls-1" d="m75.63,128.9l.04.69c0,.13,0,.27.04.4.05.18.16.34.32.43.24.14.54.08.73-.11.14-.14.19-.34.2-.53.01-.27-.07-.56-.22-.78-.07-.11-.17-.19-.3-.23-.12-.03-.28-.02-.39.05s-.2.17-.23.3-.02.27.05.39c.03.05.06.1.08.15l-.05-.12c.03.07.05.15.06.23l-.02-.13c0,.06.01.13,0,.19l.02-.13s-.01.06-.02.08l.05-.12s-.01.02-.02.04l.08-.1s-.02.02-.03.03l.1-.08s-.01,0-.02.01l.12-.05s-.02,0-.03,0l.13-.02s-.02,0-.02,0l.13.02s-.02,0-.02,0l.12.05s-.02,0-.03-.02l.1.08s-.02-.02-.02-.03l.08.1s-.02-.03-.03-.04l.05.12s-.02-.07-.03-.11l.02.13c-.02-.14-.02-.29-.03-.44l-.03-.46c0-.13-.05-.26-.15-.35-.09-.09-.23-.15-.35-.15s-.26.05-.35.15-.15.22-.15.35h0Z"/>
  <path class="cls-1" d="m77.88,133.23l-.1.23-.13.08c-.06.02-.14,0-.21,0-.04-.01-.05-.05,0,0,.02.02.04.04.05.06.04.05.08.1.12.15-.03-.04,0-.01,0,.01s.04.05.06.08c.15.21.29.44.4.67.03.06.06.11.08.17.01.03.03.06.04.09,0,0,.04.09.02.05s.02.04.02.05c.01.03.02.06.03.09.02.06.04.12.07.18.04.12.08.24.11.37.02.06.03.12.05.18,0,.03.01.06.02.09,0,.03,0,.03,0,0-.01-.09.02-.18.1-.26h.71c-.09-.1-.18-.2-.26-.31-.05-.06-.1-.12-.14-.18-.02-.03-.04-.05-.06-.08-.05-.07.04.05-.01-.02-.17-.22-.33-.45-.49-.68-.31-.46-.59-.94-.85-1.44-.12-.23-.47-.32-.68-.18-.24.15-.31.43-.18.68.54,1.04,1.2,2.01,1.97,2.9.17.2.53.19.71,0,.34-.37.11-.91-.03-1.33-.13-.38-.29-.75-.48-1.1s-.42-.69-.69-.96c-.2-.2-.48-.32-.76-.25s-.52.35-.51.65c.01.26.22.51.5.5.26-.01.52-.22.5-.5h0Z"/>
  <path class="cls-1" d="m85.51,139.17s0-.02,0-.03l.02.13c-.01-.09-.01-.17,0-.26l-.02.13c.01-.09.04-.18.07-.26l-.05.12c.04-.08.08-.16.14-.24l-.08.1c.05-.07.11-.13.18-.18l-.1.08c.05-.04.11-.07.17-.1.11-.05.2-.19.23-.3.03-.12.02-.28-.05-.39s-.17-.2-.3-.23l-.13-.02c-.09,0-.17.02-.25.07-.14.07-.26.16-.37.27s-.2.23-.27.37-.13.28-.15.42c-.02.09-.03.19-.03.28,0,.1.02.2.03.3.02.12.13.24.23.3.11.06.27.09.39.05s.24-.11.3-.23l.05-.12c.02-.09.02-.18,0-.27h0Z"/>
  <path class="cls-1" d="m88.31,132.54v-.9c0-.13-.06-.26-.15-.35s-.23-.15-.35-.15-.26.05-.35.15-.15.22-.15.35v.9c0,.13.06.26.15.35s.23.15.35.15.26-.05.35-.15.15-.22.15-.35h0Z"/>
  <path class="cls-1" d="m89.33,130c-.15-.11-.04-.68-.05-.83-.01-.2-.05-.4-.13-.58-.05-.1-.1-.19-.18-.28-.05-.05-.16-.23-.13-.08l-.05.39.02-.05-.43.25c.19,0,.6-.01.73.14l-.13-.22c.09.21.01.58,0,.82,0,.28-.03.58.06.85s.31.46.51.66c.17.16.29.34.4.54.47.86.61,1.83,1.27,2.59.43.48,1.13-.23.71-.71-.36-.41-.53-.94-.71-1.44-.21-.55-.43-1.1-.83-1.55-.15-.17-.41-.29-.42-.54,0-.38.03-.76.02-1.14-.01-.4-.2-.66-.58-.81-.33-.13-.69-.19-1.05-.18-.16,0-.36.09-.43.25-.16.36-.04.59.21.85.13.13.12.3.11.48-.02.58.04,1.11.54,1.47.22.16.56.04.68-.18.15-.25.04-.53-.18-.68h0Z"/>
  <path class="cls-1" d="m91.56,136.56c-.26-.29-.5-.59-.74-.9l.08.1c-.05-.06-.09-.12-.14-.18-.03-.06-.07-.11-.13-.14-.05-.04-.1-.07-.17-.09-.12-.03-.28-.02-.39.05s-.2.17-.23.3-.03.28.05.39c.31.41.62.8.96,1.18.08.09.23.15.35.15s.27-.05.35-.15.15-.22.15-.35-.06-.25-.15-.35h0Z"/>
  <path class="cls-1" d="m97.36,141.91c.26-.86-.36-1.56-.97-2.06-.27-.23-.51-.43-.65-.74-.12-.26-.17-.68-.21-.96s-.21-.5-.5-.5c-.25,0-.53.23-.5.5.1.8.24,1.55.84,2.13.25.24.54.44.78.69.09.1.18.23.23.35.06.14.06.19.02.33-.08.26.09.55.35.62.27.07.54-.09.62-.35h0Z"/>
  <path class="cls-1" d="m96.88,135.79c-.44.16-.72.58-.71,1.05s.3.86.59,1.21c.14.17.28.34.45.47.28.22.63.2.9-.03.15-.13.23-.32.32-.49s.19-.34.29-.5c.06-.1.13-.19.19-.28.01-.02.03-.03.04-.05,0,0,.06-.08.03-.04s0-.01.01-.02c.02-.03.04-.06.07-.08.14-.17.29-.34.45-.49.19-.18.2-.52,0-.71s-.51-.2-.71,0c-.31.3-.58.64-.83.99-.11.17-.22.34-.32.51-.05.08-.09.16-.13.25-.02.04-.04.08-.06.13-.01.02-.09.12-.03.07.03-.03.02-.03,0,0,.06-.06.13-.09.22-.08.08,0,.14.02.19.07l-.03-.03c-.07-.08-.15-.16-.22-.24s-.14-.17-.21-.25c-.03-.04-.03-.04,0,0-.01-.02-.02-.03-.04-.05-.03-.04-.06-.08-.08-.12-.02-.04-.04-.07-.06-.11-.02-.05-.02-.05,0,0,0-.03-.02-.05-.03-.08,0-.03-.01-.05-.02-.08v.06s0-.04,0-.07c0-.06,0-.04,0,.03,0,0,.02-.09.02-.1.02-.05.01-.04-.01.03,0-.02.02-.04.03-.06.04-.08-.07.07,0,0-.06.04-.07.05-.03.02.05-.03.04-.02-.03.01.24-.09.44-.34.35-.62-.08-.24-.35-.45-.62-.35h0Z"/>
  <path class="cls-1" d="m97.64,137.37c.64,0,.64-1,0-1s-.64,1,0,1h0Z"/>
  <path class="cls-1" d="m97.69,137.95c.64,0,.64-1,0-1s-.64,1,0,1h0Z"/>
  <path class="cls-1" d="m102.5,128.77c.25,0,.47-.07.69-.18l.1-.08.08-.1.05-.12c.02-.07.02-.13,0-.2,0-.05-.01-.09-.03-.13-.01-.04-.03-.08-.06-.11-.07-.09-.15-.14-.26-.18-.01,0-.02,0-.03-.01l.12.05s-.08-.04-.12-.07l.1.08s-.08-.07-.11-.11l.08.1s-.06-.09-.09-.15l.05.12c-.02-.05-.04-.11-.04-.16l.02.13s0-.1,0-.15l-.02.13s.01-.06.02-.09c.04-.12.01-.28-.05-.39s-.18-.2-.3-.23c-.13-.03-.27-.02-.39.05s-.19.17-.23.3c-.08.28-.03.57.09.82.05.1.13.2.21.28.13.12.25.19.41.24l-.12-.91s-.05.02-.07.03l.12-.05c-.08.04-.17.06-.26.07l.13-.02s-.07,0-.11,0c-.13,0-.26.05-.35.15-.09.09-.15.23-.15.35s.05.26.15.35.22.15.35.15h0Z"/>
  <path class="cls-1" d="m104.27,132.91c.06-.82-.22-1.62-.73-2.25-.07-.09-.24-.15-.35-.15-.12,0-.27.05-.35.15s-.15.22-.15.35c0,.14.06.24.15.35.03.04.03.03-.02-.03.01.02.02.03.04.05.02.03.05.07.07.1.05.07.09.14.13.22.02.04.04.07.05.11v.03s.03.04,0-.03c0,.03.03.09.04.12.01.04.03.08.04.12.02.08.04.16.06.24,0,.03.01.06.02.09,0,.02,0,.04,0,.06-.01-.08-.01-.09,0-.04.01.17.02.33,0,.5-.02.26.24.51.5.5.29-.01.48-.22.5-.5h0Z"/>
  <path class="cls-2" d="m49.56,159.7c.64,0,.64-1,0-1s-.64,1,0,1h0Z"/>
  <path class="cls-2" d="m59.72,155.38c6.68,0,13.36,0,20.04.01.58,0,.66-.81.13-.98-5.08-1.66-10.51-1.76-15.66-.3-.56.16-.42.95.13.98,5.46.36,10.93.51,16.41.45.54,0,.71-.9.13-.98-4.51-.68-8.98,0-13.44.73-.57.09-.41.97.13.98,7.05.13,14.12.17,21.14-.55l-.13-.98c-5.37,1.28-10.91,1.52-16.37.68-.62-.09-.91.82-.27.96,5.46,1.19,10.97.21,16.37-.82l-.39-.91c-1.26.67-2.58.95-4.01.88-.57-.03-.67.84-.13.98,5.04,1.31,10.18.29,15.16-.78l-.27-.96c-2.88,1.01-5.9,1.32-8.92.89l-.13.98c5.45.21,10.68-1.37,15.83-2.98.51-.16.45-1.04-.13-.98-4.6.46-9.2.92-13.8,1.38-.51.05-.74.88-.13.98,3.57.59,7.09.03,10.62-.58l-.27-.96c-2.3.91-4.66,1.34-7.14,1.3-.64-.01-.64.99,0,1,2.55.04,5.03-.4,7.4-1.34.6-.24.37-1.08-.27-.96-3.33.58-6.71,1.13-10.09.58l-.13.98c4.6-.46,9.2-.92,13.8-1.38l-.13-.98c-5.06,1.59-10.2,3.15-15.56,2.95-.55-.02-.7.9-.13.98,3.21.46,6.39.18,9.45-.89.61-.21.37-1.1-.27-.96-4.81,1.03-9.76,2.04-14.63.78l-.13.98c1.6.08,3.1-.26,4.51-1.02.53-.28.15-1.02-.39-.91-5.22,1-10.56,1.98-15.84.82l-.27.96c5.64.86,11.35.64,16.9-.68.54-.13.44-1.04-.13-.98-7.03.72-14.09.68-21.14.55l.13.98c4.26-.71,8.59-1.39,12.91-.73l.13-.98c-5.47.05-10.95-.1-16.41-.45l.13.98c4.98-1.41,10.2-1.3,15.13.3l.13-.98c-6.68,0-13.36,0-20.04-.01-.64,0-.64,1,0,1h0Z"/>
  <path class="cls-2" d="m100.89,154.94c-1.62-.08-3.23-.03-4.84.16-.62.07-.66.98,0,1,2.62.09,5.24-.31,7.71-1.18l-.39-.91c-1.57.7-3.21,1.26-4.88,1.69-.46.12-.49.86,0,.96,2.49.51,4.78-.74,7.23-.84l-.13-.98c-1.25.4-2.52.73-3.81.97-.55.1-.43,1.02.13.98,1.16-.09,2.21-.53,3.08-1.31.33-.3.06-.84-.35-.85l-1.76-.05.35.85c.14-.17.41-.14.61-.2.23-.06.46-.16.66-.29.44-.27.93-.85,1.5-.72.64.14.87-.74.27-.96-.97-.36-1.53.99-.66,1.5.56.32,1.06-.54.5-.86l-.11.33.27-.96c-.8-.18-1.39.21-2.02.65-.31.22-.57.33-.94.41-.31.06-.58.16-.79.41-.27.33-.1.84.35.85l1.76.05-.35-.85c-.66.6-1.48.95-2.37,1.02l.13.98c1.29-.25,2.56-.57,3.81-.97.52-.17.45-1.01-.13-.98-2.33.09-4.63,1.36-6.97.88v.96c1.76-.45,3.46-1.05,5.12-1.79.51-.23.15-1.1-.39-.91-2.4.84-4.9,1.23-7.44,1.14v1c1.61-.19,3.22-.24,4.84-.16.64.03.64-.97,0-1h0Z"/>
  <path class="cls-2" d="m87.81,154.7h-3.65c-.66,0-.63.94,0,1.01,5.19.55,10.4.49,15.57-.16l-.13-.98c-5.44,1.22-11.01.66-16.49.08l.13.98c3.11-.45,6.24-.69,9.39-.72.65,0,.63-.95,0-1-2.86-.23-5.72-.47-8.58-.7-1.92-.16-4.34-.75-5.89.73-.25.24-.16.61.1.79.81.56,1.89.53,2.84.63,1.44.16,2.89.34,4.33.49,2.66.27,5-1.07,7.69-.86l-.13-.98c-3.21.48-6.59.72-9.69,1.76-.47.16-.48.81,0,.96,3.02.96,6.19.89,9.16-.2.5-.19.47-1-.13-.98-4.61.1-9.19.54-13.73,1.33-2.39.41-4.59.62-6.99.18-2.16-.4-4.26-.96-6.48-.91-.54.01-.71.88-.13.98,5.13.93,10.34.84,15.53.71l-.13-.98c-5.34.86-10.77.71-16.06-.44l-.13.98c3.89-.07,7.39-2.21,11.29-2.13l-.35-.85c-2.07,2.61-5.56,1.85-8.35,1.14l-.13.98c3.26.42,6.51.84,9.77,1.26v-1c-2.57.03-5.15.05-7.71.26-1.16.09-2.33.23-3.48.41-1.26.2-2.57.55-3.76-.11l-.25.93c2.92.04,5.91-.07,8.81.27s5.54.75,8.41.65c2.67-.09,5.33-.34,7.96-.74,1.42-.21,2.82-.47,4.22-.77.7-.15,1.4-.31,2.09-.49.74-.18,1.91-.73,2.66-.41l.12-.91c-4.79,1.76-9.9,1.38-14.89.95-.58-.05-.65.82-.13.98,2.42.75,4.92.66,7.4.23,1.33-.23,2.64-.55,3.95-.85.7-.16,1.4-.31,2.11-.44.78-.14,2.05-.56,2.79-.09l.12-.91c-2.69.68-5.42,1.15-8.18,1.4-.65.06-.64.93,0,1,2.01.21,4.03.19,6.03-.12,1.05-.16,2.08-.4,3.11-.7s2.15-.72,3.19-.16l.12-.91c-2.77.46-5.56.71-8.37.78-.55.01-.7.85-.13.98,1.98.46,4.01.53,6.01.11,2.25-.47,4.49-1.89,6.82-1.12l.13-.98c-2,.21-4,.42-6,.63l.13.98.7-.24c.54-.19.44-.94-.13-.98-2.22-.16-4.44-.33-6.66-.49l.13.98c4.51-.79,9.03-1.58,13.54-2.37.63-.11.36-1.07-.27-.96-4.51.79-9.03,1.58-13.54,2.37-.59.1-.4.94.13.98,2.22.16,4.44.33,6.66.49l-.13-.98-.7.24c-.5.17-.46,1.04.13.98,2-.21,4-.42,6-.63.55-.06.69-.8.13-.98-1.95-.65-3.79.05-5.66.64-2.37.76-4.74.93-7.18.36l-.13.98c2.9-.06,5.77-.34,8.63-.81.43-.07.48-.72.12-.91-1.72-.93-3.54,0-5.28.41-2.48.58-5.03.7-7.56.43v1c2.85-.26,5.67-.73,8.44-1.44.43-.11.47-.69.12-.91-.86-.55-1.9-.29-2.85-.14-1.5.24-2.97.6-4.45.94-3.04.68-6.14,1.19-9.18.24l-.13.98c5.07.43,10.28.8,15.16-.99.35-.13.55-.73.12-.91-.95-.41-1.76-.12-2.73.13-1.46.38-2.94.71-4.42,1-3.08.59-6.2.96-9.33,1.1s-5.86-.15-8.83-.55-6.24-.29-9.34-.34c-.49,0-.68.69-.25.93,2.01,1.13,4.65.14,6.78-.07,2.88-.29,5.78-.32,8.67-.35.66,0,.62-.92,0-1-3.26-.42-6.51-.84-9.77-1.26-.57-.07-.67.84-.13.98,3.13.8,7.03,1.51,9.32-1.39.26-.33.11-.84-.35-.85-3.91-.08-7.4,2.06-11.29,2.13-.55,0-.7.86-.13.98,5.47,1.18,11.06,1.33,16.59.44.56-.09.42-1-.13-.98-5.1.13-10.22.25-15.26-.67l-.13.98c2.43-.05,4.73.67,7.12,1.03,1.94.29,3.79.16,5.72-.17,4.76-.82,9.53-1.35,14.36-1.45l-.13-.98c-2.81,1.04-5.77,1.11-8.63.2v.96c3.09-1.04,6.47-1.28,9.69-1.76.59-.09.39-.94-.13-.98-1.07-.09-2.14-.05-3.2.17-1.24.25-2.35.81-3.65.76-1.19-.05-2.39-.24-3.57-.38s-2.98,0-3.94-.68l.1.79c.82-.78,1.93-.69,2.98-.62,1.23.08,2.45.2,3.68.3,2.37.19,4.74.39,7.11.58v-1c-3.24.03-6.45.29-9.66.76-.6.09-.38.93.13.98,5.58.59,11.22,1.13,16.76-.11.54-.12.43-1.05-.13-.98-5.17.66-10.39.71-15.57.16v1h3.65c.64,0,.64-1.01,0-1.01h0Z"/>
  <g>
    <circle class="cls-8" cx="83.19" cy="109.14" r="3.31"/>
    <path class="cls-8" d="m79.56,110.3s-5.81,3.73-5.38,1.09,1.14-2.74,1.14-2.74c0,0-.83-.92-.47-2.59s5.47,1.49,5.47,1.49l-.75,2.75Z"/>
    <path class="cls-8" d="m86.97,110.19s5.81,3.73,5.38,1.09-1.14-2.74-1.14-2.74c0,0,.83-.92.47-2.59s-5.47,1.49-5.47,1.49l.75,2.75Z"/>
  </g>
</svg>