<?xml version="1.0" encoding="UTF-8"?>
<svg id="Layer_1" data-name="Layer 1" xmlns="http://www.w3.org/2000/svg" viewBox="0 0 152.79 217.48">
  <defs>
    <style>
      .cls-1, .cls-2 {
        fill: #ffce07;
      }

      .cls-1, .cls-2, .cls-3 {
        stroke: #231f20;
        stroke-miterlimit: 10;
      }

      .cls-1, .cls-3 {
        stroke-width: 2px;
      }

      .cls-3 {
        fill: none;
      }
    </style>
  </defs>
  <path class="cls-1" d="m9.71,118.8s9.32-64.31,12.86-69.27l107.37,1.18s16.79,64.07,16.79,68.09H9.71Z"/>
  <polygon class="cls-1" points="14.31 126.13 10.49 120.68 146.09 120.68 143.79 125.25 14.31 126.13"/>
  <polygon class="cls-2" points="33.82 166.8 36.39 126.13 124.8 125.13 127.37 166.8 33.82 166.8"/>
  <path class="cls-3" d="m42.82,152.38s28.29-.71,33.43,0,27-1.65,29.58,0,16.72.14,16.72.14"/>
  <path class="cls-3" d="m39.29,138.9s37.29-.47,41.31,0,18.49,0,18.49,0l17.68.21"/>
  <path class="cls-3" d="m20,95.63s32.47,1.18,39.86,1.65,25.72-.95,28.93,0,18.65-.04,22.18.1,14.79-.87,19.93-.72"/>
  <path class="cls-3" d="m24.82,71.28s29.9-6.86,44.04,0l28.93-1.52,6.43,1.52s0-.92,6.43-1.52,12.54.37,15.43,0"/>
</svg>