<?xml version="1.0" encoding="UTF-8"?>
<svg id="Layer_1" data-name="Layer 1" xmlns="http://www.w3.org/2000/svg" viewBox="0 0 150.56 217.28">
  <defs>
    <style>
      .cls-1 {
        stroke-width: 3px;
      }

      .cls-1, .cls-2, .cls-3, .cls-4, .cls-5, .cls-6 {
        stroke-miterlimit: 10;
      }

      .cls-1, .cls-4, .cls-6 {
        stroke: #ec008c;
      }

      .cls-1, .cls-5, .cls-6 {
        fill: none;
      }

      .cls-2, .cls-3, .cls-5 {
        stroke: #000;
      }

      .cls-3 {
        fill: #fff;
      }

      .cls-4 {
        fill: #de66a6;
      }
    </style>
  </defs>
  <path class="cls-3" d="m53.58,52.51c1.53.14,16.02,1.21,24.58-6.77,5.27-4.91,12.48-7.21,19.51-5.67,8.95,1.96,19.25,7.4,22.91,21.65.02.09.04.18.05.27.29,2.74,4.49,45.97-17.64,41.17,0,0-16.25-2.16-3.85-34.42,0,0-6.96,19.38-6.24,28.17.06.75-.38,1.45-1.06,1.77-2.3,1.11-7.16,4.55-9,14.24-.03.17-.04.35-.02.53.21,2.03,1.69,15,5.65,19.12.06.06.11.12.16.19.82,1.2,8.26,12.37,4.7,18.57,0,0-2.18,5.59-5.55,5.48-1.26-.04-2.96.09-4.54-.51-2.65-1-4.99-4.02-4.43-13.29l.79-7.85s-2.36,18.29-.11,19.97c1.64,1.23,5.49,2.4,7.45,2.94.72.2,1.24.83,1.3,1.57.12,1.56.31,4.11.23,5.02-.11,1.35,12.68,2.69,12.23,4.82,0,0,3.25,5.61.45,5.61s-7.07.45-12.34,1.8-31.6-.85-33.45-1c-.07,0-.13,0-.2,0-.82.02-6.64.17-8.21-.56-1.68-.79-3.03-5.5,0-7.85s3.7-2.02,3.7-2.02l1.69.23c.5.07,1-.08,1.39-.4l.91-.76c.32-.27.73-.42,1.15-.42h3.77c.12,0,.24-.01.36-.04l4.03-.83c.11-.02.22-.03.33-.04l5.95-.08c.84-.01,1.57-.6,1.71-1.43.1-.58.33-1.37.81-2.4.14-.3.2-.64.17-.98v-.08c-.1-.8-.7-1.43-1.49-1.57-2.84-.52-9.2-2.93-8.33-14.22,0,0,.64-15.78,7.81-20.04.32-.19.59-.46.75-.8.82-1.75,3.22-7.47,2.11-12.89-.08-.39-.3-.73-.6-.98-1.87-1.59-9.13-7.23-18.38-7.13,0,0-24.38-.11-25.91-14.85,0-.05,0-.1-.01-.15-.06-1.66-.72-31.54,24.43-33.1.09,0,.19,0,.28,0Z"/>
  <path class="cls-3" d="m80.94,159.18l-.35,7.77s-13.9-3.71-21.32,1.21c0,0-5.18,1.21-4.57,4.06,0,0-.57,3.27.99,3.71s5.05,0,5.05,0c0,0-.57-3.93,1.96-3.66"/>
  <path class="cls-3" d="m66.85,176.93s-.3-4.45,3.24-3.32"/>
  <path class="cls-3" d="m49.13,176.12s-.3-7.74,3.24-5.76"/>
  <path class="cls-3" d="m59.91,101.12s12.87-.68,20.1-8.91c0,0-.68-1.24,1-3.66s.79-4.05.79-4.05"/>
  <path class="cls-2" d="m70.64,70.77s-1.37-7.48,0-7.76,1.25,0,1.25,0c0,0,1.97,2.76,1.8,7.76,0,0-.28,1.91-1.52,1.74s-1.54-1.74-1.54-1.74Z"/>
  <path d="m80.31,107c-2.8-.06-5.95-.2-8.61.84-1.39.54-2.55,1.78-2.2,3.38.29,1.32,1.45,2.09,2.73,2.29,2.81.44,5.84-.53,8.47-1.43,2.88-.98,5.75-1.99,8.63-2.99,2.09-.73,1.57-3.43-.5-3.68-4.36-.54-8.7.22-12.7,2.01-.92.41-1.14,1.76-.67,2.57.56.95,1.64,1.09,2.57.67,3.39-1.51,7.14-1.95,10.8-1.49l-.5-3.68c-2.14.74-4.28,1.48-6.42,2.23s-4.12,1.49-6.26,1.91c-.47.09-.94.16-1.41.2-.21.02-.43.03-.64.03-.06,0-.7.04-.58.02-.15.03-.15-.05-.18,0,.03-.05.15,1.54.11,1.51.05.03.75-.22.96-.26,2.09-.47,4.28-.39,6.41-.35,2.41.05,2.41-3.7,0-3.75h0Z"/>
  <path d="m105.3,97.99c2.96.36,5.27-1.9,6.55-4.32,1.48-2.79,2.81-5.72,4.07-8.61s2.08-5.83,2.31-8.96.09-6.63-1.47-9.3c-.69-1.17-2.57-1.26-3.24,0-1.54,2.93-.83,6.38-.89,9.56-.03,1.61-.14,3.21-.43,4.79-.15.79-.34,1.58-.57,2.35-.13.42-.27.84-.43,1.25l-.15.37c-.26.41-.19.42.22.04h1c-.4-.06-.83-.76-1.05-1.08l-2.12,2.75c3.67,1.01,7.53-2.18,6.12-6.05s-6.76-3.56-8.16,0c-.62,1.59-.27,3.48.84,4.77.23.27.5.56.81.74.44.37.39.2-.16-.51-.05.3-.1.6-.15.89-.19,1.04-.43,2.07-.71,3.08-.26.94-.51,1.94-.91,2.83-.35.76-1.25.95-2,1.18-.62.19-1.48.48-2.09.11-.68-.42-.93-1.52-1.59-2.05-1.05-.85-2.75-.65-3.13.83s-.54,3,.21,4.35,2.18,1.97,3.62,1.98c2.41.02,6.6-2.55,5.4-5.41-.51-1.22-2.1-2.19-3.41-2.13-1.56.07-2.82,1.5-2.47,3.07.85,3.75,5.56,1.78,7.46.25.75-.6.71-2.05,0-2.65-1.36-1.15-3.14-1.22-4.46.06-.83.8-.7,2.4.38,2.94,3.52,1.78,5.23-4.03,5.6-6.52.25-1.7-.49-3.27-2.32-3.49-1.48-.17-3.1.48-4.25,1.38-2.28,1.79-2.82,5.71-.1,7.43,3.54,2.25,5.78-2.66,6.31-5.41l-3.68-.5c0,.34-.18,3.83-.07,3.86.66-.41.79-.59.38-.54-.16-.03-.31-.08-.45-.16-.43-.17-.83-.52-1.18-.81l-.38,2.94c2.6-1.4,6.1-2.81,5.39-6.39-.31-1.6-2.68-1.8-3.43-.45-1.41,2.56-1.81,5.35-1.27,8.21.37,1.92,3.1,1.64,3.62,0,.67-2.12,1.16-4.28,1.49-6.48.3-2.02-2.21-3.35-3.43-1.44-.8,1.26-1.6,2.52-2.4,3.77-.27.42-1.27,2.53-1.97,2.44,0,0-.24-.63-.32-.89-.2-.68-.39-1.36-.55-2.05-.36-1.52-.61-3.06-.76-4.62-.09-.93-.65-1.72-1.63-1.84-.83-.1-1.92.41-2.06,1.34-.3,2.04-.19,4.03.58,5.96.67,1.68,2.02,4.33,4.24,3.71,2.09-.59,2.38-3.64,2.62-5.42.28-2.04.76-4.77-1.21-6.1-.84-.57-2.08-.16-2.57.67-1.54,2.62-2.35,5.54-2.38,8.58-.02,2.24,2.96,2.38,3.68.5,1.47-3.83.83-7.9.71-11.88-.06-1.89-.03-3.72.73-5.47.43-.99.89-1.97,1.33-2.95.19-.42.37-.85.57-1.27.09-.2.19-.39.3-.58.1-.17.12-.17.07,0l-2.37-1.81c.02.55-.03,1.01-.18,1.54-.45,1.62,1.34,2.89,2.75,2.12.22-.12.43-.23.65-.35,1.87-1.01.6-4.03-1.44-3.43-.62.18-1.22.43-1.8.73-1.98,1.02-.54,3.82,1.44,3.43,1.27-.25,2.74-.48,3.43-1.7.51-.89.51-1.68,1.25-2.46.65-.68,1.39-1.27,2.02-1.97.38-.41.75-.87,1.04-1.35.1-.17.19-.35.28-.53.09-.19.17-.39.24-.59.18-.39-.02-.25-.58.42l-1.44-.19c-.25-.27-.31-.26-.17.02.07.21.13.42.19.64.07.27.05.88.2,1.06-.01.32.08.27.26-.16.34-.38.34-.45-.02-.22-.26.05-.55.28-.76.41-1.1.65-2.11,1.52-2.67,2.68-.71,1.48-.2,2.87-.3,4.42-.1,1.45-.45,2.8.07,4.22,1.02,2.77,4.37,3.47,6.38,1.26,1.02-1.13,1.32-2.65,1.53-4.11.25-1.71.35-3.42.29-5.16-.07-2.09-3.09-2.58-3.68-.5s-1.16,4.18-1.78,6.25c-.33,1.11-.6,1.16-1.55,1.7-.72.41-1.36.95-1.89,1.59-2.28,2.77-2.07,6.55-4.05,9.43l3.49.95c-.32-2.84-.01-5.57.95-8.26.71-1.98-2.57-3.4-3.43-1.44s-1.86,3.78-3.04,5.54l3.43.45c-.06-.35-.04-.7-.03-1.06.04-.87-.62-1.54-1.38-1.81-.33-.12-.67-.15-1.02-.18l1.81,1.38-.02-.14-.26.95c.2-.47.77-.66,1.16-1.01.51-.46.88-1.03,1.16-1.65.52-1.16.63-2.42,1.02-3.63.86-2.67,2.59-4.96,3.14-7.76l-3.68-.5c-.27,2.2-.48,4.42-.61,6.63-.1,1.67-.73,4.34.74,5.59.83.71,2.4.8,2.94-.38.58-1.26,1.03-2.53,1.27-3.89.33-1.84-1.67-3.11-3.13-1.82-2.18,1.92-3.97,5.07-3.71,8.06.12,1.44.91,3,2.44,3.35,1.99.45,2.92-1.67,3.75-3.04l-2.94.38c1.54,1.67,4.06,2,6,.83l-2.75-2.12c-1.16,2.88-3.92,4.69-6.92,5.1l2.31,1.31c-1.05-4.2,1.4-8.37,2.39-12.36.58-2.34-3.03-3.34-3.62-1-1.19,4.79-3.65,9.29-2.39,14.35.27,1.08,1.32,1.44,2.31,1.31,4.38-.6,7.92-3.69,9.54-7.72.63-1.56-1.45-2.9-2.75-2.12-.55.33-1.02.23-1.45-.24-.83-.91-2.34-.61-2.94.38-.21.35-.42.7-.63,1.04l-.25.42c-.26.36-.13.31.38-.14h1c.46.11.21.46.29-.08.03-.21.01-.43.04-.64.08-.57.28-1.17.51-1.69.48-1.08,1.2-1.95,2.08-2.73l-3.13-1.82c-.19,1.04-.45,2.04-.89,3l2.94-.38c.17.48.24.53.21.16,0-.24.02-.48.03-.71.02-.4.03-.79.05-1.19.04-.87.1-1.74.16-2.61.13-1.74.31-3.48.51-5.21.25-2.09-3.27-2.56-3.68-.5-.59,2.97-2.54,5.42-3.31,8.33-.26.99-.25,2.37-1.08,3.05-1.22,1-2.46,2.08-1.81,3.84.31.85.92,1.29,1.81,1.38l.03.05-1.38-1.81c-.03.7.05,1.36.16,2.05.29,1.72,2.61,1.66,3.43.45,1.18-1.76,2.19-3.6,3.04-5.54l-3.43-1.44c-1.06,2.96-1.44,6.13-1.09,9.26.21,1.84,2.39,2.56,3.49.95s1.57-3.39,2.07-5.2c.4-1.47.84-3.23,2.11-4.21.67-.52,1.51-.73,2.15-1.32.73-.67,1.12-1.59,1.42-2.51.72-2.18,1.26-4.43,1.89-6.63l-3.68-.5c.07,1.95.17,4.4-.58,6.25-.1.25-.2.45-.42.63.17-.13.19.27.08-.1-.23-.76-.03-1.55.07-2.32.13-1.03-.22-2.09-.09-3.07.08-.61.47-.94.97-1.27.62-.42,1.39-.65,1.94-1.19.7-.69.82-1.59.72-2.51-.17-1.55-.48-3.94-2.05-4.71-.93-.46-2.01-.24-2.7.52-.53.58-.64,1.36-1.09,1.98-.76,1.04-1.89,1.77-2.72,2.76-.54.63-.98,1.3-1.27,2.09-.06.14-.1.28-.14.43-.12.32.04.26.46-.17-.04.16-1.48.36-1.67.4l1.44,3.43c.32-.16.56-.25.9-.35l-1.44-3.43c-.22.12-.43.23-.65.35l2.75,2.12c.23-.83.34-1.67.31-2.53-.04-1.32-1.16-2-2.37-1.81-2.23.35-2.96,3.09-3.74,4.84-.96,2.14-1.81,4.05-1.97,6.42-.31,4.5,1.07,9.17-.6,13.51l3.68.5c.02-2.39.65-4.63,1.87-6.69l-2.57.67c-.4-.78-.54-.83-.44-.15,0,.31,0,.61-.01.92-.02.53-.06,1.06-.14,1.59s-.18,1.05-.31,1.56c-.07.3-.15.6-.24.89-.29.66-.12.62.5-.11h1c.33.22.34.15.03-.2-.14-.22-.27-.44-.39-.67-.23-.44-.39-.88-.52-1.36-.25-.92-.34-1.91-.2-2.86l-3.68-.5c.23,2.36.61,4.7,1.25,6.99.5,1.81,1.21,3.79,3.28,4.23s3.71-.78,4.83-2.31c1.32-1.8,2.44-3.78,3.64-5.66l-3.43-1.44c-.33,2.2-.82,4.35-1.49,6.48h3.62c-.35-1.84-.01-3.69.89-5.32l-3.43-.45c.09.44-3.25,1.93-3.67,2.16-.98.53-1.31,2.19-.38,2.94,1.63,1.32,3.8,2.77,5.95,1.72,2.38-1.16,1.73-4.53,1.77-6.72.04-2.07-3.28-2.61-3.68-.5-.12.6-.26,1.2-.49,1.77-.09.21-.92,1.58-.9,1.6l.73-.1-.06-.08c.03-.08-.11-.23-.08-.35.09-.36.09-.54.4-.84.29-.27.66-.44,1.03-.56.54-.18.63.02.08-.54-.6-.6-.41-.34-.53.2-.13.6-.31,1.21-.54,1.78-.12.3-.26.58-.41.87-.06.11-.46.63-.16.55l1.44.19-.24-.12.38,2.94-.84-.06v-2.65c-.29.24-.64.43-.98.58-.15.07-.31.12-.48.16-.61.04-.52.27.27.66v1c-.77.92-1.17,1.12-1.21.59v-1c-.11.46-1.47,1.18-1.94,1.12-.76-.1-.35-1.05-.21-1.58l-3.13.83c.56.45.76,1.18,1.24,1.72s1.09.95,1.78,1.21c1.54.6,3.19.37,4.71-.17,1.43-.5,2.86-1.06,3.67-2.44s1.24-3.15,1.64-4.71c.38-1.48.96-3.27.82-4.8-.08-.85-.54-1.36-1.16-1.88-.34-.28-.63-.44-.64-.94-.01-.61.8-1.01,1.15-.54.75,1-.9,1.45-1.55,1.27-1.51-.41-3.05,1.36-2.12,2.75,1.14,1.71,3.3,4,5.42,2.23,1.54-1.29,2.05-4.17,2.41-6.05.43-2.28.58-4.59.58-6.91,0-2.03-.61-4.69.37-6.55h-3.24c1.18,2.02,1.11,4.91.97,7.18-.16,2.52-.82,4.98-1.81,7.3s-2.17,4.64-3.26,6.95c-.82,1.73-1.78,4.42-4.12,4.13-1.01-.12-1.88.95-1.88,1.88,0,1.12.87,1.75,1.88,1.88h0Z"/>
  <path d="m109.63,69.19l-.03,6.6c0,.94.72,1.72,1.63,1.84.83.11,1.92-.42,2.06-1.34.23-1.59.6-3.16,1.11-4.68.31-.93-.36-2.09-1.31-2.31-1.03-.24-1.98.31-2.31,1.31-.51,1.53-.88,3.09-1.11,4.68l3.68.5.03-6.6c0-.98-.87-1.92-1.88-1.88s-1.87.82-1.88,1.88h0Z"/>
  <path d="m81.51,154.77c-.07-.04-.13-.09-.2-.14-.08-.05.11.09,0,0-.03-.02-.06-.05-.08-.07-.13-.11-.25-.23-.37-.35-.05-.06-.11-.12-.16-.18-.09-.11.05.08,0,0-.02-.03-.04-.06-.06-.09-.1-.14-.19-.28-.27-.43-.04-.07-.07-.14-.11-.22-.02-.03-.03-.07-.04-.1-.04-.08.05.14,0,0-.06-.15-.11-.3-.15-.46-.02-.09-.04-.17-.06-.26,0-.04-.01-.07-.02-.11,0-.03-.03-.18-.01-.06.01.11,0-.01,0-.03,0-.04,0-.09-.01-.13,0-.09,0-.18,0-.27,0-.39-.34-.77-.75-.75s-.75.33-.75.75c.01,1.68.89,3.26,2.29,4.18.33.22.84.08,1.03-.27.2-.38.08-.8-.27-1.03h0Z"/>
  <path d="m78.69,135.31c-.3,2.43-.42,4.88-.45,7.33-.03,2.31-.15,4.67.1,6.97.39,3.71,2.58,6.8,6.22,7.92.92.28,1.32-1.16.4-1.45-1.62-.5-3.03-1.52-3.95-2.95-1.04-1.61-1.23-3.51-1.27-5.39-.08-4.14-.05-8.32.46-12.43.12-.96-1.38-.95-1.5,0h0Z"/>
  <path d="m85.15,151.3c0,1.2.53,2.29,1.28,3.19s1.75,1.56,2.72,2.2c.33.22.84.07,1.03-.27.2-.38.08-.79-.27-1.03-.86-.57-1.62-1.07-2.31-1.85-.25-.28-.51-.66-.7-1.09-.05-.12.03.08-.02-.04-.02-.06-.05-.12-.07-.18-.04-.11-.07-.22-.1-.34-.01-.05-.02-.1-.03-.15,0-.04-.03-.17-.01-.07-.01-.13-.02-.26-.02-.39,0-.39-.35-.77-.75-.75s-.75.33-.75.75h0Z"/>
  <path d="m88.2,150.07c1.11,1.47,2.78,2.39,4.63,2.49.39.02.77-.36.75-.75-.02-.42-.33-.73-.75-.75-.09,0-.19-.01-.28-.02-.02,0-.15-.02-.05,0,.11.02-.06-.01-.08-.01-.17-.03-.35-.07-.52-.12-.18-.05-.36-.11-.53-.18-.02,0-.14-.06-.05-.02.09.04-.06-.03-.08-.04-.08-.04-.17-.08-.25-.13-.16-.08-.31-.17-.45-.27-.08-.05-.15-.11-.23-.16-.09-.06.09.07,0,0-.04-.03-.08-.07-.12-.1-.13-.11-.26-.23-.39-.36-.06-.07-.13-.14-.19-.21-.03-.04-.07-.08-.1-.12-.02-.03-.11-.14-.02-.02-.24-.31-.66-.51-1.03-.27-.31.2-.52.69-.27,1.03h0Z"/>
  <path d="m88.55,134.63c.54,2,1.4,3.93,2.57,5.65.28.41.61.8.85,1.23s.31.96.39,1.47c.17,1.11.46,2.19.86,3.25.34.89,1.79.51,1.45-.4-.39-1.02-.67-2.07-.84-3.14-.09-.54-.16-1.07-.38-1.58-.2-.46-.5-.84-.79-1.25-1.22-1.71-2.1-3.6-2.65-5.63-.25-.93-1.7-.54-1.45.4h0Z"/>
  <path d="m56.47,175.33c-.93-1.61-1.8-3.57.06-4.85,1.23-.85,2.75-1.36,4.1-1.98,1.58-.72,3.17-1.58,4.88-1.92s3.72-.26,5.53-.17,3.64.32,5.43.68c.85.17,1.7.37,2.54.58.59.15,1.17.36,1.78.17,1.19-.38,1.17-1.85,1.28-2.88.2-1.87.19-3.74.01-5.6-.09-.95-1.59-.96-1.5,0,.18,1.95.19,3.9-.04,5.85-.08.65.08,1.2-.67,1.15-.42-.03-.97-.26-1.37-.36-.92-.22-1.85-.41-2.78-.56-3.34-.56-7.02-.94-10.38-.33-1.62.29-3.11,1.04-4.6,1.72s-3.2,1.31-4.66,2.18c-1.1.66-1.98,1.6-2.17,2.91-.21,1.5.55,2.92,1.27,4.18.48.84,1.78.08,1.3-.76h0Z"/>
  <path d="m45.92,174.63c2.77,1.13,5.78,1.63,8.77,1.48v-1.5c-1.88.22-3.78.12-5.66-.07-.73-.07-1.46-.06-1.99-.62s-.73-1.39-.92-2.14c-.23-.94-1.68-.54-1.45.4s.51,1.84,1.12,2.59,1.42,1.07,2.35,1.18c2.16.25,4.37.41,6.54.16.4-.05.75-.31.75-.75,0-.39-.34-.77-.75-.75-2.87.15-5.71-.33-8.37-1.42-.38-.15-.82.17-.92.52-.12.43.15.77.52.92h0Z"/>
  <path d="m55.49,176.18c8.02.7,16.06,1.59,24.12,1.65,3.78.03,7.81.1,11.5-.82.87-.21,1.7-.56,2.58-.71,1.01-.18,2.06-.08,3.08-.14,1.92-.11,3.77-.63,5.61-1.16.93-.27.53-1.72-.4-1.45-1.87.54-3.72,1.06-5.68,1.13-1.84.06-3.36.28-5.13.77-3.83,1.05-8.11.93-12.05.88-7.9-.09-15.77-.96-23.63-1.65-.96-.08-.96,1.42,0,1.5h0Z"/>
  <path d="m93.66,86.91c-.39,7.16,3.74,14.19,10.2,17.32l.58-1.37c-3.22-.71-5.85-2.79-7.3-5.75l-1.3.76c3.55,5.61,12.58,10.07,17.93,4.21,2.53-2.77,4.15-6.53,5.46-10,1.39-3.71,2.3-7.59,2.79-11.52s.56-8.25.18-12.36c-.35-3.82-.84-7.93-2.55-11.41-.88-1.8-2.21-3.29-3.49-4.8-1.37-1.61-2.46-3.44-3.85-5.02-2.52-2.85-5.99-4.61-9.42-6.12-4.1-1.81-8.73-4.05-13.31-2.78-2.25.62-4.32,1.96-6.28,3.2-2.08,1.32-4.06,2.77-5.97,4.32-.75.61.32,1.66,1.06,1.06,3.02-2.45,6.32-4.81,9.85-6.48,4.01-1.9,8.12-.49,11.96,1.15,3.16,1.35,6.46,2.72,9.15,4.91,1.44,1.18,2.55,2.59,3.62,4.1,1,1.41,2.12,2.7,3.22,4.03,2.5,3.01,3.44,6.44,4.04,10.24s.8,7.38.67,11.09c-.26,7.22-1.94,14.44-5.3,20.86-1.88,3.58-4.24,7.2-8.81,6.76-3.97-.38-7.56-2.86-9.66-6.18-.52-.82-1.72-.11-1.3.76,1.61,3.28,4.63,5.65,8.2,6.44.79.17,1.38-.98.58-1.37-6.02-2.92-9.82-9.34-9.45-16.02.05-.96-1.45-.96-1.5,0h0Z"/>
  <path d="m73.18,107.33c-3.37-2.11-6.91-3.93-10.6-5.43-1.81-.74-3.67-1.49-5.58-1.93s-4.04-.34-6.05-.61c-4.15-.55-8.36-1.97-12.25-3.48-3.47-1.35-7.05-3.59-8.09-7.4-.55-2.02-.52-4.21-.59-6.29s-.08-4.39.27-6.55c.34-2.05,1.07-3.93,1.87-5.84.85-2.04,1.7-4.09,2.7-6.06.84-1.64,1.8-3.25,3.11-4.56,1.47-1.46,3.33-2.4,5.24-3.15,3.97-1.57,7.85-2.79,12.14-2.83,4.51-.05,8.86-1.14,13.19-2.3,4.05-1.08,8.06-2.51,11.41-5.08.76-.58,0-1.88-.76-1.3-3.27,2.5-7.12,3.88-11.06,4.93-4.29,1.15-8.56,2.2-13.02,2.25s-8.16,1.27-12.12,2.81c-3.66,1.42-6.53,3.45-8.56,6.86-1.06,1.79-1.9,3.71-2.72,5.62s-1.77,3.94-2.37,6c-1.2,4.06-.97,8.47-.68,12.64.26,3.75,1.62,6.77,4.65,9.07,3.25,2.46,7.44,3.57,11.28,4.73,2.35.71,4.74,1.31,7.2,1.54,1.3.12,2.61.08,3.9.28,1.21.19,2.38.59,3.52.99,4.62,1.63,9.04,3.8,13.19,6.4.82.51,1.57-.78.76-1.3h0Z"/>
  <path d="m32.49,91.85c-.19-2.91-1.7-5.57-1.64-8.5.07-3.16.94-6.45,1.56-9.54,1.02-5.09,1.97-11.42,6.2-14.93l-1.18-.91c-2.08,3.28-4.16,6.59-5.64,10.2s-2.06,7.53-2.37,11.48c-.15,1.96-.15,3.97.38,5.88.49,1.73,1.39,3.3,2.4,4.77,2.06,2.99,4.37,5.94,7.4,7.99.73.5,1.46-.57.91-1.18-2.73-3.03-5.8-5.72-9.15-8.04-.7-.49-1.53.61-.91,1.18,1.8,1.64,3.59,3.29,5.39,4.93l.91-1.18c-1.37-.81-2.66-1.71-3.9-2.71-.74-.6-1.72.33-1.06,1.06l2.09,2.3c.56.62,1.68-.21,1.18-.91-4.05-5.72-5.32-13.02-3.41-19.76.26-.93-1.18-1.33-1.45-.4-2.02,7.1-.71,14.89,3.56,20.92l1.18-.91-2.09-2.3-1.06,1.06c1.33,1.08,2.72,2.07,4.2,2.94.72.43,1.55-.59.91-1.18l-5.39-4.93-.91,1.18c3.25,2.25,6.2,4.87,8.85,7.81l.91-1.18c-2.91-1.98-5.17-4.91-7.11-7.81-.97-1.45-1.8-3-2.17-4.72-.4-1.88-.27-3.84-.09-5.73.36-3.76.97-7.32,2.5-10.79,1.43-3.23,3.33-6.23,5.22-9.21.48-.76-.56-1.42-1.18-.91-4.34,3.6-5.43,9.9-6.49,15.12-.63,3.11-1.36,6.28-1.65,9.44-.31,3.35,1.37,6.2,1.59,9.47.06.96,1.56.97,1.5,0h0Z"/>
  <path d="m96.99,68.74c-1.47,4.65-3.19,9.31-4.31,14.06s-1.19,9.66-1.03,14.51l.93-1.62c-1.85,1.33-3.49,2.84-4.88,4.64-1.13,1.46-1.95,3.79-3.66,4.63-2.17,1.06-.27,4.3,1.89,3.24,2.76-1.36,3.84-4.78,5.88-6.94.55-.58,1.14-1.14,1.76-1.65s1.52-.93,1.76-1.81.02-1.98,0-2.89c-.01-.96-.01-1.91,0-2.87.09-3.84.65-7.53,1.76-11.21s2.33-7.4,3.5-11.1c.73-2.31-2.89-3.29-3.62-1h0Z"/>
  <line class="cls-6" x1="31.35" y1="77.48" x2="51.14" y2="75.61"/>
  <ellipse class="cls-1" cx="69.46" cy="67.71" rx="20.7" ry="11.79" transform="translate(-11.13 13.73) rotate(-10.45)"/>
  <line class="cls-6" x1="89.81" y1="63.95" x2="121.7" y2="71.25"/>
  <circle class="cls-4" cx="94.11" cy="38.91" r="5.28"/>
  <path class="cls-4" d="m88.32,40.76s-9.26,5.94-8.59,1.73,1.82-4.37,1.82-4.37c0,0-1.33-1.46-.76-4.13s8.72,2.38,8.72,2.38l-1.2,4.39Z"/>
  <path class="cls-4" d="m100.14,40.58s9.26,5.94,8.59,1.73-1.82-4.37-1.82-4.37c0,0,1.33-1.46.76-4.13s-8.72,2.38-8.72,2.38l1.2,4.39Z"/>
  <path class="cls-5" d="m91.6,154.41s8.33,3.57,11.78-.73c1.72-2.15,1.15-3.44.14-4.2-1.36-1.02-3.24-.91-4.66.01-.92.59-1.55,1.42-.49,2.4,1.75,1.61,5.58-2.87,6.96-4.62.46-.59,1.07-1.05,1.77-1.3,1.14-.4,2.82-.57,4.15,1.08"/>
  <circle class="cls-2" cx="110.85" cy="146.85" r="1.15"/>
  <polygon class="cls-4" points="74.1 111.23 73.26 110.27 72 110.42 72.65 109.32 72.11 108.17 73.36 108.45 74.29 107.58 74.41 108.85 75.52 109.48 74.35 109.98 74.1 111.23"/>
  <polygon class="cls-4" points="78.84 112.1 78.01 111.14 76.74 111.29 77.39 110.2 76.86 109.04 78.1 109.32 79.04 108.46 79.15 109.73 80.26 110.35 79.09 110.85 78.84 112.1"/>
  <polygon class="cls-4" points="82.82 108.92 81.98 107.96 80.72 108.11 81.37 107.02 80.84 105.86 82.08 106.14 83.01 105.28 83.13 106.54 84.24 107.17 83.07 107.67 82.82 108.92"/>
  <polygon class="cls-4" points="87.64 109.8 86.8 108.84 85.53 108.99 86.18 107.9 85.65 106.74 86.89 107.02 87.83 106.16 87.94 107.43 89.05 108.05 87.88 108.55 87.64 109.8"/>
  <path class="cls-2" d="m29.91,85.65s6.25-3.22,6.5-1.45.62,2.39-2.68,3.25-3.81-1.8-3.81-1.8Z"/>
</svg>