<?xml version="1.0" encoding="UTF-8"?>
<svg id="Layer_1" data-name="Layer 1" xmlns="http://www.w3.org/2000/svg" viewBox="0 0 184.01 87.48">
  <defs>
    <style>
      .cls-1 {
        fill: #ed1c24;
      }

      .cls-2 {
        fill: #9a7b59;
      }

      .cls-3 {
        fill: #73a54f;
        stroke: #6c8c53;
      }

      .cls-3, .cls-4, .cls-5, .cls-6, .cls-7, .cls-8 {
        stroke-miterlimit: 10;
      }

      .cls-3, .cls-8 {
        stroke-width: .5px;
      }

      .cls-4 {
        fill: #d1d3d4;
        stroke: #a7a9ac;
      }

      .cls-4, .cls-5 {
        stroke-width: .25px;
      }

      .cls-5 {
        fill: #2263af;
        stroke: #a4c7e9;
      }

      .cls-6, .cls-7 {
        stroke: #b3a2ce;
        stroke-width: .75px;
      }

      .cls-6, .cls-8 {
        fill: none;
      }

      .cls-7 {
        fill: #b3a2ce;
      }

      .cls-8 {
        stroke: #231f20;
      }
    </style>
  </defs>
  <path class="cls-4" d="m9,25.41l-.74-.61v-.69h.49l.07-.79.57-.43.57-.1.57-.45v-.69h.76l.24.36-.55.33.07.72c.03.27-.15.51-.41.56l-.47.09c-.18.04-.32.16-.38.33l-.48,1.26-.32.11Z"/>
  <path class="cls-4" d="m16.17,21.89s-.37-.34-.45-.77c-.05-.32.16-.61.45-.73.24-.1.55-.3.58-.67.04-.62.55-.98,1.16-1.02,0,0,.87-.18,1.13-.76,0,0,.58-.58.91.25,0,0,.33.33.47.15s.04-.57,1.47-.6c.09,0,.18.01.26.04.34.13,1.22.5,1.34,1.07.15.7.47.92-.13,1.85,0,0-.53.38-.43.81s.34,1.09-.06,1.34c0,0-.98,1.07-1.47,1,0,0-2.62-.15-2.77-.51s-.66-1.15-1.11-1.09-1.36-.36-1.36-.36Z"/>
  <path class="cls-4" d="m44.56,32.73c-.17,0-.09.47-.09.53-.01.26-.06.67-.26.58-.25-.11-1.14.73-1.65-.76,0,0-1.22-1.06-1.03-1.83s-.64-.55-.64-.55c0,0-.23-.71-.18-1.03s-.62,0-.5-.53c.08-.37,1.37-.33,2.15-.28.36.02.7-.15.9-.45s.49-.73.81-1.06c.42-.44,1.08-.42,1.48.05.49.58,1.15,1.43,1.36,2.05,0,0,.53.21.18.78s1.35,1.61,1.35,1.61l.18-.71.41.18.13.31c-.08.22-.09.46-.01.68.14.41.39,1.02.53.86.21-.23.8.57.8.57,0,0-.48.85-.89.69s-1.4-.11-1.4-.11l-.28.37h-.41l-.78-1.17-.84-.92c-.26-.28-.49-.14-.94.07l-.37.09Z"/>
  <path class="cls-4" d="m55.81,37.14s.4-.75.76-1.02c.06-.05.11-.11.12-.19l.14-.85h.7l.32.31,1.77.07.34.34h.85s.36-.56.36-.56l.56.13v.65l3.49.08c.22,0,.35.24.23.43-.34.53-.99,1.4-1.65,1.53-.9.19-3.53-.4-3.99-.84-.05-.05-.13-.07-.2-.06-.56.08-2.58.34-2.9.12,0,0-.79.29-.92-.14Z"/>
  <path class="cls-4" d="m61.11,43.11s.2-1.58-.36-1.74c0,0-1.3-.61-.28-1.15s3.28,1.44,3.28,1.44c0,0,.42.57-.2,1.36,0,0-1.3,1.44-2.45.08Z"/>
  <path class="cls-4" d="m67.15,47.5s-1.26.37-1.26-.42c0,0,1.28-1.3,1.99-1.38,0,0,.57-.04.44.94s-1.17.86-1.17.86Z"/>
  <path class="cls-4" d="m69.03,42.48s-.27.76-.69.31-2.73-.76-2.45-2.82c0,0,.4-1.24,1.41-1.56.73-.24,1.53,1.1,1.92,1.86.14.28.47.39.76.27.6-.25,1.6-.61,2.18-.51.89.14,3.09,1.88,3.09,1.88,0,0,2.16.34,2.12,1.02s-1.19,2.39-2.68,2.47c0,0-.86-.43-1.21-.12s-1.4,1.13-3.11.7c0,0-.39-.1-.37-.66s-.04-2.59-.14-2.8-.59-.4-.82-.04Z"/>
  <path class="cls-4" d="m79.42,56.61c.39-.47.48-1.13.2-1.67-.63-1.21-1.42-3.16-.27-3.55,1.28-.43,3.1,1.32,3.92,2.21.27.29.63.47,1.03.49,1.33.08,4.64.63,7.48,4.13.22.27.33.61.33.96v1.48s.33.24.76-.19c.38-.38.84-.09,1.06,1.26.06.34.23.64.48.87.56.5,1.53,1.35,1.96,1.59.61.34-3.45,3.91-5.2,4.44-.09.03-.18.04-.28.05-.2.02-.56.04-.88-.03-.46-.1-.93-.04-1.31.23-.84.61-2.17,1.54-2.98,1.88-.33.14-.61.39-.76.72-.23.49-.61,1.22-1.11,1.88-.79,1.05-.96,1.13-2.67,0-.21-.14-.44-.23-.68-.26-.55-.07-1.64-.4-1.73-1.92l.33-3.57c.03-.37-.04-.74-.26-1.05-.24-.34-.51-.91-.47-1.69,0,0-.45-.34-.62-1.65-.05-.4-.24-.77-.55-1.02-.35-.27-.75-.72-.76-1.39-.02-1.18.72-1.69.72-1.69,0,0,1.16-.31,1.35-.72.14-.3.35-1.08.93-1.79Z"/>
  <g>
    <line class="cls-8" x1="44.53" y1="28.95" x2="44.53" y2="25.15"/>
    <circle class="cls-1" cx="44.53" cy="25.45" r="1.6"/>
  </g>
  <g>
    <path class="cls-6" d="m114.98,17.14s-1.63-2.7-2.91-4.05c0,0,2.79.34,5.87,2.91,0,0,.84-.08,1.01,1.48s.17,6.46,1.77,7.35c0,0,2.24,3.59.93,6.63l-18.8-.24s.26-5.06,1.57-6.29,2.44-5.59,2.27-7.6c0,0,.66-.76,1.49-1.66,1.17-1.28,2.67-2.82,3.04-2.84,1.1-.04-.21-1.31-.97-1.18s-2.2,1.27,1.82,1.44c0,0,3.34-1.07,1.48-1.44s-3.55,6.38-2.24,8.11"/>
    <path class="cls-6" d="m117.47,15.89s.25-.83.68,2.35-2.74,6.45-3.04,7.75-1.27,1.93-1.22,3.66c0,0-.06.7-.85.79s-1.18-.09-1.47-1.14-.8-4.71-1.86-4.88-2.36-5.32-2.32-5.97.3-2.27.3-2.27"/>
    <path class="cls-6" d="m104.63,35.77s-2.73-1.69-2.39-.26,2.39.26,2.39.26Z"/>
    <path class="cls-6" d="m121.16,36.22s1.21-1.15,2.3,0-2.3,0-2.3,0Z"/>
    <path class="cls-6" d="m105.41,35.71s10.41-2.15,15.23.32c0,0-7.24,6.25-7.2,8.29,0,0-1.04,1.39-1.78,0,0,0-2.73-8.02-6.25-8.61Z"/>
    <path class="cls-6" d="m104.07,45.75s0-8.28,0-9.28"/>
    <path class="cls-6" d="m120.47,46.01s1.78-7.96,1.43-9.27"/>
    <circle class="cls-7" cx="105.31" cy="25.95" r=".45"/>
    <circle class="cls-7" cx="106.22" cy="28.24" r=".45"/>
    <circle class="cls-7" cx="109.81" cy="30" r=".45"/>
    <circle class="cls-7" cx="109.06" cy="26.4" r=".45"/>
    <circle class="cls-7" cx="114.46" cy="30.46" r=".45"/>
    <circle class="cls-7" cx="105.41" cy="30.84" r=".45"/>
    <circle class="cls-7" cx="116.83" cy="26.4" r=".45"/>
    <circle class="cls-7" cx="117.86" cy="30" r=".45"/>
    <circle class="cls-7" cx="118.77" cy="21.72" r=".45"/>
    <circle class="cls-7" cx="121.49" cy="27.79" r=".45"/>
    <circle class="cls-7" cx="119.52" cy="25.95" r=".45"/>
    <circle class="cls-7" cx="106.67" cy="21.54" r=".45"/>
    <circle class="cls-7" cx="108.15" cy="23.58" r=".45"/>
    <circle class="cls-7" cx="114.66" cy="36.74" r=".45"/>
    <circle class="cls-7" cx="117.7" cy="35.76" r=".45"/>
    <circle class="cls-7" cx="116.96" cy="38.16" r=".45"/>
    <circle class="cls-7" cx="113.77" cy="41.43" r=".45"/>
    <circle class="cls-7" cx="111.86" cy="37.98" r=".45"/>
    <circle class="cls-7" cx="111.41" cy="41.26" r=".45"/>
    <circle class="cls-7" cx="108.58" cy="35.98" r=".45"/>
    <circle class="cls-7" cx="111.27" cy="35.53" r=".45"/>
    <circle class="cls-7" cx="114.66" cy="38.77" r=".45"/>
    <circle class="cls-7" cx="112.17" cy="43.54" r=".45"/>
  </g>
  <path class="cls-2" d="m150.63,61.27s8-23.55,2.19-36.63l-1.76-4.36,4.56-.97s3.6,14.35,3.51,20.25-2.02,22.75-2.63,23.46-5.44.35-5.88-1.76Z"/>
  <path class="cls-3" d="m143.5,40.19l-2.28-5.4s.34-.53.68-.84-1.19-.41-1.19-.41v-3.98s1.29-.92,1.39-.92-1.39-.61-1.39-.61c0,0,4.92-8.85,8.31-9l-5.41,2.72-2.9.04.18-2.21-1.4,2.68-3.68,1.43v-1.73l-.88,2.61-3.41,2.06s4.04-11.73,9.07-12.32,10.92,3.6,10.92,3.6l-4.38-4.34,1.07-2.06-1.76.77-3.75-1.99,1.07-1.69-2.79,1.65-2.28.4-2.06,3.42s-.77-8.42,8.94-9.19c0,0,9.23-1.32,9.71,7.98v1.69s3.42-5.81,10.7-5.55c0,0,9.85,1.73,12.28,8.42l-4.12-.85-2.32-2.43.44,1.99-3.68-.04-2.83-2.21,1.25,2.5-2.24.48s-6.36-.63-7.65.26l9.67,1.43-.92,1.43,3.16.07,1.43,3.09-.7.48s2.57,2.5,3.2,4.82c0,0-4.78-.48-5.85-.04l-.11-2.13-2.06,1.95s-4.6-.18-4.6-.7.99-3.57.99-3.57l-1.52,1.68c-.34.38-.92.41-1.3.07-1.54-1.36-5.12-4.67-5.41-6.17-.37-1.91-.55,10.88-1.91,10.85s-2.43-.63-2.43-.63l1.58,1.65s-.92,3.05-2.13,3.05-1.84-.51-1.84-.51l1.51,1.69-4.38,4.51Z"/>
  <path class="cls-5" d="m107.47,66.37s6.98-3.21,9.14-7.43c2.16-4.22,7.19-10.82,11.79-11.59s8.83-1.74,11.66,3c2.83,4.73-2.89,7.34-3.47,7.57s-4.12-2.37-4.32-.9-.56,6.69,3.92,6.89c0,0,5.21,2.41,10.99.3,0,0-1.58,1.99-.86,2.99,0,0-5.84,1.6-5.7,2.81s-5.46-2.49-7.31,1.34c0,0-4.54-2.85-11.53,1.32,0,0-4.04-2.67-9.24-.75,0,0-.09-6.01-5.09-5.56Z"/>
  <path class="cls-5" d="m124.67,55.82s3.62-8.21,9.75-6.33"/>
  <path class="cls-5" d="m130.01,56.64s.52-5.27,4.68-4.84"/>
  <path class="cls-5" d="m112.52,65.09s3.61,1.22,5.76-2.67"/>
  <path class="cls-5" d="m118.87,67.56s4.37.74,8.28-3.78"/>
  <path class="cls-5" d="m128.45,68.28s4.91-.32,6.25-3.39"/>
</svg>