<?xml version="1.0" encoding="UTF-8"?>
<svg id="Layer_1" data-name="Layer 1" xmlns="http://www.w3.org/2000/svg" viewBox="0 0 137.19 87.48">
  <defs>
    <style>
      .cls-1 {
        fill: #d1d3d4;
        opacity: .58;
        stroke: #a7a9ac;
        stroke-miterlimit: 10;
        stroke-width: .25px;
      }
    </style>
  </defs>
  <path class="cls-1" d="m11.8,20.39l-.97-.8v-.91h.64l.09-1.03.75-.56.75-.13.75-.59v-.91h1l.31.47-.72.44.09.94c.04.35-.2.67-.54.74l-.61.12c-.23.05-.42.21-.5.43l-.63,1.65-.42.14Z"/>
  <path class="cls-1" d="m21.2,15.78s-.49-.44-.59-1.01c-.07-.42.2-.8.59-.96.32-.13.73-.4.75-.88.05-.81.71-1.29,1.52-1.33,0,0,1.14-.24,1.48-1,0,0,.76-.76,1.19.33,0,0,.43.43.62.19s.06-.75,1.92-.78c.12,0,.24.02.35.06.44.16,1.6.66,1.75,1.4.2.92.61,1.2-.17,2.43,0,0-.7.5-.56,1.06s.45,1.42-.08,1.76c0,0-1.28,1.4-1.93,1.31,0,0-3.44-.2-3.63-.67s-.87-1.51-1.45-1.42-1.78-.48-1.78-.48Z"/>
  <path class="cls-1" d="m58.4,29.98c-.22,0-.12.61-.12.7-.02.34-.07.88-.34.76-.33-.15-1.5.95-2.16-1,0,0-1.59-1.38-1.35-2.4s-.84-.72-.84-.72c0,0-.3-.93-.24-1.35s-.81,0-.66-.69c.1-.48,1.79-.44,2.82-.37.47.03.92-.19,1.18-.59s.64-.96,1.06-1.39c.55-.58,1.42-.55,1.94.06.64.76,1.51,1.88,1.78,2.68,0,0,.69.27.24,1.02s1.77,2.1,1.77,2.1l.24-.93.54.24.17.41c-.11.29-.12.6-.01.89.19.54.51,1.34.69,1.13.27-.3,1.05.75,1.05.75,0,0-.63,1.11-1.17.9s-1.83-.15-1.83-.15l-.36.48h-.54l-1.02-1.53-1.1-1.2c-.34-.36-.64-.18-1.24.09l-.49.11Z"/>
  <path class="cls-1" d="m73.14,35.77s.53-.98,1-1.33c.08-.06.15-.14.16-.24l.19-1.12h.92l.43.4,2.32.09.45.45,1.11.02.47-.75.73.17v.85l4.58.1c.28,0,.45.32.3.56-.45.7-1.3,1.83-2.16,2.01-1.18.25-4.62-.52-5.22-1.1-.07-.07-.17-.09-.27-.07-.74.1-3.38.45-3.81.16,0,0-1.04.38-1.21-.19Z"/>
  <path class="cls-1" d="m80.08,43.58s.26-2.07-.47-2.28c0,0-1.71-.8-.36-1.5s4.3,1.89,4.3,1.89c0,0,.54.75-.26,1.79,0,0-1.71,1.89-3.21.1Z"/>
  <path class="cls-1" d="m88,49.33s-1.66.48-1.66-.56c0,0,1.68-1.7,2.61-1.8,0,0,.74-.05.57,1.24s-1.53,1.12-1.53,1.12Z"/>
  <path class="cls-1" d="m90.46,42.76s-.35,1-.9.4-3.57-1-3.21-3.7c0,0,.53-1.62,1.85-2.05.95-.31,2.01,1.44,2.52,2.44.18.36.62.51.99.36.79-.33,2.09-.8,2.86-.67,1.16.19,4.05,2.47,4.05,2.47,0,0,2.83.44,2.78,1.33s-1.56,3.13-3.51,3.24c0,0-1.13-.57-1.59-.16s-1.83,1.48-4.07.92c0,0-.51-.13-.49-.86s-.05-3.4-.19-3.67-.78-.53-1.08-.05Z"/>
  <path class="cls-1" d="m104.08,61.27c.51-.62.63-1.48.26-2.19-.82-1.59-1.87-4.15-.35-4.65,1.68-.56,4.06,1.73,5.14,2.89.35.38.83.62,1.34.65,1.74.1,6.08.83,9.8,5.41.29.35.43.8.43,1.26v1.94s.44.31.99-.25c.5-.5,1.09-.12,1.39,1.65.07.44.3.84.63,1.14.73.66,2,1.77,2.57,2.08.8.45-4.52,5.13-6.81,5.82-.12.04-.24.05-.36.07-.26.03-.73.05-1.15-.04-.6-.13-1.22-.06-1.72.31-1.1.8-2.85,2.01-3.9,2.46-.44.18-.8.51-1,.94-.3.65-.8,1.6-1.45,2.46-1.04,1.38-1.25,1.49-3.5,0-.27-.18-.57-.3-.9-.34-.73-.09-2.15-.52-2.27-2.51l.43-4.68c.04-.48-.06-.97-.34-1.37-.31-.44-.67-1.19-.62-2.22,0,0-.59-.45-.81-2.17-.07-.52-.31-1.02-.72-1.34-.45-.35-.98-.95-.99-1.82-.02-1.54.94-2.22.94-2.22,0,0,1.52-.41,1.76-.94.18-.39.46-1.41,1.22-2.34Z"/>
</svg>