<?xml version="1.0" encoding="UTF-8"?>
<svg id="Layer_1" data-name="Layer 1" xmlns="http://www.w3.org/2000/svg" viewBox="0 0 33.7 31.89">
  <defs>
    <style>
      .cls-1 {
        fill: #010101;
      }
    </style>
  </defs>
  <path class="cls-1" d="m6.39,6.79h3.92l2.61-2.61h7.84l2.61,2.61h3.92c.69,0,1.36.28,1.85.77.49.49.77,1.16.77,1.85v15.69c0,.69-.28,1.36-.77,1.85-.49.49-1.16.77-1.85.77H6.39c-.69,0-1.36-.28-1.85-.77-.49-.49-.77-1.16-.77-1.85v-15.69c0-.69.28-1.36.77-1.85.49-.49,1.16-.77,1.85-.77Zm10.46,3.92c-1.73,0-3.4.69-4.62,1.91-1.23,1.23-1.91,2.89-1.91,4.62s.69,3.4,1.91,4.62c1.23,1.23,2.89,1.91,4.62,1.91s3.4-.69,4.62-1.91c1.23-1.23,1.91-2.89,1.91-4.62s-.69-3.4-1.91-4.62c-1.23-1.23-2.89-1.91-4.62-1.91Zm0,2.61c1.04,0,2.04.41,2.77,1.15.74.74,1.15,1.73,1.15,2.77s-.41,2.04-1.15,2.77-1.73,1.15-2.77,1.15-2.04-.41-2.77-1.15c-.74-.74-1.15-1.73-1.15-2.77s.41-2.04,1.15-2.77c.74-.74,1.73-1.15,2.77-1.15Z"/>
</svg>