<?xml version="1.0" encoding="UTF-8"?>
<svg id="Layer_1" data-name="Layer 1" xmlns="http://www.w3.org/2000/svg" viewBox="0 0 33.7 31.89">
  <defs>
    <style>
      .cls-1 {
        fill: #010101;
      }

      .cls-2 {
        fill: #82c9f0;
        stroke: #010101;
      }
    </style>
  </defs>
  <circle class="cls-2" cx="16.3" cy="15.23" r="11.5"/>
  <path class="cls-1" d="m18.71,15.61s-.03-.03-.03-.05c0-.02,0-.04,0-.06,0-.02.01-.04.02-.05.01-.02.03-.03.04-.04l2.89-1.11h.02c.16-.08.3-.2.39-.35.09-.15.14-.32.13-.5,0-.18-.07-.34-.17-.49-.11-.14-.25-.25-.42-.3l-10.01-3.27c-.15-.05-.32-.06-.47-.02-.16.04-.3.12-.41.23-.11.11-.19.26-.23.41-.04.16-.03.32.02.47l3.27,10.01c.05.17.16.32.3.42.14.11.31.17.49.18h.04c.17,0,.33-.05.48-.14.14-.09.25-.23.32-.38,0,0,0,0,0-.01l1.11-2.89s.02-.03.04-.05c.02-.01.03-.02.05-.02.02,0,.04,0,.06,0,.02,0,.04.02.05.03l3.21,3.21c.08.08.18.15.28.19.11.04.22.07.33.07s.23-.02.33-.07c.11-.04.2-.11.28-.19l.79-.79c.08-.08.15-.18.19-.28.04-.11.07-.22.07-.33s-.02-.23-.07-.33c-.04-.11-.11-.2-.19-.28l-3.2-3.21Zm2.68,3.91l-.79.79s-.03.02-.04.03c-.02,0-.03,0-.05,0s-.03,0-.05,0-.03-.02-.04-.03l-3.21-3.21c-.1-.1-.22-.18-.36-.22-.14-.04-.28-.05-.42-.02-.14.03-.27.09-.38.18-.11.09-.2.2-.26.33,0,0,0,0,0,.01l-1.11,2.89s-.03.04-.05.05c-.02.01-.04.02-.07.01-.02,0-.05-.01-.07-.02-.02-.01-.03-.03-.04-.06l-3.27-10s0-.04,0-.07c0-.02.02-.04.03-.06.02-.02.05-.04.08-.04.01,0,.03,0,.04,0l10,3.27s.04.02.06.04c.01.02.02.04.02.07,0,.02,0,.05-.01.07-.01.02-.03.04-.05.05l-2.89,1.11h-.02c-.13.06-.25.15-.33.26-.09.11-.15.24-.18.38-.03.14-.02.28.02.42s.12.26.22.36l3.21,3.21s.02.03.03.04c0,.02,0,.03,0,.05s0,.03,0,.05c0,.02-.02.03-.03.04Z"/>
</svg>