<?xml version="1.0" encoding="UTF-8"?>
<svg id="Layer_1" data-name="Layer 1" xmlns="http://www.w3.org/2000/svg" viewBox="0 0 179.23 182.61">
  <defs>
    <style>
      .cls-1 {
        font-family: Charmonman-Bold, Charmonman;
        font-size: 6.16px;
        font-weight: 700;
      }

      .cls-1, .cls-2, .cls-3, .cls-4, .cls-5, .cls-6, .cls-7 {
        fill: #231f20;
      }

      .cls-8 {
        fill: #f4c643;
      }

      .cls-9 {
        fill: #e987a4;
      }

      .cls-10, .cls-11, .cls-12 {
        fill: #fff;
      }

      .cls-13 {
        fill: #ed1c24;
      }

      .cls-14 {
        fill: #b2895b;
      }

      .cls-15 {
        fill: #cccccb;
      }

      .cls-16, .cls-17 {
        fill: #d1d3d4;
      }

      .cls-18 {
        fill: #e0b8d1;
      }

      .cls-19, .cls-20 {
        fill: #1a4e60;
      }

      .cls-21 {
        fill: #0c1a1f;
      }

      .cls-22 {
        fill: #88434d;
      }

      .cls-20 {
        stroke: #1a4e60;
        stroke-width: 2px;
      }

      .cls-20, .cls-23, .cls-17, .cls-24, .cls-25 {
        stroke-miterlimit: 10;
      }

      .cls-23 {
        opacity: .32;
      }

      .cls-23, .cls-24 {
        stroke: #fff;
      }

      .cls-23, .cls-25 {
        fill: none;
      }

      .cls-3 {
        font-size: 15.16px;
        letter-spacing: -.02em;
      }

      .cls-3, .cls-4, .cls-5, .cls-6, .cls-7 {
        font-family: AvenirNextCondensed-Regular, 'Avenir Next Condensed';
      }

      .cls-17 {
        stroke: #a7a9ac;
        stroke-width: .25px;
      }

      .cls-4 {
        font-size: 16.4px;
      }

      .cls-24 {
        opacity: .45;
      }

      .cls-24, .cls-26 {
        fill: #e0dedf;
      }

      .cls-5 {
        font-size: 15.91px;
      }

      .cls-6 {
        font-size: 13.98px;
      }

      .cls-7 {
        font-size: 14.7px;
      }

      .cls-26 {
        opacity: .57;
      }

      .cls-11 {
        opacity: .62;
      }

      .cls-12 {
        opacity: .9;
      }

      .cls-27 {
        fill: #396375;
        opacity: .35;
      }

      .cls-25 {
        stroke: #231f20;
        stroke-width: .5px;
      }
    </style>
  </defs>
  <g>
    <path class="cls-9" d="m83.8,51.21s1,4.65,1.32,4.86c0,0,5.14,22.43,5.6,22.94,0,0,.6,3.98,1.16,4.21s12.25,6.84,22.4-3.24l3.5-26.61s.55-.62.58-.98.63-4.14.63-4.14c0,0-15.98,8.86-35.17,2.96Z"/>
    <path class="cls-11" d="m85.81,59.24s1.4,5.89,1.51,6.62c.09.61,18.28,6.59,29.22-3.15l.86-6.93s-13.07,9.93-31.6,3.45Z"/>
    <path class="cls-2" d="m91.16,62.27s2.03.31,2.3.29l.12.59-1.82-.2.27,1.02,1.15.21.14.59-1.21-.19.25,1.19s1.64.27,1.7.25.1.59.1.59l-2.32-.33-.68-4Z"/>
    <path class="cls-2" d="m95.78,62.75s2.06,0,2.21-.04.27,1.72.27,1.72c0,0-.04.29-.36.35l-.06.1s.55.55.58.83l.16,1.07h-.75s-.04-1.51-.65-1.56c0,0-.81-.31-1.18-.2l.27,1.76-.73-.09s-.77-3.3-.37-3.65c0,0,.23-.38.61-.29Z"/>
    <path class="cls-12" d="m95.63,64.48s-.3-.88-.11-1.02,2-.06,2.08-.13.12,1.04.12,1.04c0,0-2.05.24-2.09.11Z"/>
    <path class="cls-2" d="m99.69,62.67s2.92-.12,3.07-.18l.11.54-2.31.22.15,1.09s1.33-.04,1.37-.1,0,.1,0,.1v.42s-1.35.21-1.35.21l.12,1.18s1.9-.1,2.03-.14.12.57.12.57l-2.81.21-.49-4.12Z"/>
    <path class="cls-2" d="m104.34,62.21s.69-.07.74-.1.06,3.49.19,3.49.76-.22.83-.49-.07-2.31-.07-2.31c0,0,.81-.05.83-.12s-.08,2.11,0,2.2.32.32.8.24v-3.47l.78-.15v4.05s-.86.48-1.95.12c0,0-.46.55-1.94.64l-.21-4.12Z"/>
    <path class="cls-2" d="m109.84,61.16s.51-.14.62-.19v1.64s.19.02,1.3-.37v-1.72l.71-.23-.2,4.02-.6.2.05-1.56-1.23.31-.06,1.69-.65.21.07-3.99Z"/>
    <path class="cls-2" d="m113.32,63.2s-.29-2.55.61-3.38c0,0,1.31-1.43,1.35.18l-.18,1.9s-.27.9-.83,1.38c0,0-.72.46-.96-.08Z"/>
    <path class="cls-12" d="m113.71,62.56s-.17-1.51.36-2c0,0,.78-.85.8.1l-.1,1.13s-.16.54-.49.82c0,0-.42.27-.57-.05Z"/>
    <polygon class="cls-2" points="115.95 58.46 116.31 58.2 116.51 60.21 116.73 57.76 116.94 57.55 116.51 61.35 116.33 61.53 116.1 59.72 115.89 62.04 115.62 62.26 115.95 58.46"/>
    <path class="cls-24" d="m80.83,44.41c7.17,1.72,25.25,4.73,39.24-1.77,1.16-.54.81-2.65,0-2.88-7.22-2.13-26.39-5.21-39.6,2.01-1.16.63-.94,2.33.35,2.64Z"/>
    <path class="cls-26" d="m80.88,44.41s.58,2.05,1.48,2.94,23.54,4.54,37.29-2.17l.43-2.54s-14.84,7.59-39.2,1.77Z"/>
    <path class="cls-26" d="m82.36,47.16s.36,3.43,1.01,3.88,20.07,6.49,35.61-2.78l.68-3.34s-16.22,7.67-37.29,2.25Z"/>
    <path class="cls-22" d="m107.11,73.61s.6-.51.93-.82-.04-.35.21-.8,0-.66.74-.78,3.55-1.94,3.77-2.34-.83-.65-.83-.76-1.02.04-1.98,0-1.51-.11-1.5-.51.15-.33,1.09-.4,2.06,0,2.64-.29-.54-.5-.07-.97,1.67-.26,2.57-1.3l.91-1.04s.47-.75.4-.14.06,2.09-.37,2.67-1.19,2.28-1.19,2.28c0,0-3.59,5.18-6.41,5.83,0,0-.75.1-.9-.64Z"/>
    <path class="cls-14" d="m94.17,83.77s-.71-.39-.38-.95.19-1.46.38-2.18.32-2.97,0-4.09-2.11-2.63-2.11-4.14.61-3.02.61-3.02c0,0,1.18,1.06,2.39,1.12s1.04.78,1.09,2.69.04,4.42.67,6.05,1.52,2.74,2.41,3.58,1.94,1.39,2.12,2.07-6.8-.17-7.17-1.12Z"/>
    <path class="cls-22" d="m97.26,78.73s3.72.85,4.86.48.34,3.45.34,3.45l.64,2.76s-3.03-1.38-2.92-2.1-3.04-2.52-2.92-4.59Z"/>
    <path class="cls-22" d="m105.9,78.77s3.66-.28,6.87-3.45c0,0,1.14-.82,1.65-1.47s-.98,2.24-1.68,2.46-1.77,2.15-1.77,2.15c0,0,.01,1.43.37,1.03s.75.35.75.35c0,0,.52.33.57,0s-.11.08.52.14.24,1.08-.31,1.23-7.31,4.15-7.98,3.91.96-1.64.99-2.19.64-3.9.02-4.17Z"/>
    <path class="cls-9" d="m89.38,45.9s-1.77,2.23,0,3.54c0,0-5.19,2.21-.39,3.73s20.99,2.07,22.57.83.68-4.22-.84-4.01c0,0,3.81-4.64-1.97-5.29s-19.37,1.2-19.37,1.2Z"/>
    <path class="cls-23" d="m80.88,44.41s22.54,5.68,39.2-1.77c0,0,5.59-3.66-10.45-4.9,0,0-18.54-2.57-29.14,4.03,0,0-2,1.71.4,2.64Z"/>
    <path class="cls-9" d="m89.38,45.9s.14-6.99,5.67-7.8c0,0,.5-11.47,1.76-12.36,0,0,4.02.27,9.58,9.01,0,0,4.49,2.64,3.86,5.69,0,0-.36,1.09-.76,1.09s.98,1.41-.75,3.17l-19.37,1.2Z"/>
  </g>
  <g>
    <path class="cls-27" d="m146.42,47.18s.07-.9,2.49-1.11c0,0,2.17.3,2.35.99l.2,7.33,1.77,4.28,1.43,2.29v16.92l1.04,78.11s-9.78-1.08-12.55,0l.22-99.62s1.22-1.95,2.95-1.99"/>
    <path class="cls-19" d="m143.36,58.72v-1.98s.52-2.48,5.75-2.72,5.46,3.82,5.46,3.82c0,0,.23,1.17-.23,1.22l-1.1-.39s-.9-2.54-4.24-2.71c0,0-3.72-.3-4.67,2.25l-.96.51Z"/>
    <path class="cls-19" d="m143.15,58.83s-3.47,1.28-2.97,4.2c0,0,6.29-7.39,17.46-.23,0,0,.78-1.19.46-1.87s-7.74-4.7-14.95-2.1Z"/>
    <path class="cls-21" d="m141.1,65.58s-1.1-.81-.91-2.55,7.42-5.54,14.48-2.05l-.03,2.74s-2.59-3.6-6.93-2.64c-4.33.96-3.85,1.55-4.1,2.74l-2.51,1.78Z"/>
    <path class="cls-19" d="m166.89,107.72l-.4-6.68s-7.29-36.28-8.84-38.24l.46-1.87s2.39,2.66,2.7,5.45l5.75,26.42.34,14.92Z"/>
    <text class="cls-1" transform="translate(144.91 73.46)"><tspan x="0" y="0">the</tspan></text>
    <text class="cls-6" transform="translate(144.21 90.12)"><tspan x="0" y="0">G</tspan></text>
    <text class="cls-7" transform="translate(144.64 104.48)"><tspan x="0" y="0">R</tspan></text>
    <text class="cls-5" transform="translate(144.64 119.72) scale(.91 1)"><tspan x="0" y="0">O</tspan></text>
    <text class="cls-3" transform="translate(144.56 136.16)"><tspan x="0" y="0">V</tspan></text>
    <text class="cls-4" transform="translate(144.65 153.51)"><tspan x="0" y="0">E</tspan></text>
    <path class="cls-19" d="m143.15,70.07s-3.87-1.79-1.58-4.84c0,0,2.45-2.92,7.54-2.48l9.25,1.87.12,1.14-3.81,4.54-.05-1.82s.98-.76-.26-1.98c-1.42-1.4-3.59-1.85-6.5-1.45-2.85.39-4.88,1.4-4.7,5.02Z"/>
    <path class="cls-19" d="m142.92,83.81s-3.87-1.79-1.58-4.84c0,0,2.45-2.92,7.54-2.48l12.23,1.86.24,1.63-6.58,6.01-.4-3.77s.98-.76-.26-1.98c-1.42-1.4-3.59-1.85-6.5-1.45-2.85.39-4.88,1.4-4.7,5.02Z"/>
    <path class="cls-19" d="m143.28,97.43s-4.39-1.45-2.1-4.5c0,0,2.61-2.71,7.7-2.26l15.28,2.5.15,1.42-6.2,5.38-3.46-3.29s.7-1.03-.53-2.25c-1.42-1.4-3.59-1.85-6.5-1.45s-4.52.85-4.34,4.46Z"/>
    <polygon class="cls-21" points="154.95 99.4 158.11 99.96 154.66 96.66 154.95 99.4"/>
    <path class="cls-19" d="m143.28,111.98s-4.39-1.45-2.1-4.5c0,0,2.61-2.71,7.7-2.26l17.8,2.89-1.66,1.33-7.71,4.55-2.3-2.88s.35-.92-.89-2.14c-1.42-1.4-3.59-1.85-6.5-1.45-2.85.39-4.52.85-4.34,4.46Z"/>
    <polygon class="cls-21" points="155.02 111.11 155.02 113.59 157.31 113.99 155.02 111.11"/>
    <path class="cls-19" d="m142.73,127.83s-4.39-1.45-2.1-4.5c0,0,2.61-2.71,7.7-2.26l17.8,2.89-1.66,1.33-6.98,3.29-2.34-.1s-.34-2.45-1.58-3.67c-1.42-1.4-3.59-1.85-6.5-1.45-2.85.39-4.52.85-4.34,4.46Z"/>
    <path class="cls-19" d="m143.3,142.97s-4.98-.33-2.69-3.38c0,0,2.54-1.62,7.63-1.18l17.4,1.02.15,1.5-10.25,3.18-.02-1.77s1.37-1.18-.22-1.89c-1.96-.88-4.29-.82-7.66-.57-2.87.21-4.52-.53-4.34,3.08Z"/>
    <path class="cls-19" d="m146.16,50.43s-1.12-.11-.83-2.14,7.24-2.39,7.13.33c0,0,.47,1.45-.83,2.03,0,0-.07-3.39-2.95-3.06s-2.24,1.48-2.52,2.84Z"/>
    <line class="cls-20" x1="148.91" y1="29.55" x2="148.91" y2="46.68"/>
    <path class="cls-8" d="m148.91,26.8s-1.95.1-1.76,2.43c0,0,.03,1.66,1.76,1.71,0,0,2.04-.11,2.01-1.9,0,0,.13-2.3-2.01-2.24Z"/>
  </g>
  <g>
    <g>
      <circle class="cls-18" cx="116.18" cy="108.1" r="13.99"/>
      <polygon class="cls-18" points="102.93 130.29 102.19 108.1 130.17 108.1 130.17 130.29 102.93 130.29"/>
    </g>
    <circle class="cls-10" cx="116.18" cy="108.1" r="12.9"/>
    <circle class="cls-16" cx="116.18" cy="107.85" r="12.05"/>
    <path class="cls-15" d="m107.14,99.89s.82-.94,2.18-1.94l12.61,20.5s-1.95.94-3.01,1.14l-11.78-19.7Z"/>
  </g>
  <path class="cls-17" d="m21.32,9.05l43.67,12.98c.12.04.19.16.16.29l-11.92,43.24c-.02.06,0,.13.03.19l47.63,73.5s.02.04.03.06l2.04,7.13s.02.05.04.07c.29.39,3.08,4.18,2.09,5.24-.03.03-.07.06-.12.07-.65.19-6.1,1.78-5.94,3.07.17,1.36,1.35,6.24-3.95,7.84-.1.03-.17.12-.17.23l.09,4.7c0,.07.03.13.08.17.62.5,4.57,3.94-1.77,5.34l-1.1.59-27.73-3.53c-.13-.02-.22-.12-.21-.25.16-1.66.82-12.5-8.37-21.08-.03-.03-.07-.05-.11-.06l-2.28-.52c-.11-.03-.19-.13-.18-.25l.22-3.16c0-.07-.02-.14-.07-.19l-2.58-2.39c-.07-.07-.18-.08-.27-.04l-1.48.76c-.09.05-.2.03-.28-.04l-4.08-4.11s-.01-.01-.02-.02l-3.9-4.8c-.04-.05-.11-.09-.18-.09l-2.81-.03s-.09-.01-.13-.04l-7.4-4.93c-.07-.04-.1-.12-.1-.2v-5.81c0-.09.07-.18.15-.22l1.6-.7c.08-.04.14-.11.14-.2l.13-2.51c0-.09-.04-.17-.11-.21l-1.69-1.06c-.07-.04-.11-.12-.11-.2l.05-2.89s0-.07-.02-.11c-.49-.97-8.34-16.47-8.34-16.94,0-.41.06-2,.08-2.47,0-.08.05-.15.12-.19l2.36-1.25c.07-.04.12-.12.12-.2l.15-4.04c0-.08-.03-.16-.1-.2-.6-.4-3.6-2.44-3.73-3.1-.14-.69-.01-9.08,0-9.92,0-.05.02-.09.04-.13l.95-1.32,2.25,4.75c.1.21.42.16.45-.07l.69-5.69c.01-.1.08-.17.17-.2l2.8-.73c.19-.05.24-.29.09-.41-.95-.74-3.58-2.6-5.41-2.33-.09.01-.17.08-.19.17l-.7,2.25c-.04.12-.15.19-.27.16-.8-.18-3.62-1-4.18-3.37s-.16-3.65-.04-3.98c.02-.06.02-.12-.01-.18l-3.99-8.14s-.02-.07-.02-.1v-11.07c0-.12.09-.23.21-.23.57-.02,2.03-.41,1.57-3.91l-3-10.07s-.81-.16,2.19-3.17c2.88-2.88,5.55-9.51,5.75-10.04,0-.02.01-.05.02-.07l.61-9.48c0-.15.16-.25.3-.21Z"/>
  <line class="cls-25" x1="51.59" y1="136.71" x2="51.59" y2="127.99"/>
  <circle class="cls-13" cx="51.59" cy="128.69" r="3.67"/>
</svg>