<?xml version="1.0" encoding="UTF-8"?>
<svg id="Layer_1" data-name="Layer 1" xmlns="http://www.w3.org/2000/svg" viewBox="0 0 79.27 22.35">
  <defs>
    <style>
      .cls-1 {
        fill: #f4c643;
      }
    </style>
  </defs>
  <polygon class="cls-1" points="11.91 4.26 13.85 8.18 18.17 8.81 15.04 11.86 15.78 16.17 11.91 14.14 8.05 16.17 8.78 11.86 5.65 8.81 9.98 8.18 11.91 4.26"/>
  <polygon class="cls-1" points="25.89 4.26 27.82 8.18 32.15 8.81 29.02 11.86 29.75 16.17 25.89 14.14 22.02 16.17 22.76 11.86 19.63 8.81 23.95 8.18 25.89 4.26"/>
  <polygon class="cls-1" points="39.71 4.26 41.65 8.18 45.97 8.81 42.84 11.86 43.58 16.17 39.71 14.14 35.84 16.17 36.58 11.86 33.45 8.81 37.78 8.18 39.71 4.26"/>
  <polygon class="cls-1" points="53.68 4.26 55.62 8.18 59.94 8.81 56.81 11.86 57.55 16.17 53.68 14.14 49.82 16.17 50.56 11.86 47.43 8.81 51.75 8.18 53.68 4.26"/>
  <polygon class="cls-1" points="67.44 4.26 69.37 8.18 73.7 8.81 70.57 11.86 71.31 16.17 67.44 14.14 63.57 16.17 64.31 11.86 61.18 8.81 65.5 8.18 67.44 4.26"/>
</svg>