<?xml version="1.0" encoding="UTF-8"?>
<svg id="Layer_1" data-name="Layer 1" xmlns="http://www.w3.org/2000/svg" viewBox="0 0 106.35 111.91">
  <defs>
    <style>
      .cls-1 {
        fill: #d1d3d4;
        opacity: .58;
        stroke: #a7a9ac;
        stroke-miterlimit: 10;
        stroke-width: .25px;
      }
    </style>
  </defs>
  <path class="cls-1" d="m19.11,67.07l-2.96-4.89c-.37-.61-.11-1.4.55-1.68l10.07-4.14c.14-.06.29-.09.44-.09h5.74c.21,0,.42.06.6.16l1.58.94,1.07-.85c.21-.16.46-.25.72-.25h3.3l.93-1.21h2.15c.26,0,.51-.09.71-.25l7.06-5.51s.04-.03.06-.05l1.13-1.01.58-3.27c.07-.41-.08-.82-.4-1.09l-1.69-1.42v-1.39h1.04c.64,0,1.16-.52,1.16-1.16v-1.03c0-.64-.52-1.16-1.16-1.16h0c-1.01,0-1.54-1.21-.85-1.95l3.67-3.96c.2-.21.31-.5.31-.79v-4.39c0-.3.12-.6.33-.81l7.51-7.62c.16-.17.37-.28.6-.32l19.55-3.82c.72-.14,1.38.41,1.38,1.14v5.18c0,.37.17.71.47.93l2.13,1.58c.33.24.5.63.47,1.04l-.61,6.7c-.02.19.01.38.09.55l1.3,3.1c.06.14.09.29.09.45v3.23c0,.64.52,1.16,1.16,1.16h1.01c.55,0,1.03.39,1.14.94l2.8,14.22c.01.07.02.15.02.22v13.67c0,.07,0,.13.02.2l2.14,12.14c.03.17.1.33.19.46l.82,1.17c.36.52.24,1.23-.27,1.6l-1.11.81c-.32.23-.5.61-.48,1l.07,1.21c0,.16-.02.32-.07.48l-1.52,4.01s-.02.05-.03.08l-1.37.66v-2.48c0-.46-.28-.88-.7-1.07l-12.5-5.39c-.15-.06-.3-.09-.46-.09h-2.27c-.5,0-.95-.33-1.11-.81l-1.46-4.55c-.15-.46-.57-.79-1.06-.81l-1.41-.06c-.42-.02-.79-.25-.98-.62l-.68-1.3c-.24-.45-.74-.7-1.24-.6l-58.74,10.92c-.71.13-1.37-.42-1.37-1.14v-4.05c0-.29.11-.57.31-.79l9.91-10.69c.35-.38.41-.95.14-1.39Z"/>
</svg>