<?xml version="1.0" encoding="UTF-8"?>
<svg id="Layer_1" data-name="Layer 1" xmlns="http://www.w3.org/2000/svg" viewBox="0 0 200.06 168.04">
  <defs>
    <style>
      .cls-1 {
        letter-spacing: -.02em;
      }

      .cls-2 {
        fill: #ed1c24;
      }

      .cls-3 {
        fill: #9eddf9;
      }

      .cls-4 {
        fill: #ade0f9;
      }

      .cls-5 {
        fill: #4386c6;
      }

      .cls-6 {
        fill: #47569a;
      }

      .cls-7 {
        fill: #7a4e20;
      }

      .cls-8 {
        fill: #cedad8;
      }

      .cls-8, .cls-9, .cls-10, .cls-11, .cls-12, .cls-13 {
        stroke-width: .25px;
      }

      .cls-8, .cls-9, .cls-10, .cls-11, .cls-12, .cls-13, .cls-14, .cls-15, .cls-16, .cls-17, .cls-18, .cls-19, .cls-20, .cls-21, .cls-22, .cls-23 {
        stroke-miterlimit: 10;
      }

      .cls-8, .cls-9, .cls-19, .cls-23 {
        stroke: #eaefef;
      }

      .cls-9, .cls-10, .cls-12, .cls-18 {
        fill: #d8a79c;
      }

      .cls-10, .cls-18 {
        stroke: #d8a79c;
      }

      .cls-11 {
        fill: #d1d3d4;
        stroke: #a7a9ac;
      }

      .cls-12 {
        stroke: #cedad8;
      }

      .cls-13, .cls-20 {
        fill: #b8cdd0;
        stroke: #b8cdd0;
      }

      .cls-14 {
        fill: #020202;
        stroke: #020202;
      }

      .cls-15 {
        stroke: #fff;
      }

      .cls-15, .cls-24 {
        fill: #fff;
      }

      .cls-16 {
        fill: #c5e9fb;
        stroke: #c5e9fb;
      }

      .cls-17 {
        fill: #aeadab;
        stroke: #aeadab;
      }

      .cls-19 {
        fill: #cdd9d7;
      }

      .cls-21 {
        fill: #3c5785;
        stroke: #3c5785;
      }

      .cls-24 {
        font-family: Helvetica-Bold, Helvetica;
        font-size: 3.67px;
        font-weight: 700;
      }

      .cls-22 {
        stroke: #231f20;
      }

      .cls-22, .cls-23 {
        fill: none;
        stroke-width: .5px;
      }
    </style>
  </defs>
  <path class="cls-11" d="m15.66,95.44l-3.28-5.42c-.41-.68-.12-1.56.61-1.86l11.16-4.58c.16-.06.32-.1.49-.1h6.36c.23,0,.46.06.66.18l1.75,1.04,1.19-.95c.23-.18.51-.28.8-.28h3.65l1.03-1.34h2.38c.29,0,.57-.1.79-.27l7.82-6.11s.05-.04.07-.06l1.25-1.12.64-3.63c.08-.45-.09-.91-.44-1.21l-1.87-1.57v-1.54h1.15c.71,0,1.29-.58,1.29-1.29v-1.14c0-.71-.58-1.29-1.29-1.29h0c-1.12,0-1.71-1.34-.94-2.16l4.07-4.39c.22-.24.34-.55.34-.87v-4.86c0-.34.13-.66.37-.9l8.32-8.44c.18-.18.41-.31.67-.36l21.66-4.24c.79-.16,1.53.45,1.53,1.26v5.74c0,.41.19.79.52,1.03l2.36,1.75c.36.27.56.7.52,1.15l-.67,7.42c-.02.21.01.42.09.61l1.44,3.44c.07.16.1.33.1.5v3.58c0,.71.58,1.29,1.29,1.29h1.12c.61,0,1.14.43,1.26,1.04l3.1,15.76c.02.08.02.17.02.25v15.14c0,.07,0,.15.02.22l2.37,13.45c.03.19.11.36.21.51l.91,1.3c.4.57.27,1.37-.3,1.78l-1.23.9c-.35.26-.55.68-.53,1.11l.07,1.34c0,.18-.02.36-.08.53l-1.68,4.45s-.02.06-.04.08l-1.52.73v-2.74c0-.51-.31-.98-.78-1.18l-13.85-5.97c-.16-.07-.33-.11-.51-.11h-2.51c-.56,0-1.05-.36-1.22-.89l-1.62-5.04c-.16-.51-.63-.87-1.17-.89l-1.56-.06c-.46-.02-.88-.28-1.09-.69l-.75-1.44c-.26-.5-.82-.77-1.38-.67L5.7,115.45c-.79.15-1.52-.46-1.52-1.26v-4.48c0-.32.12-.64.34-.87l10.99-11.84c.39-.42.45-1.05.16-1.54Z"/>
  <line class="cls-22" x1="95.43" y1="116.15" x2="95.43" y2="108.54"/>
  <circle class="cls-2" cx="95.73" cy="108.43" r="3.2"/>
  <g>
    <path class="cls-5" d="m129.99,86.99s-.54-1.23-1.18-2.76c-.98-2.35-2.18-5.42-1.96-5.76.37-.56,4.58-.23,4.86,0s4.21,6.73,5.33,6.5l-7.06,2.01Z"/>
    <path class="cls-5" d="m128.03,84.54c-.21.08-.27.35-.12.51.65.68,2.07,1.95,2.07,1.95l-1.18-2.76-.78.3Z"/>
    <path class="cls-5" d="m146.05,106.12l5.53-4.1s1.27-.1,1.59,0,2.13,1.56.19,4.41l-7.3-.32Z"/>
    <path class="cls-5" d="m152.85,101.17l5.43-4.06h1.34c.25,0,1.98,1.88.27,4.17l-7.03-.1Z"/>
    <path class="cls-5" d="m153.79,79.87s.97-.03,1.12,0,.54.45.55,1.42l-1.67-1.42Z"/>
    <path class="cls-5" d="m145.34,77.59s-.47-.98.45-1.1,3.38,0,3.38,0l1.29.94-5.12.16Z"/>
    <path class="cls-5" d="m136.6,107.93s-.55-.75.18-1.33l8.14.23s-1.58,1.21-2.06,1.21-6.26-.11-6.26-.11Z"/>
    <path class="cls-16" d="m129.64,90.58s-3.39-1.22-1.64-2.31,9.25-2.87,9.25-2.87c0,0,2.85-.9,11.61-.81,0,0,23.12-.25,25.12.37,0,0,2.67.48,3.58,1.74l1.57,1.65s.35.4.64.38,1.3.99,1.23,1.98-1.45,1.68-1.45,1.68c0,0-4.06,1.81-6.21,1.66,0,0-9.69.4-10.78.21s-16.72,1.04-28.42-1.96l-4.48-1.74Z"/>
    <path class="cls-5" d="m129.81,90.77s.03-.43.18-.7,6.04-1.3,7.06.13c0,0-.16.48-.41.62s-7.46,3.95-7.46,3.95c0,0-3.6.18-3.9-.32s3.47-3.03,4.53-3.68Z"/>
    <path class="cls-4" d="m136.74,106.62s10.6-10.09,11.03-10.87.48-1.25.48-1.25l.37-1.69s13.7-2.89,14.93,0c0,0-.26.92-2.1,2.2s-16.57,11.84-16.57,11.84l-8.14-.23Z"/>
    <path class="cls-6" d="m144.03,88.34s-.02-1.02.76-1.04.86.74.81,1.04-.01.86-.78.93-.63-.49-.79-.93Z"/>
    <path class="cls-6" d="m147.98,88.34s-.02-1.02.76-1.04.86.74.81,1.04-.01.86-.78.93-.63-.49-.79-.93Z"/>
    <path class="cls-6" d="m151.84,88.34s-.02-1.02.76-1.04.86.74.81,1.04-.01.86-.78.93-.63-.49-.79-.93Z"/>
    <path class="cls-6" d="m155.76,88.34s-.02-1.02.76-1.04.86.74.81,1.04-.01.86-.78.93-.63-.49-.79-.93Z"/>
    <path class="cls-6" d="m159.72,88.34s-.02-1.02.76-1.04.86.74.81,1.04-.01.86-.78.93-.63-.49-.79-.93Z"/>
    <path class="cls-6" d="m163.55,88.34s-.02-1.02.76-1.04.86.74.81,1.04-.01.86-.78.93-.63-.49-.79-.93Z"/>
    <path class="cls-6" d="m167.91,88.34s-.02-1.02.76-1.04.86.74.81,1.04-.01.86-.78.93-.63-.49-.79-.93Z"/>
    <path class="cls-6" d="m171.96,89.12s.66-1.72.99-1.83,1.75,0,1.75,0c0,0-.58,1.72-.74,1.83s-1.99,0-1.99,0Z"/>
    <path class="cls-6" d="m175.07,87.29l1.09-.05s1.44,1.65,1.3,1.75-3,.28-3.13.17.74-1.87.74-1.87Z"/>
    <path class="cls-6" d="m176.51,87.25s.47-.29.66-.35,1.6,1.44,1.46,1.56-.7.39-.84.42-1.27-1.64-1.27-1.64Z"/>
    <path class="cls-5" d="m179.49,91.96s-.9-2.21-.08-2.89c0,0,.99-.04,1.23,1.45,0,0-.04.89-1.15,1.45Z"/>
    <polygon class="cls-3" points="145.22 77.49 150.33 77.34 158.72 84.18 149.06 84.36 145.22 77.49"/>
  </g>
  <polygon class="cls-23" points="115.58 10.05 125.68 11.49 131.35 18.44 133.69 21.31 115.58 10.05"/>
  <polygon class="cls-19" points="139.8 23.37 131.49 18.25 133.78 21 139.8 24.76 139.8 24.54 139.47 24.35 139.52 23.51 139.72 23.67 139.88 23.41 139.8 23.37"/>
  <path class="cls-19" d="m138.99,24.1v.65l-1.21,41.56.87.02.9-41.12s.04-.08.07-.13.08-.05.08-.09.04-.03.06-.09,0-.17.03-.22.07-.04.07-.04l.03-.13-.2-.11v-.08s-.69-.21-.69-.21Z"/>
  <polygon class="cls-13" points="116.87 10.49 125.4 11.65 132.07 19.77 116.87 10.49"/>
  <polygon class="cls-20" points="115.2 10.74 138.99 24.95 137.78 66.99 115.2 66.99 115.2 10.74"/>
  <polygon class="cls-9" points="139.6 22.97 139.6 22.71 139.97 22.44 139.97 23.8 139.79 23.95 139.6 23.81 139.6 22.97"/>
  <polygon class="cls-9" points="141.63 23.38 140.2 22.44 140.2 23.46 141.63 23.38"/>
  <polygon class="cls-8" points="142.82 23.46 139.97 23.46 139.97 23.68 145.31 27.24 142.82 23.46"/>
  <polygon class="cls-19" points="144.22 25.46 154.14 32.06 153.42 32.31 153.01 32.44 145.31 27.35 144.22 25.46"/>
  <polygon class="cls-8" points="155.65 32.16 153.96 32.63 153.71 32.72 157.3 34.86 157.34 34.82 155.65 32.16"/>
  <polygon class="cls-12" points="154.15 32.85 155.52 32.47 156.91 34.55 154.15 32.85"/>
  <polygon class="cls-10" points="140.26 23.68 142.74 23.68 144.66 26.6 140.26 23.68"/>
  <polygon class="cls-18" points="140.44 24.68 139.6 67.14 160.16 65.94 156.89 35.32 140.44 24.68"/>
  <path class="cls-7" d="m123.74,67.53s-.71-9.66,0-11.62,4.81-3.12,5.61,0,0,11.62,0,11.62h-5.61Z"/>
  <path class="cls-7" d="m148.95,66.99s-1.16-8.42.33-8.98c0,0,2.22-1.47,1.94,8.85l-2.26.13Z"/>
  <g>
    <polygon class="cls-17" points="169.53 99.14 169.53 124.55 170.54 124.55 189.05 123.94 186.22 99.14 169.53 99.14"/>
    <polygon class="cls-21" points="169.45 124.92 170.46 124.92 169.96 145.35 190.99 145.96 188.97 124.32 191.83 147.27 191.83 161.42 169.45 161.42 169.45 124.92"/>
    <polygon class="cls-14" points="170.46 124.92 188.7 124.32 190.73 145.53 170.25 145.02 170.46 124.92"/>
    <line class="cls-15" x1="170.43" y1="127.83" x2="189" y2="127.47"/>
    <text class="cls-24" transform="translate(171.12 132.81)"><tspan class="cls-1" x="0" y="0">T</tspan><tspan x="2.18" y="0">imes</tspan><tspan x="0" y="4.41">Square</tspan></text>
  </g>
</svg>