<?xml version="1.0" encoding="UTF-8"?>
<svg id="Layer_1" data-name="Layer 1" xmlns="http://www.w3.org/2000/svg" viewBox="0 0 150.24 153.06">
  <defs>
    <style>
      .cls-1 {
        fill: #f9e1ba;
      }

      .cls-2 {
        fill: #f9e74e;
      }

      .cls-3 {
        fill: #010101;
      }

      .cls-4, .cls-5 {
        fill: #fff;
      }

      .cls-6 {
        fill: #ed1c24;
      }

      .cls-7 {
        fill: #ddc8a6;
      }

      .cls-8, .cls-9 {
        fill: #cbc5af;
      }

      .cls-10 {
        fill: #c7c3c3;
      }

      .cls-11 {
        fill: #99c7e4;
      }

      .cls-12 {
        fill: #2e2814;
      }

      .cls-13 {
        fill: #619440;
      }

      .cls-14, .cls-15, .cls-16, .cls-17, .cls-18, .cls-19 {
        fill: none;
      }

      .cls-14, .cls-20 {
        stroke-width: .25px;
      }

      .cls-14, .cls-21, .cls-18 {
        stroke: #922726;
      }

      .cls-15, .cls-22, .cls-23, .cls-9, .cls-19 {
        stroke-width: .5px;
      }

      .cls-15, .cls-22, .cls-9, .cls-17 {
        stroke: #b5b6ae;
      }

      .cls-20 {
        fill: #d1d3d4;
        stroke: #a7a9ac;
      }

      .cls-20, .cls-19 {
        stroke-miterlimit: 10;
      }

      .cls-24 {
        fill: #c0c0b5;
        stroke: #c0c0b5;
      }

      .cls-21 {
        fill: #922726;
      }

      .cls-5 {
        stroke: #fff;
      }

      .cls-22 {
        fill: #1d1a0e;
      }

      .cls-23 {
        fill: #d9d9d8;
      }

      .cls-23, .cls-16 {
        stroke: #c7c3c3;
      }

      .cls-18 {
        stroke-width: .75px;
      }

      .cls-19 {
        stroke: #231f20;
      }
    </style>
  </defs>
  <path class="cls-20" d="m22.99,10.21l35.78,10.64c.1.03.16.13.13.24l-9.77,35.44c-.01.05,0,.11.02.16l39.03,60.23s.02.03.02.05l1.67,5.84s.02.04.03.06c.24.32,2.52,3.43,1.71,4.29-.03.03-.06.05-.1.06-.53.15-5,1.46-4.87,2.52.14,1.11,1.1,5.12-3.23,6.43-.08.02-.14.1-.14.18l.07,3.85c0,.06.02.11.07.14.51.41,3.74,3.22-1.45,4.38l-.9.48-22.72-2.89c-.1-.01-.18-.1-.17-.2.13-1.36.67-10.25-6.86-17.27-.03-.02-.06-.04-.09-.05l-1.87-.43c-.09-.02-.16-.11-.15-.2l.18-2.59c0-.06-.02-.12-.06-.15l-2.12-1.96c-.06-.06-.15-.07-.22-.03l-1.21.63c-.07.04-.17.02-.23-.04l-3.34-3.37s0,0-.01-.01l-3.19-3.93s-.09-.07-.15-.07l-2.31-.02s-.07-.01-.11-.03l-6.06-4.04c-.05-.04-.09-.1-.09-.16v-4.76c0-.08.05-.15.12-.18l1.31-.57c.07-.03.11-.09.12-.17l.11-2.05c0-.07-.03-.14-.09-.17l-1.39-.87c-.06-.04-.09-.1-.09-.17l.04-2.37s0-.06-.02-.09c-.4-.8-6.84-13.5-6.84-13.88,0-.34.05-1.64.06-2.02,0-.07.04-.13.1-.16l1.93-1.03c.06-.03.1-.09.1-.16l.12-3.31c0-.07-.03-.13-.08-.17-.49-.33-2.95-2-3.06-2.54-.11-.57-.01-7.44,0-8.13,0-.04.01-.07.04-.1l.78-1.08,1.84,3.89c.08.17.34.13.37-.06l.57-4.67c0-.08.07-.14.14-.16l2.3-.6c.16-.04.2-.24.07-.34-.78-.6-2.93-2.13-4.44-1.91-.08.01-.14.07-.16.14l-.58,1.84c-.03.1-.12.15-.22.13-.65-.15-2.97-.82-3.42-2.76s-.13-2.99-.03-3.26c.02-.05.01-.1,0-.15l-3.27-6.67s-.02-.06-.02-.08v-9.07c0-.1.08-.19.18-.19.46-.02,1.67-.34,1.29-3.2l-2.46-8.25s-.67-.13,1.8-2.6,4.54-7.8,4.71-8.22c0-.02.01-.04.01-.06l.5-7.77c0-.12.13-.21.25-.17Z"/>
  <line class="cls-19" x1="24.62" y1="60.55" x2="24.62" y2="53.68"/>
  <circle class="cls-6" cx="24.62" cy="54.23" r="2.89"/>
  <path class="cls-24" d="m107.13,4.28v34.61h24.14V4.28h-24.14Z"/>
  <path class="cls-17" d="m109.82,4.35v34.54"/>
  <path class="cls-17" d="m112.65,4.42v7.92"/>
  <path class="cls-17" d="m115.27,4.28v7.92"/>
  <path class="cls-17" d="m117.6,4.5v7.78"/>
  <path class="cls-17" d="m120.22,4.42v8"/>
  <path class="cls-17" d="m122.69,4.42v8"/>
  <path class="cls-17" d="m125.45,4.35v8.07"/>
  <path class="cls-17" d="m128.14,4.5v34.39"/>
  <rect class="cls-2" x="112.07" y="12.28" width="14.1" height="26.61"/>
  <circle class="cls-3" cx="124.14" cy="26.38" r=".87"/>
  <path class="cls-10" d="m121.45,26.16h1.89v.44l-1.38.07-.36.58-.8-.29.65-.8Z"/>
  <path class="cls-16" d="m123.34,26.16h-1.89l-.65.8.8.29.36-.58,1.38-.07v-.51"/>
  <path class="cls-3" d="m117.98,20.42h-1.08v-.2l.54-.49c.08-.07.14-.14.2-.22.05-.08.08-.16.08-.24v-.03c0-.1-.03-.17-.08-.23-.05-.05-.13-.08-.23-.08s-.18.03-.23.08c-.05.05-.09.12-.12.2l-.17-.07s.04-.09.06-.14c.03-.05.06-.09.1-.12.04-.04.09-.06.15-.09.06-.02.13-.03.21-.03s.15.01.21.03c.06.02.12.06.16.1.04.04.08.09.1.15.02.06.03.12.03.19,0,.06,0,.12-.03.17-.02.05-.04.11-.07.16-.03.05-.07.1-.11.15-.04.05-.09.09-.15.14l-.45.4h.88v.17Zm.84.03c-.1,0-.18-.02-.26-.06-.07-.04-.13-.09-.18-.17-.05-.07-.08-.16-.1-.26-.02-.1-.03-.22-.03-.36s.01-.25.03-.35c.02-.11.06-.19.1-.27.05-.07.11-.13.18-.16.07-.04.16-.06.26-.06s.18.02.26.06c.07.04.13.09.18.16.05.07.08.16.1.27.02.1.03.22.03.35s-.01.25-.03.36c-.02.1-.06.19-.1.26-.05.07-.11.13-.18.17-.07.04-.16.06-.26.06Zm0-.17c.07,0,.12-.01.17-.04.05-.03.08-.06.11-.11.03-.05.05-.1.07-.17.01-.07.02-.14.02-.22v-.27c0-.08,0-.15-.02-.22s-.04-.12-.07-.17c-.03-.05-.07-.08-.11-.11-.05-.03-.1-.04-.17-.04s-.12.01-.17.04c-.05.02-.08.06-.11.11-.03.05-.05.1-.06.17s-.02.14-.02.22v.27c0,.08,0,.16.02.22.01.07.03.12.06.17.03.05.07.08.11.11.05.02.1.04.17.04Zm0-.53c-.05,0-.09-.01-.11-.03-.02-.02-.03-.05-.03-.08v-.05s.01-.06.03-.08c.02-.02.06-.03.11-.03s.09.01.11.03c.02.02.03.05.03.08v.05s-.01.06-.03.08c-.02.02-.06.03-.11.03Zm.89.67v-.17h.47v-1.31h-.02l-.41.38-.11-.12.43-.4h.3v1.45h.43v.17h-1.09Z"/>
  <path class="cls-21" d="m116.39,68.3l-.64,15.79h1.58s.05-3.59.05-3.59l.11-.16.03-1.03.11-.11v-.49s.07-.11.07-.11v-.38s.12,0,.12,0l.12-.27v-.22s.28,0,.28,0l.06-.11h2.06s.11.12.11.12h.22s0,.17,0,.17l.21.28v.38s.15.06.15.06l-.07.6.16.11-.03.98.16.17.11,3.7,1.63.1-.67-15.83-.16-.17-.18-4.73-.1-.17-.04-4.08-.31-.55-.4.75h-.38s-.22.2-.22.2h-2.17s-.16-.18-.16-.18h-.49s-.41-.68-.41-.68l-.23.43-.13,4.18h-.22s-.14,4.66-.14,4.66l-.17.16Z"/>
  <path class="cls-5" d="m117.52,61.38l-.06,2.01.37.23h.33s.16.18.16.18h2.06s.06-.1.06-.1h.38s.44-.3.44-.3l-.05-2.07-.26-.39-3.04-.04-.39.48Z"/>
  <path class="cls-5" d="m117.49,66.05l-.06,2.01.37.23h.33s.16.18.16.18h2.06s.06-.1.06-.1h.38s.44-.3.44-.3l-.05-2.07-.26-.39-3.04-.04-.39.48Z"/>
  <path class="cls-5" d="m117.77,71.38l-.1,3.2.3.36h.27s.13.27.13.27l1.71-.04.05-.17h.31s.38-.5.38-.5v-3.29s-.2-.61-.2-.61h-2.52s-.34.78-.34.78Z"/>
  <path class="cls-18" d="m117.37,58.78l-9.56-14.26"/>
  <path class="cls-18" d="m121.42,58.78l9.88-15.07"/>
  <path class="cls-14" d="m113.81,53.59v30.3"/>
  <path class="cls-14" d="m114.13,54.08v29.33"/>
  <path class="cls-14" d="m111.54,50.03l-.65,34.51"/>
  <path class="cls-14" d="m111.86,50.52l-.81,33.7"/>
  <path class="cls-14" d="m109.11,46.3l-.81,38.56"/>
  <path class="cls-14" d="m109.76,47.27l-.97,37.59"/>
  <path class="cls-14" d="m125.63,52.3v30.14"/>
  <path class="cls-14" d="m125.31,52.62v29.49"/>
  <path class="cls-14" d="m128.07,48.57l.65,34.51"/>
  <path class="cls-14" d="m127.58,49.22l.97,33.54"/>
  <path class="cls-14" d="m130.5,45.01l.81,38.56"/>
  <path class="cls-14" d="m129.85,45.82l.97,37.59"/>
  <path class="cls-23" d="m104.73,96.53l10.97-12.31h7.17l11.68,12.31h-29.81Z"/>
  <path class="cls-4" d="m120.29,92.32l1.46,4.21h1.62l-1.62-4.21h-1.46Z"/>
  <path class="cls-4" d="m118.67,88.11l.97,2.3h1.62l-.97-2.3h-1.62Z"/>
  <path class="cls-12" d="m103.35,124.84l-.94.76,1.26,7.63.98-1.17-1.29-7.22Z"/>
  <path class="cls-3" d="m108.18,121.94l.34-.27.6,4.63-.37.59-.56-4.95Z"/>
  <path class="cls-12" d="m107.25,122.53l.6,5.3.71-.78-.49-5.19-.81.67Z"/>
  <path class="cls-3" d="m104.26,124.47l1.13,7.02-.53.81-1.34-7.31.74-.52Z"/>
  <path class="cls-9" d="m99.24,135.2v1.02l16.78-15.2v-.27l-16.78,14.46Z"/>
  <path class="cls-22" d="m116.26,120.74l-17.03,15.76v8.29l17.34-22.35-.31-1.71Z"/>
  <path class="cls-8" d="m116.17,118.87l-16.75,4.42v.88l16.75-5.14v-.17Z"/>
  <path class="cls-8" d="m101.68,139.38l-.79-1.39,15.2-16.16.1.65-14.52,16.9Z"/>
  <path class="cls-15" d="m116.17,118.87l-16.75,4.42v.88l16.75-5.14v-.17Z"/>
  <path class="cls-15" d="m101.68,139.38l-.79-1.39,15.2-16.16.1.65-14.52,16.9Z"/>
  <path class="cls-22" d="m99.24,126.89v-2.63l16.97-5.02v.73l-16.97,6.91Z"/>
  <path class="cls-12" d="m134.46,124.84l.94.76-1.26,7.63-.98-1.17,1.29-7.22Z"/>
  <path class="cls-3" d="m129.81,121.94l-.4-.27-.72,4.63.45.59.67-4.95Z"/>
  <path class="cls-12" d="m130.56,122.53l-.6,5.3-.71-.78.49-5.19.81.67Z"/>
  <path class="cls-3" d="m133.55,124.47l-1.13,7.02.53.81,1.34-7.31-.74-.52Z"/>
  <path class="cls-9" d="m138.58,135.2v1.02l-16.78-15.2v-.27l16.78,14.46Z"/>
  <path class="cls-22" d="m121.73,120.74l16.84,15.76v8.29l-17.15-22.35.31-1.71Z"/>
  <path class="cls-8" d="m121.83,118.87l16.75,4.42v.88l-16.75-5.14v-.17Z"/>
  <path class="cls-8" d="m136.32,139.38l.79-1.39-15.2-16.16-.1.65,14.52,16.9Z"/>
  <path class="cls-15" d="m121.83,118.87l16.75,4.42v.88l-16.75-5.14v-.17Z"/>
  <path class="cls-15" d="m136.32,139.38l.79-1.39-15.2-16.16-.1.65,14.52,16.9Z"/>
  <path class="cls-22" d="m138.58,126.89v-2.63l-16.78-5.02v.73l16.78,6.91Z"/>
  <path class="cls-13" d="m102.15,117.19c-.18,0-.34,0-.5,0h.5c3.15-.06,9.5-1.16,13.3-5.31,5.01-5.48,9.54-12.16,14.35-10.45,3.84,1.37,10.68,11.08,13.62,15.76h-41.27Z"/>
  <path class="cls-13" d="m101.66,121.11v-3.73h12.86v1.25l-12.86,2.47Z"/>
  <path class="cls-13" d="m143.27,117.57h-14.57v2.35l10.48,3.13,4.43.68-.34-6.15Z"/>
  <path class="cls-7" d="m116.28,122.98l-17.05,22.37,39.15-.51-17.05-21.86h-5.06Z"/>
  <path class="cls-11" d="m100.73,116.82v-11.37h18.09c-4.18,10.31-12.97,11.37-18.09,11.37Z"/>
  <path class="cls-1" d="m138.33,144.9h-4.47l-1.77-2.87-1.35-2.3-1.11-1.89-.85-1.45-7.61-12.94.54-.1,16.62,21.54Z"/>
  <path class="cls-1" d="m103.66,139.63l-2,2.73h30.39l-1.93-3.35-26.46.61Z"/>
  <path class="cls-1" d="m107.17,135.02l-1.83,2.39,23.67-.48-1.21-1.91h-20.64Z"/>
  <path class="cls-1" d="m110.48,130.99l-1.69,2.22h17.81l-1.14-2.22h-14.99Z"/>
  <path class="cls-1" d="m113.39,126.89l-1.47,1.86,11.93-.29-.99-1.57h-9.46Z"/>
</svg>