<?xml version="1.0" encoding="UTF-8"?>
<svg id="Layer_1" data-name="Layer 1" xmlns="http://www.w3.org/2000/svg" viewBox="0 0 79.27 22.35">
  <defs>
    <style>
      .cls-1 {
        fill: #f4c643;
      }

      .cls-2 {
        fill: #d1d3d4;
      }
    </style>
  </defs>
  <polygon class="cls-1" points="12.9 4.26 14.83 8.18 19.16 8.81 16.03 11.86 16.76 16.17 12.9 14.14 9.03 16.17 9.77 11.86 6.64 8.81 10.96 8.18 12.9 4.26"/>
  <polygon class="cls-1" points="26.87 4.26 28.8 8.18 33.13 8.81 30 11.86 30.74 16.17 26.87 14.14 23 16.17 23.74 11.86 20.61 8.81 24.93 8.18 26.87 4.26"/>
  <polygon class="cls-1" points="40.69 4.26 42.63 8.18 46.95 8.81 43.82 11.86 44.56 16.17 40.69 14.14 36.83 16.17 37.57 11.86 34.44 8.81 38.76 8.18 40.69 4.26"/>
  <polygon class="cls-1" points="54.67 4.26 56.6 8.18 60.93 8.81 57.8 11.86 58.54 16.17 54.67 14.14 50.8 16.17 51.54 11.86 48.41 8.81 52.73 8.18 54.67 4.26"/>
  <polygon class="cls-2" points="68.42 4.26 70.35 8.18 74.68 8.81 71.55 11.86 72.29 16.17 68.42 14.14 64.55 16.17 65.29 11.86 62.16 8.81 66.49 8.18 68.42 4.26"/>
</svg>