<?xml version="1.0" encoding="UTF-8"?>
<svg id="Layer_1" data-name="Layer 1" xmlns="http://www.w3.org/2000/svg" viewBox="0 0 105.75 43.81">
  <defs>
    <style>
      .cls-1 {
        fill: #f9f1de;
      }

      .cls-2 {
        fill: #f9e1ba;
      }

      .cls-3 {
        fill: #f9e74e;
      }

      .cls-4 {
        fill: #010101;
      }

      .cls-5 {
        fill: #fff;
      }

      .cls-6 {
        fill: #ddc8a6;
      }

      .cls-7, .cls-8 {
        fill: #cbc5af;
      }

      .cls-9 {
        fill: #c7c3c3;
      }

      .cls-10 {
        fill: #99c7e4;
      }

      .cls-11 {
        fill: #2e2814;
      }

      .cls-12 {
        fill: #619440;
      }

      .cls-13 {
        stroke-width: .25px;
      }

      .cls-13, .cls-14, .cls-15, .cls-16, .cls-17 {
        fill: none;
      }

      .cls-13, .cls-18, .cls-17 {
        stroke: #922726;
      }

      .cls-14, .cls-19, .cls-20, .cls-8 {
        stroke-width: .5px;
      }

      .cls-14, .cls-19, .cls-8, .cls-16 {
        stroke: #b5b6ae;
      }

      .cls-21 {
        fill: #c0c0b5;
        stroke: #c0c0b5;
      }

      .cls-18 {
        fill: #922726;
      }

      .cls-19 {
        fill: #1d1a0e;
      }

      .cls-20 {
        fill: #d9d9d8;
      }

      .cls-20, .cls-15 {
        stroke: #c7c3c3;
      }

      .cls-17 {
        stroke-width: .75px;
      }
    </style>
  </defs>
  <rect class="cls-1" width="105.75" height="43.81"/>
  <path class="cls-21" d="m5.69,9.3v27.98h19.52V9.3H5.69Z"/>
  <path class="cls-16" d="m7.86,9.36v27.92"/>
  <path class="cls-16" d="m10.16,9.42v6.41"/>
  <path class="cls-16" d="m12.27,9.3v6.41"/>
  <path class="cls-16" d="m14.15,9.48v6.29"/>
  <path class="cls-16" d="m16.27,9.42v6.47"/>
  <path class="cls-16" d="m18.27,9.42v6.47"/>
  <path class="cls-16" d="m20.5,9.36v6.53"/>
  <path class="cls-16" d="m22.68,9.48v27.8"/>
  <rect class="cls-3" x="9.69" y="15.77" width="11.4" height="21.51"/>
  <circle class="cls-4" cx="19.44" cy="27.17" r=".71"/>
  <path class="cls-9" d="m17.27,26.99h1.53v.35l-1.12.06-.29.47-.65-.24.53-.65Z"/>
  <path class="cls-15" d="m18.8,26.99h-1.53l-.53.65.65.24.29-.47,1.12-.06v-.41"/>
  <path class="cls-4" d="m14.46,22.35h-.88v-.16l.44-.4c.06-.06.12-.12.16-.18.04-.06.06-.13.06-.19v-.02c0-.08-.02-.14-.06-.18-.04-.04-.1-.07-.18-.07s-.14.02-.19.06c-.04.04-.07.09-.1.16l-.14-.05s.03-.08.05-.11c.02-.04.05-.07.08-.1.03-.03.07-.05.12-.07.05-.02.11-.03.17-.03s.12,0,.17.03c.05.02.09.05.13.08.04.03.06.07.08.12.02.05.03.1.03.15,0,.05,0,.1-.02.14-.01.04-.03.09-.06.13-.03.04-.06.08-.09.12-.04.04-.07.08-.12.11l-.37.32h.71v.14Zm.68.02c-.08,0-.15-.02-.21-.05-.06-.03-.11-.08-.14-.13-.04-.06-.07-.13-.08-.21-.02-.08-.03-.18-.03-.29s0-.2.03-.29c.02-.09.05-.16.08-.21.04-.06.09-.1.14-.13.06-.03.13-.05.21-.05s.15.02.21.05c.06.03.11.07.14.13.04.06.07.13.08.21.02.08.03.18.03.29s0,.2-.03.29c-.02.08-.05.15-.08.21-.04.06-.09.1-.14.13-.06.03-.13.05-.21.05Zm0-.14c.05,0,.1,0,.14-.03.04-.02.07-.05.09-.09.02-.04.04-.08.05-.14.01-.05.02-.11.02-.18v-.21c0-.07,0-.12-.02-.18s-.03-.1-.05-.14c-.02-.04-.05-.07-.09-.09-.04-.02-.08-.03-.14-.03s-.1.01-.14.03c-.04.02-.07.05-.09.09-.02.04-.04.08-.05.14s-.02.11-.02.18v.21c0,.07,0,.13.02.18.01.05.03.1.05.14.02.04.05.07.09.09.04.02.08.03.14.03Zm0-.43s-.07,0-.09-.03c-.02-.02-.02-.04-.02-.06v-.04s0-.05.02-.06c.02-.02.05-.03.09-.03s.07,0,.09.03c.02.02.03.04.03.06v.04s0,.05-.03.06c-.02.02-.05.03-.09.03Zm.72.55v-.14h.38v-1.06h-.01l-.33.31-.09-.1.35-.33h.25v1.18h.35v.14h-.88Z"/>
  <path class="cls-18" d="m46.85,20.28l-.52,12.94h1.29s.04-2.94.04-2.94l.09-.13.03-.84.09-.09v-.4s.06-.09.06-.09v-.31s.1,0,.1,0l.1-.22v-.18s.23,0,.23,0l.05-.09h1.69s.09.1.09.1h.18s0,.14,0,.14l.17.23v.31s.12.05.12.05l-.06.49.13.09-.02.8.13.14.09,3.03,1.33.08-.55-12.97-.13-.14-.15-3.88-.08-.14-.03-3.34-.25-.45-.33.61h-.31s-.18.16-.18.16h-1.78s-.13-.15-.13-.15h-.4s-.34-.56-.34-.56l-.19.35-.1,3.42h-.18s-.11,3.82-.11,3.82l-.14.13Z"/>
  <path class="cls-1" d="m47.78,14.61l-.05,1.65.31.19h.27s.13.15.13.15h1.69s.05-.08.05-.08h.31s.36-.25.36-.25l-.04-1.69-.21-.32-2.49-.03-.32.39Z"/>
  <path class="cls-1" d="m47.75,18.44l-.05,1.65.31.19h.27s.13.15.13.15h1.69s.05-.08.05-.08h.31s.36-.25.36-.25l-.04-1.69-.21-.32-2.49-.03-.32.39Z"/>
  <path class="cls-1" d="m47.98,22.8l-.08,2.62.25.29h.22s.1.22.1.22l1.4-.03.04-.14h.26s.31-.41.31-.41v-2.69s-.16-.5-.16-.5h-2.07s-.28.64-.28.64Z"/>
  <path class="cls-17" d="m47.65,12.48L39.82.8"/>
  <path class="cls-17" d="m50.97,12.48L59.07.14"/>
  <path class="cls-13" d="m44.73,8.23v24.82"/>
  <path class="cls-13" d="m45,8.63v24.03"/>
  <path class="cls-13" d="m42.87,5.31l-.53,28.27"/>
  <path class="cls-13" d="m43.14,5.71l-.66,27.61"/>
  <path class="cls-13" d="m40.88,2.26l-.66,31.59"/>
  <path class="cls-13" d="m41.41,3.06l-.8,30.8"/>
  <path class="cls-13" d="m54.42,7.17v24.69"/>
  <path class="cls-13" d="m54.16,7.44v24.16"/>
  <path class="cls-13" d="m56.41,4.12l.53,28.27"/>
  <path class="cls-13" d="m56.01,4.65l.8,27.48"/>
  <path class="cls-13" d="m58.4,1.2l.66,31.59"/>
  <path class="cls-13" d="m57.87,1.86l.8,30.8"/>
  <path class="cls-20" d="m37.3,43.41l8.99-10.09h5.87l9.56,10.09h-24.42Z"/>
  <path class="cls-5" d="m50.04,39.96l1.19,3.45h1.33l-1.33-3.45h-1.19Z"/>
  <path class="cls-5" d="m48.71,36.51l.8,1.88h1.33l-.8-1.88h-1.33Z"/>
  <path class="cls-11" d="m73.56,22.79l-.72.58.96,5.81.75-.89-.98-5.5Z"/>
  <path class="cls-4" d="m77.24,20.58l.26-.2.45,3.53-.28.45-.43-3.77Z"/>
  <path class="cls-11" d="m76.53,21.03l.46,4.03.54-.59-.38-3.95-.62.51Z"/>
  <path class="cls-4" d="m74.26,22.51l.86,5.35-.4.61-1.02-5.57.56-.39Z"/>
  <path class="cls-8" d="m70.43,30.67v.77l12.77-11.57v-.21l-12.77,11.01Z"/>
  <path class="cls-19" d="m83.39,19.67l-12.96,12v6.31l13.2-17.01-.24-1.3Z"/>
  <path class="cls-7" d="m83.32,18.25l-12.75,3.37v.67l12.75-3.91v-.13Z"/>
  <path class="cls-7" d="m72.29,33.86l-.6-1.06,11.57-12.3.08.49-11.05,12.87Z"/>
  <path class="cls-14" d="m83.32,18.25l-12.75,3.37v.67l12.75-3.91v-.13Z"/>
  <path class="cls-14" d="m72.29,33.86l-.6-1.06,11.57-12.3.08.49-11.05,12.87Z"/>
  <path class="cls-19" d="m70.43,24.35v-2l12.91-3.82v.56l-12.91,5.26Z"/>
  <path class="cls-11" d="m97.24,22.79l.72.58-.96,5.81-.75-.89.98-5.5Z"/>
  <path class="cls-4" d="m93.7,20.58l-.31-.2-.54,3.53.34.45.51-3.77Z"/>
  <path class="cls-11" d="m94.27,21.03l-.46,4.03-.54-.59.38-3.95.62.51Z"/>
  <path class="cls-4" d="m96.55,22.51l-.86,5.35.4.61,1.02-5.57-.56-.39Z"/>
  <path class="cls-8" d="m100.37,30.67v.77l-12.77-11.57v-.21l12.77,11.01Z"/>
  <path class="cls-19" d="m87.55,19.67l12.82,12v6.31l-13.06-17.01.23-1.3Z"/>
  <path class="cls-7" d="m87.63,18.25l12.75,3.37v.67l-12.75-3.91v-.13Z"/>
  <path class="cls-7" d="m98.65,33.86l.6-1.06-11.57-12.3-.08.49,11.05,12.87Z"/>
  <path class="cls-14" d="m87.63,18.25l12.75,3.37v.67l-12.75-3.91v-.13Z"/>
  <path class="cls-14" d="m98.65,33.86l.6-1.06-11.57-12.3-.08.49,11.05,12.87Z"/>
  <path class="cls-19" d="m100.37,24.35v-2l-12.77-3.82v.56l12.77,5.26Z"/>
  <path class="cls-12" d="m72.65,16.97c-.13,0-.26,0-.38,0h.38c2.4-.04,7.23-.88,10.12-4.04,3.82-4.17,7.26-9.26,10.92-7.95,2.93,1.04,8.13,8.43,10.37,11.99h-31.41Z"/>
  <path class="cls-12" d="m72.27,19.95v-2.84h9.79v.95l-9.79,1.88Z"/>
  <path class="cls-12" d="m103.94,17.26h-11.09v1.79l7.98,2.38,3.37.52-.26-4.68Z"/>
  <path class="cls-6" d="m83.4,21.37l-12.97,17.03,29.8-.39-12.97-16.64h-3.85Z"/>
  <path class="cls-10" d="m71.56,16.69v-8.66h13.77c-3.18,7.85-9.87,8.66-13.77,8.66Z"/>
  <path class="cls-2" d="m100.19,38.06h-3.4l-1.34-2.18-1.03-1.75-.85-1.44-.65-1.1-5.79-9.85.41-.08,12.65,16.39Z"/>
  <path class="cls-2" d="m73.79,34.05l-1.52,2.08h23.13l-1.47-2.55-20.14.47Z"/>
  <path class="cls-2" d="m76.47,30.54l-1.39,1.82,18.02-.36-.92-1.46h-15.71Z"/>
  <path class="cls-2" d="m78.99,27.47l-1.29,1.69h13.56l-.87-1.69h-11.41Z"/>
  <path class="cls-2" d="m81.2,24.35l-1.12,1.42,9.08-.22-.76-1.2h-7.2Z"/>
</svg>