<?xml version="1.0" encoding="UTF-8"?>
<svg id="Layer_1" data-name="Layer 1" xmlns="http://www.w3.org/2000/svg" viewBox="0 0 109.51 156.15">
  <defs>
    <style>
      .cls-1 {
        fill: #d1d3d4;
        opacity: .58;
        stroke: #a7a9ac;
        stroke-miterlimit: 10;
        stroke-width: .25px;
      }
    </style>
  </defs>
  <path class="cls-1" d="m25.95,12.14l35.78,10.64c.1.03.16.13.13.24l-9.77,35.44c-.01.05,0,.11.02.16l39.03,60.23s.02.03.02.05l1.67,5.84s.02.04.03.06c.24.32,2.52,3.43,1.71,4.29-.03.03-.06.05-.1.06-.53.15-5,1.46-4.87,2.52.14,1.11,1.1,5.12-3.23,6.43-.08.02-.14.1-.14.18l.07,3.85c0,.06.02.11.07.14.51.41,3.74,3.22-1.45,4.38l-.9.48-22.72-2.89c-.1-.01-.18-.1-.17-.2.13-1.36.67-10.25-6.86-17.27-.03-.02-.06-.04-.09-.05l-1.87-.43c-.09-.02-.16-.11-.15-.2l.18-2.59c0-.06-.02-.12-.06-.15l-2.12-1.96c-.06-.06-.15-.07-.22-.03l-1.21.63c-.07.04-.17.02-.23-.04l-3.34-3.37s0,0-.01-.01l-3.19-3.93s-.09-.07-.15-.07l-2.31-.02s-.07-.01-.11-.03l-6.06-4.04c-.05-.04-.09-.1-.09-.16v-4.76c0-.08.05-.15.12-.18l1.31-.57c.07-.03.11-.09.12-.17l.11-2.05c0-.07-.03-.14-.09-.17l-1.39-.87c-.06-.04-.09-.1-.09-.17l.04-2.37s0-.06-.02-.09c-.4-.8-6.84-13.5-6.84-13.88,0-.34.05-1.64.06-2.02,0-.07.04-.13.1-.16l1.93-1.03c.06-.03.1-.09.1-.16l.12-3.31c0-.07-.03-.13-.08-.17-.49-.33-2.95-2-3.06-2.54-.11-.57-.01-7.44,0-8.13,0-.04.01-.07.04-.1l.78-1.08,1.84,3.89c.08.17.34.13.37-.06l.57-4.67c0-.08.07-.14.14-.16l2.3-.6c.16-.04.2-.24.07-.34-.78-.6-2.93-2.13-4.44-1.91-.08.01-.14.07-.16.14l-.58,1.84c-.03.1-.12.15-.22.13-.65-.15-2.97-.82-3.42-2.76s-.13-2.99-.03-3.26c.02-.05.01-.1,0-.15l-3.27-6.67s-.02-.06-.02-.08v-9.07c0-.1.08-.19.18-.19.46-.02,1.67-.34,1.29-3.2l-2.46-8.25s-.67-.13,1.8-2.6,4.54-7.8,4.71-8.22c0-.02.01-.04.01-.06l.5-7.77c0-.12.13-.21.25-.17Z"/>
</svg>