<?xml version="1.0" encoding="UTF-8"?>
<svg id="Layer_1" data-name="Layer 1" xmlns="http://www.w3.org/2000/svg" viewBox="0 0 79.27 22.35">
  <defs>
    <style>
      .cls-1 {
        fill: #f4c643;
      }

      .cls-2 {
        fill: #d1d3d4;
      }
    </style>
  </defs>
  <polygon class="cls-1" points="11.76 4.26 13.69 8.18 18.02 8.81 14.89 11.86 15.62 16.17 11.76 14.14 7.89 16.17 8.63 11.86 5.5 8.81 9.82 8.18 11.76 4.26"/>
  <polygon class="cls-1" points="25.73 4.26 27.66 8.18 31.99 8.81 28.86 11.86 29.6 16.17 25.73 14.14 21.86 16.17 22.6 11.86 19.47 8.81 23.79 8.18 25.73 4.26"/>
  <polygon class="cls-1" points="39.56 4.26 41.49 8.18 45.81 8.81 42.68 11.86 43.42 16.17 39.56 14.14 35.69 16.17 36.43 11.86 33.3 8.81 37.62 8.18 39.56 4.26"/>
  <polygon class="cls-1" points="53.53 4.26 55.46 8.18 59.79 8.81 56.66 11.86 57.4 16.17 53.53 14.14 49.66 16.17 50.4 11.86 47.27 8.81 51.59 8.18 53.53 4.26"/>
  <polygon class="cls-1" points="67.28 4.26 69.21 8.18 73.54 8.81 70.41 11.86 71.15 16.17 67.28 14.14 63.41 16.17 64.15 11.86 61.02 8.81 65.35 8.18 67.28 4.26"/>
  <polygon class="cls-2" points="67.28 4.26 69.21 8.18 73.54 8.81 70.41 11.86 71.15 16.17 67.28 14.14 67.28 14.14 67.28 14.14 67.28 9.37 67.28 9.37 67.28 4.26"/>
</svg>