<?xml version="1.0" encoding="UTF-8"?>
<svg id="Layer_1" data-name="Layer 1" xmlns="http://www.w3.org/2000/svg" viewBox="0 0 131.56 111.91">
  <defs>
    <style>
      .cls-1 {
        fill: #ed1c24;
      }

      .cls-2 {
        fill: #7bbece;
      }

      .cls-3 {
        fill: #444542;
      }

      .cls-4, .cls-5 {
        fill: #948d7a;
      }

      .cls-6 {
        fill: #545047;
      }

      .cls-7 {
        fill: #d1d3d4;
        stroke: #a7a9ac;
        stroke-width: .25px;
      }

      .cls-7, .cls-8, .cls-9, .cls-10, .cls-11, .cls-5, .cls-12, .cls-13, .cls-14, .cls-15 {
        stroke-miterlimit: 10;
      }

      .cls-8 {
        fill: #dddbd7;
      }

      .cls-8, .cls-5, .cls-12 {
        stroke: #948d7a;
      }

      .cls-9 {
        fill: #8e8775;
        stroke: #8e8775;
      }

      .cls-10 {
        fill: #231f20;
      }

      .cls-10, .cls-15 {
        stroke: #231f20;
      }

      .cls-11 {
        fill: #a89e88;
        stroke: #a89e88;
      }

      .cls-12, .cls-13, .cls-15 {
        fill: none;
      }

      .cls-13 {
        stroke: #455d6b;
      }

      .cls-14 {
        fill: #aeadab;
        stroke: #aeadab;
        stroke-width: .1px;
      }

      .cls-15 {
        stroke-width: .5px;
      }
    </style>
  </defs>
  <path class="cls-7" d="m20.39,15.79l28.28-1.85s3.7,11.83,4.07,10.72,2.96,33.45,2.96,33.45c0,0-1.54.24-1.38,1.22s.93.89.93.89l-.56,1.73,1.24,1.47v4.78l-.95.92.03,1.41-1.37.85-.13,2.22h-2l.88,1.73-.07,1.18-1.05.72-.11,4.2-.46.57-.07,1.31.5.39-.14,1.91s-3.36.74-4.14,1.42v1.77l.88.78-.04,1.52-.88.5h-1.27l-.35-.92-3.5-1.2-2.69,2.6h-2.12l-1.35-2.91.11-1.52.6-.92-.6-1.13-.04-2.44-9.98-6.69.07-3.19,1.2-2.8.04-1.7,1.1-.96-.28-1.31s-3.15-1.81-4.25-.71l-.81,1.38-.74-.07-.88-2.27.04-3.19-7.89-6.69v-3.54h-1.03v-5.66h.92l-.18-2.8,2.65-1.45.07-2.41,1.49-1.49.04-2.37-1.66-1.7v-1.95l.53-.71,2.8-.04-.07-.85,1.7.04.07-.99,2.51-.11.18-2.76,1.64-1.74-.08-4.29-4.37-4.36Z"/>
  <g>
    <polygon class="cls-14" points="89.13 61.48 91.08 61.57 91.63 63.82 91.63 64.14 91.94 65.2 91.94 65.63 91.65 65.63 91.94 66.2 91.47 77.69 87.58 77.38 88.42 61.52 89.13 61.48"/>
    <polygon class="cls-14" points="86.81 53.73 87.02 52.31 87.16 52.31 87.27 52.18 87.27 52.11 89.1 52.11 89.1 52.21 89.13 52.31 89.22 52.44 89.15 52.92 89.22 53.08 89.3 53.2 89.37 53.36 89.33 53.62 89.37 53.77 89.37 53.88 89.37 54.1 89.33 54.4 89.29 54.69 89.37 54.85 89.45 54.97 89.33 56.22 89.41 56.38 89.17 59.79 89.27 60.04 89.13 61.48 88.87 61 87.58 77.38 86.81 77.26 86.81 53.73"/>
    <path class="cls-14" d="m85.15,52.11h1.13l2.7,8.28-.02.05-.08.02-.02.04-.22-.02-.05.04.08.16-.11.11-.07.03-.03.19.08.3v.15s-.08.05-.08.05l-.05.03.07.11-.19,1.26.25.59-.03.1-.14.1.03.09-.07.29-.03.04.1.17s-.03.11-.07.14-.84,10.05-.84,10.05c0,0,.09.03.09.05s-.03.14-.03.14l-.07.1-.03.5.26.22-.15.18.03.03-.13.03-.1.12.04.07-.14,1.42-2.14-.14v-25.08Z"/>
    <path class="cls-14" d="m91.47,77.69l.21-5.15.74-.26.19-3.86h.11l.08.29.12-.05v-.43l.14-.18.05-.81-.1-.15.1-.06.04-.28.08-.15.06.14h.16s.06-.76.69-.77c0,0,.4.01.57.64l.12.15v.1l.06.12.04-.17.04-.1.04-.1.1.19v.26l.07.15-.04.09-.03.1.02.25-.02.35.04.2.06.12.03.13.06.02v.13l.11.04.04-.18v-.13l.08-.13.09.14.05.18v3.79l.41.12v-.11l.09.12v.36l.38.07v-.6l.11-.33s.08-.23.27-.22.27.11.27.11l.13,1.06.11.07-.06,5.68-5.89-.95Z"/>
    <polygon class="cls-14" points="96.54 72.86 96.54 68.08 98.96 66.89 101.14 67.87 101.52 80.01 100.03 80.13 97.36 78.65 96.54 72.86"/>
    <path class="cls-14" d="m101.25,71.49l.27.13.55-.23v-.25l.5.1-.21-2.7,3.29-1.34,1.86.99.5,8.38.48-.19-.5-5.99,1.01-1.03,1.13.4.78-.36.71.94.11.86.63-.1,1.11.46.33,2.73h.09v.24l.18.08v.11l.06.09v.26l.07.05.08.99.99-.18-.11-.69,1.17-.19-1.13-7.84s-.06-.18.13-.19c0,0-.06-.09.04-.17s.33-.14.33-.14l-1.79-13.68,2.08-1.09,3,.17.05,30.51h-17.52v-2.61l-.27-8.52Z"/>
    <path class="cls-2" d="m85.27,86.47s18.82-2.97,19.54-3.69v-.04h-.09l-.02-.32.05-.05s1.05-.03,1.1-.05,1.68,0,1.74-.05,1.59.02,1.66-.05c0,0,1.35-.01,1.41-.03s.21.27.21.32-.1.14-.09.17,2.12.07,2.23-.04,1.37-.07,1.37-.07c0,0,1.19-.08,1.39-.04s3.1.03,3.27.08l.08,4.68v9.76h-33.85v-10.58Z"/>
    <polygon class="cls-3" points="85.15 77.19 91.47 77.69 97.36 78.65 100.03 80.13 101.52 80.13 101.52 81.75 99.78 81.75 93.75 81.59 85.15 81.65 85.15 77.19"/>
    <path class="cls-10" d="m85.8,79.26l-.08,1.3c-.01.18.13.34.32.34h2.97c.17,0,.3-.13.32-.29l.1-1.3c.01-.18-.13-.34-.32-.34h-2.99c-.17,0-.31.13-.32.3Z"/>
    <path class="cls-10" d="m90.24,79.45l-.06,1.08c-.01.2.14.37.35.38l2.19.06c.19,0,.35-.14.37-.33l.07-1.06c.01-.2-.14-.37-.34-.38l-2.2-.08c-.19,0-.36.14-.37.34Z"/>
    <path class="cls-10" d="m94.43,79.55l-.1,1.25c0,.1.07.18.17.18h.86c.09,0,.17-.08.17-.17v-1.18c0-.09-.07-.16-.16-.17l-.76-.07c-.09,0-.18.06-.19.16Z"/>
    <path class="cls-10" d="m96.41,79.7v1.27s.04.09.09.09h.54s.09-.04.09-.09v-1.21s-.03-.08-.08-.09l-.54-.06c-.05,0-.1.04-.1.09Z"/>
    <rect class="cls-10" x="98.2" y="79.81" width=".53" height="1.25" rx=".13" ry=".13"/>
    <path class="cls-4" d="m85.15,81.76l10.08-.02,6.17.12v.86l3.2.12s-17.26,3.67-19.45,3.74v-4.82Z"/>
    <polygon class="cls-6" points="85.15 83.75 101.52 82.39 101.52 82.62 85.15 83.91 85.15 83.75"/>
    <polygon class="cls-6" points="85.15 84.75 101.52 82.84 101.52 82.99 85.15 85.1 85.15 84.75"/>
    <polygon class="cls-6" points="85.87 83.85 85.79 84.68 85.91 84.68 85.97 83.85 85.87 83.85"/>
    <polygon class="cls-6" points="87.14 83.75 87.09 84.52 87.18 84.52 87.24 83.74 87.14 83.75"/>
    <polygon class="cls-6" points="88.36 83.66 88.33 84.38 88.43 84.4 88.46 83.65 88.36 83.66"/>
    <polygon class="cls-6" points="89.52 83.56 89.47 84.22 89.54 84.22 89.58 83.56 89.52 83.56"/>
    <polygon class="cls-6" points="90.57 83.48 90.5 84.16 90.62 84.16 90.62 83.44 90.57 83.48"/>
    <polygon class="cls-6" points="91.31 83.44 91.36 84.07 91.47 84.07 91.42 83.41 91.31 83.44"/>
    <polygon class="cls-6" points="92.44 83.33 92.5 83.93 92.58 83.89 92.48 83.29 92.44 83.33"/>
    <polygon class="cls-6" points="93.39 83.23 93.43 83.8 93.5 83.8 93.45 83.21 93.39 83.23"/>
    <polygon class="cls-6" points="93.96 83.21 94.02 83.71 94.13 83.71 94.03 83.21 93.96 83.21"/>
    <polygon class="cls-6" points="94.77 83.15 94.83 83.62 94.94 83.61 94.87 83.1 94.77 83.15"/>
    <polygon class="cls-6" points="95.72 83.04 95.72 83.56 95.84 83.56 95.76 83.04 95.72 83.04"/>
    <polygon class="cls-6" points="96.45 82.99 96.47 83.46 96.54 83.46 96.5 82.95 96.45 82.99"/>
    <polygon class="cls-6" points="97.12 82.91 97.16 83.36 97.21 83.36 97.17 82.91 97.12 82.91"/>
    <polygon class="cls-6" points="97.7 82.88 97.75 83.3 97.8 83.3 97.75 82.88 97.7 82.88"/>
    <polygon class="cls-6" points="98.25 82.88 98.31 83.25 98.36 83.25 98.3 82.84 98.25 82.88"/>
    <polygon class="cls-6" points="98.8 82.83 98.86 83.15 98.91 83.15 98.86 82.78 98.8 82.83"/>
    <polygon class="cls-6" points="99.44 82.78 99.49 83.14 99.54 83.14 99.49 82.75 99.44 82.78"/>
    <polygon class="cls-6" points="99.93 82.74 99.98 83.04 100.04 83.04 100 82.71 99.93 82.74"/>
    <polygon class="cls-6" points="100.45 82.7 100.5 82.96 100.59 82.95 100.56 82.66 100.45 82.7"/>
    <polygon class="cls-6" points="100.88 82.66 100.93 82.94 101.03 82.91 100.98 82.62 100.88 82.66"/>
    <polygon class="cls-6" points="101.41 82.62 101.44 82.88 101.52 82.84 101.52 82.62 101.41 82.62"/>
  </g>
  <g>
    <path class="cls-5" d="m68.49,25.74s1.21-7.68,6.97-13.72c3.49-3.66,8.65-6.71,16.23-7.08,0,0,18.39.96,21.52,20.8h-44.72Z"/>
    <path class="cls-8" d="m72.9,18.24h3.44v-5.06s-3.13,3.26-3.44,5.06Z"/>
    <polygon class="cls-8" points="77.91 12.24 77.78 18.45 83.43 18.45 83.56 12.34 77.91 12.24"/>
    <polygon class="cls-8" points="85.1 12.24 84.95 18.45 90.7 18.45 90.7 12.34 85.1 12.24"/>
    <path class="cls-8" d="m78.73,10.62l4.83.08v-2.9s-3.65,1.54-4.83,2.82Z"/>
    <path class="cls-8" d="m85.08,7.26v3.72l5.62-.08.1-4.57s-3.31-.39-5.73.92Z"/>
    <path class="cls-8" d="m92.44,6.28l-.18,4.57,5.65.13.1-3.67s-3.92-1.67-5.57-1.03Z"/>
    <polygon class="cls-8" points="92.42 12.24 92.26 18.45 98.02 18.45 98.02 12.34 92.42 12.24"/>
    <polygon class="cls-8" points="85.1 19.99 84.95 26.2 90.7 26.2 90.7 20.09 85.1 19.99"/>
    <polygon class="cls-8" points="92.32 20.17 92.16 26.39 97.91 26.39 97.91 20.28 92.32 20.17"/>
    <polygon class="cls-8" points="77.79 19.99 77.66 26.21 83.31 26.21 83.43 20.1 77.79 19.99"/>
    <path class="cls-8" d="m104.07,10.8l-4.83.08v-2.9s3.65,1.54,4.83,2.82Z"/>
    <path class="cls-8" d="m110.37,18.73h-3.44v-5.06s3.13,3.26,3.44,5.06Z"/>
    <polygon class="cls-8" points="99.37 12.52 99.24 18.73 104.89 18.73 105.02 12.62 99.37 12.52"/>
    <polygon class="cls-8" points="99.37 20.37 99.24 26.59 104.89 26.59 105.02 20.47 99.37 20.37"/>
    <path class="cls-8" d="m71.27,25.11s.69-5.19,1.1-5.32,3.98.07,3.98.07v5.25h-5.08Z"/>
    <path class="cls-8" d="m111.85,25.54s-.69-5.19-1.1-5.32-3.98.07-3.98.07v5.25s5.08,0,5.08,0Z"/>
    <polygon class="cls-9" points="68.49 27.46 68.49 41.21 66.1 41.21 65.19 42.64 65.15 26.96 68.45 27.05 68.49 27.46"/>
    <polygon class="cls-9" points="115.67 28.97 115.67 42.72 118.06 42.72 118.97 44.15 119.01 28.47 115.72 28.56 115.67 28.97"/>
    <rect class="cls-11" x="68.45" y="27.2" width="47.22" height="14.45"/>
    <rect class="cls-12" x="71.02" y="29.09" width="11.18" height="9.56"/>
    <rect class="cls-12" x="86.2" y="29.34" width="11.24" height="9.8"/>
    <rect class="cls-12" x="100.98" y="29.61" width="11.63" height="9.53"/>
    <circle class="cls-13" cx="76.77" cy="33.84" r=".92"/>
    <circle class="cls-13" cx="76.77" cy="33.87" r="1.94"/>
    <rect class="cls-13" x="72.17" y="29.96" width="8.89" height="7.6"/>
    <rect class="cls-13" x="87.37" y="30.32" width="8.89" height="7.6"/>
    <rect class="cls-13" x="102.35" y="30.74" width="8.89" height="7.6"/>
    <circle class="cls-13" cx="91.69" cy="34.02" r=".92"/>
    <circle class="cls-13" cx="91.69" cy="34.02" r="1.67"/>
    <polygon class="cls-13" points="87.54 33.84 91.69 30.54 96.14 34.24 91.69 37.56 87.54 33.84"/>
    <circle class="cls-13" cx="106.8" cy="34.51" r=".92"/>
    <circle class="cls-13" cx="106.8" cy="34.54" r="1.94"/>
    <polygon class="cls-5" points="63.5 26.65 64 25.77 65.19 25.52 67.11 25.52 67.71 25.21 70.46 25.37 70.2 25.59 113.21 25.74 113.62 26.14 116.66 26.22 117.25 26.27 117.48 26.52 119.53 26.53 120.38 26.96 120.82 27.77 118.91 27.77 119.12 28.22 115.24 28.22 114.87 27.67 69.09 26.72 68.45 27.05 65.15 26.96 65.43 26.72 63.5 26.65"/>
  </g>
  <line class="cls-15" x1="47.34" y1="19.35" x2="47.34" y2="12.21"/>
  <circle class="cls-1" cx="47.35" cy="12.78" r="3"/>
</svg>